G04 This is an RS-274x file exported by *
G04 gerbv version 2.5.0 *
G04 More information is available about gerbv at *
G04 http://gerbv.gpleda.org/ *
G04 --End of header info--*
%MOIN*%
%FSLAX23Y23*%
%IPPOS*%
G04 --Define apertures--*
%ADD10C,0.0059*%
%ADD11C,0.0118*%
%ADD12C,0.0100*%
%ADD13R,0.0550X0.0550*%
%ADD14C,0.0550*%
%ADD15C,0.0787*%
%ADD16C,0.0700*%
%ADD17C,0.0787*%
%ADD18O,0.1187X0.0593*%
%ADD19C,0.0315*%
%ADD20C,0.0197*%
%ADD21C,0.0118*%
G04 --Start main section--*
G54D12*
G01X07670Y-3893D02*
G01X07670Y-3913D01*
G01X07670Y-3913D02*
G01X07714Y-3913D01*
G01X07714Y-3882D02*
G01X07714Y-3854D01*
G01X07714Y-3854D02*
G01X07670Y-3882D01*
G01X07670Y-3882D02*
G01X07670Y-3854D01*
G01X07670Y-3814D02*
G01X07670Y-3839D01*
G01X07670Y-3827D02*
G01X07714Y-3827D01*
G01X07714Y-3827D02*
G01X07708Y-3831D01*
G01X07708Y-3831D02*
G01X07703Y-3835D01*
G01X07703Y-3835D02*
G01X07701Y-3839D01*
G01X07683Y-3798D02*
G01X07683Y-3777D01*
G01X07670Y-3802D02*
G01X07714Y-3788D01*
G01X07714Y-3788D02*
G01X07670Y-3773D01*
G01X07670Y-3734D02*
G01X07691Y-3748D01*
G01X07670Y-3759D02*
G01X07714Y-3759D01*
G01X07714Y-3759D02*
G01X07714Y-3742D01*
G01X07714Y-3742D02*
G01X07712Y-3738D01*
G01X07712Y-3738D02*
G01X07710Y-3736D01*
G01X07710Y-3736D02*
G01X07705Y-3734D01*
G01X07705Y-3734D02*
G01X07699Y-3734D01*
G01X07699Y-3734D02*
G01X07695Y-3736D01*
G01X07695Y-3736D02*
G01X07693Y-3738D01*
G01X07693Y-3738D02*
G01X07691Y-3742D01*
G01X07691Y-3742D02*
G01X07691Y-3759D01*
G01X07670Y-3715D02*
G01X07714Y-3715D01*
G01X07714Y-3715D02*
G01X07683Y-3701D01*
G01X07683Y-3701D02*
G01X07714Y-3686D01*
G01X07714Y-3686D02*
G01X07670Y-3686D01*
G54D13*
G01X04935Y-3935D03*
G54D14*
G01X05035Y-3935D03*
G54D15*
G01X03950Y-3385D03*
G01X03844Y-3279D03*
G01X03844Y-3491D03*
G01X04056Y-3491D03*
G01X04056Y-3279D03*
G01X03950Y-4605D03*
G01X03844Y-4499D03*
G01X03844Y-4711D03*
G01X04056Y-4711D03*
G01X04056Y-4499D03*
G54D13*
G01X07330Y-3375D03*
G54D14*
G01X07230Y-3375D03*
G01X07130Y-3375D03*
G01X07030Y-3375D03*
G01X06930Y-3375D03*
G01X06830Y-3375D03*
G54D13*
G01X05510Y-3845D03*
G54D14*
G01X05510Y-3945D03*
G01X05510Y-4045D03*
G01X05510Y-4145D03*
G01X05510Y-4245D03*
G01X05510Y-4345D03*
G01X05510Y-4445D03*
G01X05510Y-4545D03*
G01X05810Y-4545D03*
G01X05810Y-4445D03*
G01X05810Y-4345D03*
G01X05810Y-4245D03*
G01X05810Y-4145D03*
G01X05810Y-4045D03*
G01X05810Y-3945D03*
G01X05810Y-3845D03*
G54D16*
G01X05405Y-4120D03*
G01X05405Y-4320D03*
G54D17*
G01X05770Y-3381D03*
G01X05770Y-3578D03*
G01X04615Y-3396D03*
G01X04615Y-3593D03*
G54D18*
G01X07675Y-4605D03*
G01X07675Y-4505D03*
G54D19*
G01X06158Y-4623D03*
G01X04735Y-4330D03*
G01X04482Y-4332D03*
G01X05645Y-3910D03*
G01X07210Y-3805D03*
G01X07210Y-3635D03*
G01X07175Y-3585D03*
G01X07400Y-4573D03*
G01X05355Y-3625D03*
G01X05255Y-3640D03*
G01X05365Y-3575D03*
G01X04315Y-4740D03*
G01X04155Y-4740D03*
G01X05355Y-4740D03*
G01X05715Y-4740D03*
G01X06135Y-4740D03*
G01X07770Y-4605D03*
G01X07770Y-4730D03*
G01X07585Y-4730D03*
G01X07395Y-4735D03*
G01X07235Y-4740D03*
G01X07085Y-4740D03*
G01X06925Y-4740D03*
G01X06785Y-4740D03*
G01X06630Y-4740D03*
G01X06490Y-4740D03*
G01X06340Y-4740D03*
G01X05945Y-4740D03*
G01X05560Y-4740D03*
G01X04480Y-4740D03*
G01X04680Y-4740D03*
G01X04920Y-4740D03*
G01X05150Y-4740D03*
G01X07600Y-4260D03*
G01X07735Y-4260D03*
G01X07760Y-4400D03*
G01X06655Y-3255D03*
G01X06880Y-3250D03*
G01X07125Y-3250D03*
G01X07335Y-3250D03*
G01X07530Y-3250D03*
G01X07770Y-3250D03*
G01X07770Y-3405D03*
G01X07770Y-3570D03*
G01X07770Y-3745D03*
G01X07770Y-3915D03*
G01X07770Y-4045D03*
G01X07770Y-4235D03*
G01X04520Y-3640D03*
G01X04345Y-3585D03*
G01X04440Y-3640D03*
G01X04675Y-3650D03*
G01X05217Y-3490D03*
G01X05335Y-3475D03*
G01X04960Y-3471D03*
G01X05115Y-3573D03*
G01X05117Y-3490D03*
G01X05531Y-3626D03*
G01X06340Y-3345D03*
G01X06340Y-3425D03*
G01X06290Y-3542D03*
G01X06330Y-3490D03*
G01X06374Y-3541D03*
G01X06465Y-3630D03*
G01X06190Y-4160D03*
G01X06081Y-4154D03*
G01X05580Y-3625D03*
G01X05823Y-3649D03*
G01X05678Y-3646D03*
G01X05338Y-3297D03*
G01X05230Y-3255D03*
G01X05120Y-3255D03*
G01X05339Y-3258D03*
G01X04175Y-3542D03*
G01X04260Y-3542D03*
G01X04425Y-3542D03*
G01X04353Y-3467D03*
G01X04618Y-3463D03*
G01X04504Y-3463D03*
G01X04727Y-3457D03*
G01X04725Y-3523D03*
G01X04727Y-3594D03*
G01X07024Y-4302D03*
G01X05660Y-4564D03*
G01X05708Y-4336D03*
G01X05609Y-4438D03*
G01X05389Y-4548D03*
G01X05897Y-4550D03*
G01X05897Y-4444D03*
G01X03970Y-4268D03*
G01X03860Y-4280D03*
G01X05280Y-4220D03*
G01X04725Y-3260D03*
G01X05025Y-3270D03*
G01X06264Y-3914D03*
G01X06205Y-4015D03*
G01X06445Y-3550D03*
G01X05980Y-3755D03*
G01X05935Y-3560D03*
G01X04530Y-3975D03*
G01X04435Y-3955D03*
G01X04220Y-4105D03*
G01X04250Y-4400D03*
G01X04300Y-4600D03*
G01X04300Y-4500D03*
G01X04350Y-4600D03*
G01X04450Y-4600D03*
G01X04350Y-4500D03*
G01X04450Y-4500D03*
G01X04450Y-4400D03*
G01X04350Y-4400D03*
G01X04350Y-4300D03*
G01X04250Y-4300D03*
G01X04600Y-4400D03*
G01X04250Y-4700D03*
G01X04450Y-4700D03*
G01X04350Y-4700D03*
G01X04600Y-4600D03*
G01X04600Y-4250D03*
G01X07247Y-3870D03*
G01X07120Y-3980D03*
G01X07125Y-3883D03*
G01X07540Y-3947D03*
G01X06554Y-4237D03*
G01X06780Y-4260D03*
G01X07091Y-4545D03*
G01X07580Y-4460D03*
G01X07500Y-4460D03*
G01X07600Y-4040D03*
G01X07480Y-4160D03*
G01X05120Y-4020D03*
G01X05640Y-3780D03*
G01X05520Y-3780D03*
G01X05360Y-3780D03*
G01X05240Y-3780D03*
G01X05120Y-3780D03*
G01X05120Y-3840D03*
G01X04980Y-3840D03*
G01X04080Y-3840D03*
G01X04780Y-3980D03*
G01X04780Y-3860D03*
G01X04680Y-3880D03*
G01X04680Y-4060D03*
G01X04615Y-3593D03*
G01X04540Y-3260D03*
G01X04340Y-3260D03*
G01X04160Y-3260D03*
G01X04240Y-3260D03*
G01X04440Y-3260D03*
G01X04640Y-3260D03*
G01X05450Y-3250D03*
G01X05850Y-3250D03*
G01X06200Y-3250D03*
G01X06551Y-3549D03*
G01X06554Y-3440D03*
G01X06551Y-3347D03*
G01X06345Y-3250D03*
G01X06480Y-3255D03*
G01X06050Y-3250D03*
G01X05650Y-3250D03*
G01X06330Y-4094D03*
G01X06768Y-3812D03*
G01X06791Y-3722D03*
G01X06792Y-3655D03*
G01X06767Y-3758D03*
G01X06767Y-3933D03*
G01X07500Y-3698D03*
G01X07553Y-3497D03*
G01X07603Y-3416D03*
G01X07551Y-3600D03*
G01X07496Y-3747D03*
G01X07606Y-3269D03*
G01X06286Y-4276D03*
G01X06677Y-4575D03*
G01X06020Y-4422D03*
G01X06551Y-4149D03*
G01X06551Y-4047D03*
G01X06554Y-3848D03*
G01X06551Y-3951D03*
G01X06551Y-3750D03*
G01X06551Y-3650D03*
G01X06680Y-4360D03*
G01X05325Y-4020D03*
G01X06940Y-3950D03*
G01X07280Y-3980D03*
G01X07195Y-3995D03*
G01X07375Y-4170D03*
G01X07280Y-3930D03*
G01X06985Y-3585D03*
G01X07521Y-4066D03*
G01X07425Y-3650D03*
G01X07410Y-3610D03*
G01X04486Y-4135D03*
G01X04588Y-4136D03*
G01X06940Y-4060D03*
G01X06010Y-3630D03*
G01X04895Y-3665D03*
G01X05155Y-3700D03*
G01X07341Y-4196D03*
G01X06420Y-4520D03*
G01X06719Y-3367D03*
G01X06720Y-3890D03*
G01X06968Y-4296D03*
G01X04045Y-3745D03*
G01X07290Y-4485D03*
G01X04605Y-3895D03*
G54D12*
G01X04558Y-3650D02*
G01X04560Y-3648D01*
G01X04560Y-3648D02*
G01X04560Y-3640D01*
G54D20*
G01X05810Y-4245D02*
G01X05810Y-4250D01*
G01X05885Y-4350D02*
G01X06158Y-4623D01*
G01X05885Y-4350D02*
G01X05885Y-4350D01*
G01X05885Y-4355D02*
G01X05885Y-4350D01*
G01X05885Y-4325D02*
G01X05885Y-4355D01*
G01X05810Y-4250D02*
G01X05885Y-4325D01*
G01X04735Y-4330D02*
G01X04487Y-4330D01*
G01X04485Y-4332D02*
G01X04482Y-4332D01*
G01X04487Y-4330D02*
G01X04485Y-4332D01*
G54D12*
G01X07265Y-3805D02*
G01X07210Y-3805D01*
G01X07345Y-3885D02*
G01X07265Y-3805D01*
G01X07345Y-4045D02*
G01X07345Y-3885D01*
G01X06985Y-4405D02*
G01X07345Y-4045D01*
G01X06845Y-4405D02*
G01X06985Y-4405D01*
G01X06750Y-4310D02*
G01X06845Y-4405D01*
G01X06645Y-4310D02*
G01X06750Y-4310D01*
G01X06585Y-4370D02*
G01X06645Y-4310D01*
G01X06225Y-4370D02*
G01X06585Y-4370D01*
G01X05915Y-4060D02*
G01X06225Y-4370D01*
G01X05915Y-3965D02*
G01X05915Y-4060D01*
G01X05845Y-3895D02*
G01X05915Y-3965D01*
G01X05660Y-3895D02*
G01X05845Y-3895D01*
G01X05645Y-3910D02*
G01X05660Y-3895D01*
G54D21*
G01X05510Y-4145D02*
G01X05710Y-4145D01*
G01X07310Y-3635D02*
G01X07210Y-3635D01*
G01X07395Y-3720D02*
G01X07310Y-3635D01*
G01X07395Y-4035D02*
G01X07395Y-3720D01*
G01X06985Y-4445D02*
G01X07395Y-4035D01*
G01X06195Y-4445D02*
G01X06985Y-4445D01*
G01X05845Y-4095D02*
G01X06195Y-4445D01*
G01X05760Y-4095D02*
G01X05845Y-4095D01*
G01X05710Y-4145D02*
G01X05760Y-4095D01*
G01X05510Y-4245D02*
G01X05710Y-4245D01*
G01X07315Y-3585D02*
G01X07175Y-3585D01*
G01X07430Y-3700D02*
G01X07315Y-3585D01*
G01X07430Y-4050D02*
G01X07430Y-3700D01*
G01X07000Y-4480D02*
G01X07430Y-4050D01*
G01X06140Y-4480D02*
G01X07000Y-4480D01*
G01X05855Y-4195D02*
G01X06140Y-4480D01*
G01X05760Y-4195D02*
G01X05855Y-4195D01*
G01X05710Y-4245D02*
G01X05760Y-4195D01*
G54D12*
G01X07400Y-4573D02*
G01X07400Y-4575D01*
G01X05355Y-3625D02*
G01X05355Y-3585D01*
G01X05355Y-3585D02*
G01X05365Y-3575D01*
G01X04315Y-4740D02*
G01X04155Y-4740D01*
G01X05945Y-4740D02*
G01X06135Y-4740D01*
G01X06135Y-4740D02*
G01X06340Y-4740D01*
G01X07770Y-4605D02*
G01X07770Y-4730D01*
G01X07585Y-4730D02*
G01X07580Y-4735D01*
G01X07580Y-4735D02*
G01X07395Y-4735D01*
G01X07235Y-4740D02*
G01X07085Y-4740D01*
G01X06925Y-4740D02*
G01X06785Y-4740D01*
G01X06630Y-4740D02*
G01X06490Y-4740D01*
G01X05715Y-4740D02*
G01X05945Y-4740D01*
G01X05355Y-4740D02*
G01X05560Y-4740D01*
G01X04680Y-4740D02*
G01X04480Y-4740D01*
G01X05150Y-4740D02*
G01X04920Y-4740D01*
G54D20*
G01X07600Y-4260D02*
G01X07600Y-4260D01*
G01X07600Y-4260D02*
G01X07735Y-4260D01*
G54D12*
G01X06875Y-3255D02*
G01X06655Y-3255D01*
G01X06880Y-3250D02*
G01X06875Y-3255D01*
G01X07335Y-3250D02*
G01X07125Y-3250D01*
G01X07770Y-3250D02*
G01X07530Y-3250D01*
G01X07770Y-3570D02*
G01X07770Y-3405D01*
G01X07770Y-3915D02*
G01X07770Y-3745D01*
G01X07770Y-4235D02*
G01X07770Y-4045D01*
G54D20*
G01X04618Y-3593D02*
G01X04675Y-3650D01*
G01X04618Y-3593D02*
G01X04615Y-3593D01*
G01X05324Y-3475D02*
G01X05309Y-3490D01*
G01X05309Y-3490D02*
G01X05217Y-3490D01*
G01X05335Y-3475D02*
G01X05335Y-3475D01*
G01X05335Y-3475D02*
G01X05324Y-3475D01*
G01X05115Y-3492D02*
G01X05115Y-3573D01*
G01X05117Y-3490D02*
G01X05115Y-3492D01*
G01X06340Y-3345D02*
G01X06339Y-3424D01*
G01X06339Y-3424D02*
G01X06340Y-3425D01*
G01X06330Y-3490D02*
G01X06330Y-3498D01*
G01X06330Y-3498D02*
G01X06374Y-3541D01*
G01X06190Y-4160D02*
G01X06087Y-4160D01*
G01X06087Y-4160D02*
G01X06081Y-4154D01*
G01X05580Y-3625D02*
G01X05657Y-3625D01*
G01X05657Y-3625D02*
G01X05678Y-3646D01*
G01X05338Y-3297D02*
G01X05225Y-3297D01*
G01X05225Y-3297D02*
G01X05230Y-3255D01*
G01X05338Y-3297D02*
G01X05338Y-3259D01*
G01X05338Y-3259D02*
G01X05339Y-3258D01*
G01X04175Y-3542D02*
G01X04175Y-3543D01*
G01X04260Y-3542D02*
G01X04260Y-3543D01*
G01X04425Y-3542D02*
G01X04425Y-3543D01*
G01X04618Y-3463D02*
G01X04504Y-3463D01*
G01X04615Y-3593D02*
G01X04726Y-3593D01*
G01X04727Y-3521D02*
G01X04727Y-3457D01*
G01X04725Y-3523D02*
G01X04727Y-3521D01*
G01X04726Y-3593D02*
G01X04727Y-3594D01*
G01X07126Y-4039D02*
G01X07126Y-4156D01*
G01X07024Y-4258D02*
G01X07024Y-4302D01*
G01X07126Y-4156D02*
G01X07024Y-4258D01*
G01X05660Y-4564D02*
G01X05660Y-4490D01*
G01X05660Y-4612D02*
G01X05660Y-4564D01*
G01X05660Y-4490D02*
G01X05609Y-4438D01*
G01X05660Y-4612D02*
G01X05632Y-4612D01*
G01X05477Y-4636D02*
G01X05389Y-4548D01*
G01X05608Y-4636D02*
G01X05477Y-4636D01*
G01X05632Y-4612D02*
G01X05608Y-4636D01*
G01X05897Y-4550D02*
G01X05897Y-4573D01*
G01X05665Y-4617D02*
G01X05660Y-4612D01*
G01X05853Y-4617D02*
G01X05665Y-4617D01*
G01X05897Y-4573D02*
G01X05853Y-4617D01*
G01X05897Y-4444D02*
G01X05897Y-4550D01*
G54D12*
G01X03970Y-4268D02*
G01X03970Y-4270D01*
G54D21*
G01X06264Y-3914D02*
G01X06256Y-3914D01*
G01X06205Y-3965D02*
G01X06205Y-4015D01*
G01X06256Y-3914D02*
G01X06205Y-3965D01*
G01X06551Y-3549D02*
G01X06446Y-3549D01*
G01X06446Y-3549D02*
G01X06445Y-3550D01*
G01X04435Y-3955D02*
G01X04511Y-3955D01*
G01X04511Y-3955D02*
G01X04530Y-3975D01*
G01X04435Y-3955D02*
G01X04435Y-3955D01*
G01X04300Y-4600D02*
G01X04300Y-4500D01*
G01X04350Y-4500D02*
G01X04450Y-4600D01*
G01X04450Y-4400D02*
G01X04450Y-4500D01*
G01X04350Y-4300D02*
G01X04350Y-4400D01*
G01X04250Y-4400D02*
G01X04250Y-4300D01*
G01X04250Y-4700D02*
G01X04350Y-4700D01*
G01X04550Y-4600D02*
G01X04600Y-4600D01*
G01X04450Y-4700D02*
G01X04550Y-4600D01*
G54D12*
G01X07247Y-3870D02*
G01X07138Y-3870D01*
G01X07120Y-4033D02*
G01X07126Y-4039D01*
G01X07126Y-4039D02*
G01X07142Y-4055D01*
G01X07142Y-4055D02*
G01X07267Y-4055D01*
G01X07267Y-4055D02*
G01X07320Y-4002D01*
G01X07320Y-4002D02*
G01X07320Y-3904D01*
G01X07320Y-3904D02*
G01X07286Y-3870D01*
G01X07286Y-3870D02*
G01X07247Y-3870D01*
G01X07120Y-3980D02*
G01X07120Y-4033D01*
G01X07138Y-3870D02*
G01X07125Y-3883D01*
G01X07540Y-3947D02*
G01X07540Y-3940D01*
G54D20*
G01X06554Y-4237D02*
G01X06757Y-4237D01*
G54D12*
G01X06551Y-4234D02*
G01X06554Y-4237D01*
G01X06551Y-4149D02*
G01X06551Y-4234D01*
G54D20*
G01X06757Y-4237D02*
G01X06780Y-4260D01*
G01X07100Y-4540D02*
G01X07096Y-4540D01*
G01X07096Y-4540D02*
G01X07091Y-4545D01*
G01X07675Y-4605D02*
G01X07545Y-4605D01*
G01X07500Y-4560D02*
G01X07500Y-4460D01*
G01X07545Y-4605D02*
G01X07500Y-4560D01*
G01X07600Y-4040D02*
G01X07480Y-4160D01*
G01X05360Y-3780D02*
G01X05520Y-3780D01*
G01X05120Y-3780D02*
G01X05240Y-3780D01*
G01X04980Y-3840D02*
G01X05120Y-3840D01*
G01X04780Y-3860D02*
G01X04700Y-3860D01*
G01X04700Y-3860D02*
G01X04680Y-3880D01*
G01X04780Y-3980D02*
G01X04680Y-3880D01*
G01X04121Y-3279D02*
G01X04160Y-3260D01*
G01X04121Y-3279D02*
G01X04056Y-3279D01*
G01X04340Y-3260D02*
G01X04240Y-3260D01*
G01X04540Y-3260D02*
G01X04440Y-3260D01*
G01X05450Y-3250D02*
G01X05429Y-3271D01*
G01X05850Y-3250D02*
G01X05651Y-3251D01*
G01X06050Y-3250D02*
G01X06200Y-3250D01*
G01X06203Y-3253D02*
G01X06200Y-3250D01*
G01X06551Y-3347D02*
G01X06545Y-3347D01*
G54D12*
G01X06554Y-3440D02*
G01X06551Y-3437D01*
G01X06551Y-3437D02*
G01X06551Y-3347D01*
G01X06551Y-3650D02*
G01X06551Y-3549D01*
G54D20*
G01X06545Y-3347D02*
G01X06480Y-3255D01*
G01X06345Y-3250D02*
G01X06203Y-3253D01*
G01X05651Y-3251D02*
G01X05650Y-3250D01*
G01X05403Y-3297D02*
G01X05338Y-3297D01*
G01X05429Y-3271D02*
G01X05403Y-3297D01*
G54D12*
G01X06768Y-3812D02*
G01X06768Y-3932D01*
G01X06791Y-3722D02*
G01X06791Y-3734D01*
G01X06551Y-3650D02*
G01X06787Y-3650D01*
G01X06787Y-3650D02*
G01X06792Y-3655D01*
G01X06791Y-3734D02*
G01X06767Y-3758D01*
G01X06768Y-3932D02*
G01X06767Y-3933D01*
G01X07551Y-3647D02*
G01X07500Y-3698D01*
G01X07603Y-3447D02*
G01X07553Y-3497D01*
G01X07603Y-3416D02*
G01X07603Y-3447D01*
G01X07551Y-3600D02*
G01X07551Y-3647D01*
G01X07606Y-3413D02*
G01X07603Y-3416D01*
G01X07606Y-3269D02*
G01X07606Y-3413D01*
G01X07603Y-3416D02*
G01X07606Y-3413D01*
G01X06677Y-4575D02*
G01X06175Y-4575D01*
G01X06675Y-4575D02*
G01X06677Y-4575D01*
G01X06022Y-4422D02*
G01X06020Y-4422D01*
G01X06175Y-4575D02*
G01X06022Y-4422D01*
G01X06552Y-4160D02*
G01X06552Y-4150D01*
G01X06552Y-4150D02*
G01X06551Y-4149D01*
G01X06551Y-3845D02*
G01X06554Y-3848D01*
G01X06551Y-3750D02*
G01X06551Y-3845D01*
G01X06551Y-4047D02*
G01X06551Y-3951D01*
G01X06551Y-3750D02*
G01X06551Y-3747D01*
G01X05885Y-4030D02*
G01X05885Y-4085D01*
G01X05885Y-4085D02*
G01X06210Y-4410D01*
G01X06210Y-4410D02*
G01X06660Y-4410D01*
G01X06660Y-4410D02*
G01X06680Y-4390D01*
G01X06680Y-4390D02*
G01X06680Y-4360D01*
G01X05850Y-3995D02*
G01X05855Y-4000D01*
G01X05350Y-3995D02*
G01X05850Y-3995D01*
G01X05325Y-4020D02*
G01X05350Y-3995D01*
G01X05855Y-4000D02*
G01X05885Y-4030D01*
G01X07280Y-3980D02*
G01X07195Y-3995D01*
G54D20*
G01X06985Y-3585D02*
G01X06985Y-3580D01*
G01X06985Y-3580D02*
G01X06985Y-3665D01*
G01X06985Y-3665D02*
G01X06985Y-3910D01*
G01X06985Y-3910D02*
G01X07005Y-3930D01*
G01X07005Y-3930D02*
G01X07280Y-3930D01*
G54D12*
G01X04587Y-4135D02*
G01X04486Y-4135D01*
G01X04588Y-4136D02*
G01X04587Y-4135D01*
G54D20*
G01X05155Y-3700D02*
G01X05940Y-3700D01*
G01X05940Y-3700D02*
G01X06010Y-3630D01*
G01X04930Y-3700D02*
G01X05155Y-3700D01*
G01X04895Y-3665D02*
G01X04930Y-3700D01*
G54D21*
G01X07020Y-4520D02*
G01X07341Y-4196D01*
G01X06420Y-4520D02*
G01X07020Y-4520D01*
G54D20*
G01X07330Y-3375D02*
G01X07330Y-3317D01*
G01X06719Y-3319D02*
G01X06719Y-3367D01*
G01X06740Y-3298D02*
G01X06719Y-3319D01*
G01X07311Y-3298D02*
G01X06740Y-3298D01*
G01X07330Y-3317D02*
G01X07311Y-3298D01*
G01X06720Y-3890D02*
G01X06720Y-4050D01*
G01X06720Y-4050D02*
G01X06970Y-4300D01*
G01X06970Y-4300D02*
G01X06968Y-4296D01*
G01X04605Y-3895D02*
G01X04455Y-3745D01*
G01X04050Y-3745D02*
G01X04045Y-3745D01*
G01X04455Y-3745D02*
G01X04050Y-3745D01*
G01X07077Y-4701D02*
G01X07290Y-4485D01*
G01X04605Y-3895D02*
G01X05030Y-4320D01*
G01X05414Y-4700D02*
G01X05414Y-4699D01*
G01X05030Y-4320D02*
G01X05414Y-4700D01*
G01X05414Y-4699D02*
G01X07077Y-4701D01*
G54D10*
G36*
G01X07788Y-4752D02*
G01X07751Y-4752D01*
G01X07751Y-4505D01*
G01X07750Y-4502D01*
G01X07750Y-3944D01*
G01X07750Y-3656D01*
G01X07640Y-3656D01*
G01X07640Y-3944D01*
G01X07750Y-3944D01*
G01X07750Y-4502D01*
G01X07747Y-4488D01*
G01X07738Y-4473D01*
G01X07723Y-4464D01*
G01X07706Y-4460D01*
G01X07644Y-4460D01*
G01X07627Y-4464D01*
G01X07612Y-4473D01*
G01X07603Y-4488D01*
G01X07599Y-4505D01*
G01X07603Y-4522D01*
G01X07612Y-4536D01*
G01X07627Y-4546D01*
G01X07644Y-4550D01*
G01X07706Y-4550D01*
G01X07723Y-4546D01*
G01X07738Y-4536D01*
G01X07747Y-4522D01*
G01X07751Y-4505D01*
G01X07751Y-4752D01*
G01X07552Y-4752D01*
G01X07552Y-4060D01*
G01X07547Y-4049D01*
G01X07538Y-4040D01*
G01X07527Y-4036D01*
G01X07515Y-4036D01*
G01X07504Y-4040D01*
G01X07495Y-4049D01*
G01X07490Y-4060D01*
G01X07490Y-4072D01*
G01X07495Y-4084D01*
G01X07504Y-4093D01*
G01X07515Y-4097D01*
G01X07527Y-4097D01*
G01X07538Y-4093D01*
G01X07547Y-4084D01*
G01X07552Y-4073D01*
G01X07552Y-4060D01*
G01X07552Y-4752D01*
G01X07456Y-4752D01*
G01X07456Y-3644D01*
G01X07451Y-3633D01*
G01X07442Y-3624D01*
G01X07438Y-3622D01*
G01X07441Y-3616D01*
G01X07441Y-3604D01*
G01X07436Y-3593D01*
G01X07427Y-3584D01*
G01X07416Y-3579D01*
G01X07404Y-3579D01*
G01X07393Y-3584D01*
G01X07384Y-3592D01*
G01X07379Y-3604D01*
G01X07379Y-3616D01*
G01X07382Y-3622D01*
G01X07373Y-3613D01*
G01X07373Y-3405D01*
G01X07373Y-3399D01*
G01X07373Y-3344D01*
G01X07370Y-3339D01*
G01X07366Y-3335D01*
G01X07360Y-3332D01*
G01X07355Y-3332D01*
G01X07355Y-3317D01*
G01X07353Y-3307D01*
G01X07353Y-3307D01*
G01X07351Y-3305D01*
G01X07348Y-3299D01*
G01X07348Y-3299D01*
G01X07329Y-3280D01*
G01X07321Y-3275D01*
G01X07311Y-3273D01*
G01X06740Y-3273D01*
G01X06730Y-3275D01*
G01X06722Y-3280D01*
G01X06701Y-3302D01*
G01X06696Y-3310D01*
G01X06694Y-3319D01*
G01X06694Y-3348D01*
G01X06692Y-3349D01*
G01X06688Y-3361D01*
G01X06688Y-3373D01*
G01X06692Y-3384D01*
G01X06701Y-3393D01*
G01X06712Y-3398D01*
G01X06725Y-3398D01*
G01X06736Y-3393D01*
G01X06745Y-3384D01*
G01X06749Y-3373D01*
G01X06749Y-3361D01*
G01X06745Y-3350D01*
G01X06743Y-3348D01*
G01X06743Y-3330D01*
G01X06750Y-3323D01*
G01X07301Y-3323D01*
G01X07305Y-3327D01*
G01X07305Y-3332D01*
G01X07300Y-3332D01*
G01X07294Y-3335D01*
G01X07290Y-3339D01*
G01X07288Y-3344D01*
G01X07288Y-3350D01*
G01X07288Y-3405D01*
G01X07290Y-3411D01*
G01X07294Y-3415D01*
G01X07300Y-3417D01*
G01X07305Y-3417D01*
G01X07360Y-3417D01*
G01X07366Y-3415D01*
G01X07370Y-3411D01*
G01X07373Y-3405D01*
G01X07373Y-3613D01*
G01X07330Y-3570D01*
G01X07323Y-3566D01*
G01X07315Y-3564D01*
G01X07273Y-3564D01*
G01X07273Y-3366D01*
G01X07266Y-3351D01*
G01X07254Y-3339D01*
G01X07238Y-3332D01*
G01X07222Y-3332D01*
G01X07206Y-3339D01*
G01X07194Y-3351D01*
G01X07188Y-3366D01*
G01X07187Y-3383D01*
G01X07194Y-3399D01*
G01X07206Y-3411D01*
G01X07222Y-3417D01*
G01X07238Y-3417D01*
G01X07254Y-3411D01*
G01X07266Y-3399D01*
G01X07272Y-3383D01*
G01X07273Y-3366D01*
G01X07273Y-3564D01*
G01X07198Y-3564D01*
G01X07192Y-3559D01*
G01X07181Y-3554D01*
G01X07173Y-3554D01*
G01X07173Y-3366D01*
G01X07166Y-3351D01*
G01X07154Y-3339D01*
G01X07138Y-3332D01*
G01X07122Y-3332D01*
G01X07106Y-3339D01*
G01X07094Y-3351D01*
G01X07088Y-3366D01*
G01X07087Y-3383D01*
G01X07094Y-3399D01*
G01X07106Y-3411D01*
G01X07122Y-3417D01*
G01X07138Y-3417D01*
G01X07154Y-3411D01*
G01X07166Y-3399D01*
G01X07172Y-3383D01*
G01X07173Y-3366D01*
G01X07173Y-3554D01*
G01X07169Y-3554D01*
G01X07158Y-3559D01*
G01X07149Y-3567D01*
G01X07144Y-3579D01*
G01X07144Y-3591D01*
G01X07149Y-3602D01*
G01X07158Y-3611D01*
G01X07169Y-3616D01*
G01X07181Y-3616D01*
G01X07189Y-3612D01*
G01X07184Y-3617D01*
G01X07179Y-3629D01*
G01X07179Y-3641D01*
G01X07184Y-3652D01*
G01X07193Y-3661D01*
G01X07204Y-3666D01*
G01X07216Y-3666D01*
G01X07227Y-3661D01*
G01X07233Y-3656D01*
G01X07301Y-3656D01*
G01X07374Y-3729D01*
G01X07374Y-4026D01*
G01X07365Y-4035D01*
G01X07365Y-3885D01*
G01X07363Y-3877D01*
G01X07359Y-3871D01*
G01X07279Y-3791D01*
G01X07273Y-3786D01*
G01X07265Y-3785D01*
G01X07233Y-3785D01*
G01X07227Y-3779D01*
G01X07216Y-3774D01*
G01X07204Y-3774D01*
G01X07193Y-3779D01*
G01X07184Y-3787D01*
G01X07179Y-3799D01*
G01X07179Y-3811D01*
G01X07184Y-3822D01*
G01X07193Y-3831D01*
G01X07204Y-3836D01*
G01X07216Y-3836D01*
G01X07227Y-3831D01*
G01X07233Y-3825D01*
G01X07257Y-3825D01*
G01X07325Y-3893D01*
G01X07325Y-4037D01*
G01X07311Y-4051D01*
G01X07311Y-3974D01*
G01X07306Y-3963D01*
G01X07298Y-3955D01*
G01X07306Y-3947D01*
G01X07311Y-3936D01*
G01X07311Y-3924D01*
G01X07306Y-3913D01*
G01X07297Y-3904D01*
G01X07286Y-3899D01*
G01X07274Y-3899D01*
G01X07263Y-3904D01*
G01X07261Y-3905D01*
G01X07073Y-3905D01*
G01X07073Y-3366D01*
G01X07066Y-3351D01*
G01X07054Y-3339D01*
G01X07038Y-3332D01*
G01X07022Y-3332D01*
G01X07006Y-3339D01*
G01X06994Y-3351D01*
G01X06988Y-3366D01*
G01X06987Y-3383D01*
G01X06994Y-3399D01*
G01X07006Y-3411D01*
G01X07022Y-3417D01*
G01X07038Y-3417D01*
G01X07054Y-3411D01*
G01X07066Y-3399D01*
G01X07072Y-3383D01*
G01X07073Y-3366D01*
G01X07073Y-3905D01*
G01X07015Y-3905D01*
G01X07010Y-3900D01*
G01X07010Y-3665D01*
G01X07010Y-3604D01*
G01X07011Y-3602D01*
G01X07016Y-3591D01*
G01X07016Y-3579D01*
G01X07011Y-3568D01*
G01X07002Y-3559D01*
G01X06991Y-3554D01*
G01X06979Y-3554D01*
G01X06973Y-3557D01*
G01X06973Y-3366D01*
G01X06966Y-3351D01*
G01X06954Y-3339D01*
G01X06938Y-3332D01*
G01X06922Y-3332D01*
G01X06906Y-3339D01*
G01X06894Y-3351D01*
G01X06888Y-3366D01*
G01X06887Y-3383D01*
G01X06894Y-3399D01*
G01X06906Y-3411D01*
G01X06922Y-3417D01*
G01X06938Y-3417D01*
G01X06954Y-3411D01*
G01X06966Y-3399D01*
G01X06972Y-3383D01*
G01X06973Y-3366D01*
G01X06973Y-3557D01*
G01X06968Y-3559D01*
G01X06959Y-3567D01*
G01X06954Y-3579D01*
G01X06954Y-3591D01*
G01X06959Y-3602D01*
G01X06960Y-3604D01*
G01X06960Y-3665D01*
G01X06960Y-3910D01*
G01X06962Y-3919D01*
G01X06967Y-3927D01*
G01X06987Y-3947D01*
G01X06987Y-3947D01*
G01X06993Y-3951D01*
G01X06995Y-3953D01*
G01X06995Y-3953D01*
G01X07005Y-3955D01*
G01X07261Y-3955D01*
G01X07262Y-3955D01*
G01X07254Y-3962D01*
G01X07253Y-3964D01*
G01X07215Y-3971D01*
G01X07212Y-3969D01*
G01X07201Y-3964D01*
G01X07189Y-3964D01*
G01X07178Y-3969D01*
G01X07169Y-3977D01*
G01X07164Y-3989D01*
G01X07164Y-4001D01*
G01X07169Y-4012D01*
G01X07178Y-4021D01*
G01X07189Y-4026D01*
G01X07201Y-4026D01*
G01X07212Y-4021D01*
G01X07221Y-4012D01*
G01X07222Y-4011D01*
G01X07260Y-4004D01*
G01X07263Y-4006D01*
G01X07274Y-4011D01*
G01X07286Y-4011D01*
G01X07297Y-4006D01*
G01X07306Y-3997D01*
G01X07311Y-3986D01*
G01X07311Y-3974D01*
G01X07311Y-4051D01*
G01X06999Y-4363D01*
G01X06999Y-4290D01*
G01X06994Y-4279D01*
G01X06985Y-4270D01*
G01X06974Y-4266D01*
G01X06971Y-4266D01*
G01X06971Y-4266D01*
G01X06971Y-4054D01*
G01X06971Y-3944D01*
G01X06966Y-3933D01*
G01X06957Y-3924D01*
G01X06946Y-3919D01*
G01X06934Y-3919D01*
G01X06923Y-3924D01*
G01X06914Y-3932D01*
G01X06909Y-3944D01*
G01X06909Y-3956D01*
G01X06914Y-3967D01*
G01X06923Y-3976D01*
G01X06934Y-3981D01*
G01X06946Y-3981D01*
G01X06957Y-3976D01*
G01X06966Y-3967D01*
G01X06971Y-3956D01*
G01X06971Y-3944D01*
G01X06971Y-4054D01*
G01X06966Y-4043D01*
G01X06957Y-4034D01*
G01X06946Y-4029D01*
G01X06934Y-4029D01*
G01X06923Y-4034D01*
G01X06914Y-4043D01*
G01X06909Y-4054D01*
G01X06909Y-4066D01*
G01X06914Y-4077D01*
G01X06923Y-4086D01*
G01X06934Y-4091D01*
G01X06946Y-4091D01*
G01X06957Y-4086D01*
G01X06966Y-4077D01*
G01X06971Y-4066D01*
G01X06971Y-4054D01*
G01X06971Y-4266D01*
G01X06745Y-4040D01*
G01X06745Y-3909D01*
G01X06746Y-3907D01*
G01X06751Y-3896D01*
G01X06751Y-3884D01*
G01X06746Y-3873D01*
G01X06737Y-3864D01*
G01X06726Y-3859D01*
G01X06714Y-3859D01*
G01X06703Y-3864D01*
G01X06694Y-3872D01*
G01X06689Y-3884D01*
G01X06689Y-3896D01*
G01X06694Y-3907D01*
G01X06695Y-3909D01*
G01X06695Y-4050D01*
G01X06697Y-4059D01*
G01X06702Y-4067D01*
G01X06937Y-4302D01*
G01X06937Y-4302D01*
G01X06942Y-4314D01*
G01X06951Y-4322D01*
G01X06962Y-4327D01*
G01X06974Y-4327D01*
G01X06985Y-4322D01*
G01X06994Y-4314D01*
G01X06999Y-4303D01*
G01X06999Y-4290D01*
G01X06999Y-4363D01*
G01X06977Y-4385D01*
G01X06853Y-4385D01*
G01X06764Y-4296D01*
G01X06758Y-4291D01*
G01X06750Y-4290D01*
G01X06645Y-4290D01*
G01X06637Y-4291D01*
G01X06635Y-4293D01*
G01X06631Y-4296D01*
G01X06577Y-4350D01*
G01X06233Y-4350D01*
G01X06041Y-4157D01*
G01X06041Y-3624D01*
G01X06036Y-3613D01*
G01X06027Y-3604D01*
G01X06016Y-3599D01*
G01X06004Y-3599D01*
G01X05993Y-3604D01*
G01X05984Y-3612D01*
G01X05979Y-3624D01*
G01X05979Y-3626D01*
G01X05930Y-3675D01*
G01X05824Y-3675D01*
G01X05824Y-3371D01*
G01X05816Y-3351D01*
G01X05801Y-3335D01*
G01X05781Y-3327D01*
G01X05759Y-3327D01*
G01X05739Y-3335D01*
G01X05724Y-3351D01*
G01X05716Y-3371D01*
G01X05716Y-3392D01*
G01X05724Y-3412D01*
G01X05739Y-3428D01*
G01X05759Y-3436D01*
G01X05781Y-3436D01*
G01X05801Y-3428D01*
G01X05816Y-3412D01*
G01X05824Y-3392D01*
G01X05824Y-3371D01*
G01X05824Y-3675D01*
G01X05174Y-3675D01*
G01X05172Y-3674D01*
G01X05161Y-3669D01*
G01X05149Y-3669D01*
G01X05138Y-3674D01*
G01X05136Y-3675D01*
G01X04940Y-3675D01*
G01X04926Y-3661D01*
G01X04926Y-3659D01*
G01X04921Y-3648D01*
G01X04912Y-3639D01*
G01X04901Y-3634D01*
G01X04889Y-3634D01*
G01X04878Y-3639D01*
G01X04869Y-3647D01*
G01X04864Y-3659D01*
G01X04864Y-3671D01*
G01X04869Y-3682D01*
G01X04878Y-3691D01*
G01X04889Y-3696D01*
G01X04891Y-3696D01*
G01X04912Y-3717D01*
G01X04920Y-3723D01*
G01X04930Y-3725D01*
G01X05136Y-3725D01*
G01X05138Y-3726D01*
G01X05149Y-3731D01*
G01X05161Y-3731D01*
G01X05172Y-3726D01*
G01X05174Y-3725D01*
G01X05940Y-3725D01*
G01X05940Y-3725D01*
G01X05950Y-3723D01*
G01X05958Y-3717D01*
G01X06014Y-3661D01*
G01X06016Y-3661D01*
G01X06027Y-3656D01*
G01X06036Y-3647D01*
G01X06041Y-3636D01*
G01X06041Y-3624D01*
G01X06041Y-4157D01*
G01X05935Y-4052D01*
G01X05935Y-3965D01*
G01X05933Y-3957D01*
G01X05929Y-3951D01*
G01X05859Y-3881D01*
G01X05853Y-3876D01*
G01X05845Y-3875D01*
G01X05660Y-3875D01*
G01X05654Y-3876D01*
G01X05652Y-3876D01*
G01X05648Y-3879D01*
G01X05648Y-3879D01*
G01X05639Y-3879D01*
G01X05628Y-3884D01*
G01X05619Y-3892D01*
G01X05614Y-3904D01*
G01X05614Y-3916D01*
G01X05619Y-3927D01*
G01X05628Y-3936D01*
G01X05639Y-3941D01*
G01X05651Y-3941D01*
G01X05662Y-3936D01*
G01X05671Y-3927D01*
G01X05676Y-3916D01*
G01X05676Y-3915D01*
G01X05780Y-3915D01*
G01X05774Y-3921D01*
G01X05768Y-3936D01*
G01X05767Y-3953D01*
G01X05774Y-3969D01*
G01X05780Y-3975D01*
G01X05540Y-3975D01*
G01X05546Y-3969D01*
G01X05552Y-3953D01*
G01X05553Y-3936D01*
G01X05553Y-3936D01*
G01X05553Y-3875D01*
G01X05553Y-3869D01*
G01X05553Y-3814D01*
G01X05550Y-3809D01*
G01X05546Y-3805D01*
G01X05540Y-3802D01*
G01X05535Y-3802D01*
G01X05480Y-3802D01*
G01X05474Y-3805D01*
G01X05470Y-3809D01*
G01X05468Y-3814D01*
G01X05468Y-3820D01*
G01X05468Y-3875D01*
G01X05470Y-3881D01*
G01X05474Y-3885D01*
G01X05480Y-3887D01*
G01X05485Y-3887D01*
G01X05540Y-3887D01*
G01X05546Y-3885D01*
G01X05550Y-3881D01*
G01X05553Y-3875D01*
G01X05553Y-3936D01*
G01X05546Y-3921D01*
G01X05534Y-3909D01*
G01X05518Y-3902D01*
G01X05502Y-3902D01*
G01X05486Y-3909D01*
G01X05474Y-3921D01*
G01X05468Y-3936D01*
G01X05467Y-3953D01*
G01X05474Y-3969D01*
G01X05480Y-3975D01*
G01X05350Y-3975D01*
G01X05342Y-3976D01*
G01X05336Y-3981D01*
G01X05327Y-3989D01*
G01X05319Y-3989D01*
G01X05308Y-3994D01*
G01X05299Y-4003D01*
G01X05294Y-4014D01*
G01X05294Y-4026D01*
G01X05299Y-4037D01*
G01X05308Y-4046D01*
G01X05319Y-4051D01*
G01X05331Y-4051D01*
G01X05342Y-4046D01*
G01X05351Y-4037D01*
G01X05356Y-4026D01*
G01X05356Y-4017D01*
G01X05358Y-4015D01*
G01X05480Y-4015D01*
G01X05474Y-4021D01*
G01X05468Y-4036D01*
G01X05467Y-4053D01*
G01X05474Y-4069D01*
G01X05486Y-4081D01*
G01X05502Y-4087D01*
G01X05518Y-4088D01*
G01X05534Y-4081D01*
G01X05546Y-4069D01*
G01X05552Y-4053D01*
G01X05553Y-4036D01*
G01X05546Y-4021D01*
G01X05540Y-4015D01*
G01X05780Y-4015D01*
G01X05774Y-4021D01*
G01X05768Y-4036D01*
G01X05767Y-4053D01*
G01X05774Y-4069D01*
G01X05779Y-4074D01*
G01X05760Y-4074D01*
G01X05752Y-4076D01*
G01X05745Y-4080D01*
G01X05701Y-4124D01*
G01X05547Y-4124D01*
G01X05546Y-4121D01*
G01X05534Y-4109D01*
G01X05518Y-4102D01*
G01X05502Y-4102D01*
G01X05486Y-4109D01*
G01X05474Y-4121D01*
G01X05468Y-4136D01*
G01X05467Y-4153D01*
G01X05474Y-4169D01*
G01X05486Y-4181D01*
G01X05502Y-4187D01*
G01X05518Y-4187D01*
G01X05534Y-4181D01*
G01X05546Y-4169D01*
G01X05547Y-4166D01*
G01X05710Y-4166D01*
G01X05718Y-4164D01*
G01X05725Y-4160D01*
G01X05769Y-4116D01*
G01X05779Y-4116D01*
G01X05774Y-4121D01*
G01X05768Y-4136D01*
G01X05767Y-4153D01*
G01X05774Y-4169D01*
G01X05779Y-4174D01*
G01X05760Y-4174D01*
G01X05752Y-4176D01*
G01X05745Y-4180D01*
G01X05701Y-4224D01*
G01X05547Y-4224D01*
G01X05546Y-4221D01*
G01X05534Y-4209D01*
G01X05518Y-4202D01*
G01X05502Y-4202D01*
G01X05486Y-4209D01*
G01X05474Y-4221D01*
G01X05468Y-4236D01*
G01X05467Y-4253D01*
G01X05474Y-4269D01*
G01X05486Y-4281D01*
G01X05502Y-4287D01*
G01X05518Y-4287D01*
G01X05534Y-4281D01*
G01X05546Y-4269D01*
G01X05547Y-4266D01*
G01X05710Y-4266D01*
G01X05718Y-4264D01*
G01X05725Y-4260D01*
G01X05769Y-4216D01*
G01X05779Y-4216D01*
G01X05774Y-4221D01*
G01X05768Y-4236D01*
G01X05767Y-4253D01*
G01X05774Y-4269D01*
G01X05786Y-4281D01*
G01X05802Y-4287D01*
G01X05812Y-4287D01*
G01X05834Y-4309D01*
G01X05818Y-4302D01*
G01X05802Y-4302D01*
G01X05786Y-4309D01*
G01X05774Y-4321D01*
G01X05768Y-4336D01*
G01X05767Y-4353D01*
G01X05774Y-4369D01*
G01X05786Y-4381D01*
G01X05802Y-4387D01*
G01X05818Y-4387D01*
G01X05834Y-4381D01*
G01X05846Y-4369D01*
G01X05852Y-4353D01*
G01X05853Y-4336D01*
G01X05846Y-4321D01*
G01X05860Y-4335D01*
G01X05860Y-4350D01*
G01X05860Y-4355D01*
G01X05862Y-4364D01*
G01X05867Y-4372D01*
G01X05875Y-4378D01*
G01X05878Y-4378D01*
G01X06127Y-4627D01*
G01X06127Y-4629D01*
G01X06132Y-4640D01*
G01X06141Y-4649D01*
G01X06152Y-4654D01*
G01X06164Y-4654D01*
G01X06175Y-4649D01*
G01X06184Y-4640D01*
G01X06189Y-4629D01*
G01X06189Y-4617D01*
G01X06184Y-4606D01*
G01X06175Y-4597D01*
G01X06164Y-4592D01*
G01X06162Y-4592D01*
G01X05910Y-4340D01*
G01X05910Y-4325D01*
G01X05908Y-4315D01*
G01X05903Y-4307D01*
G01X05851Y-4256D01*
G01X05852Y-4253D01*
G01X05853Y-4236D01*
G01X05846Y-4221D01*
G01X05841Y-4216D01*
G01X05846Y-4216D01*
G01X06125Y-4495D01*
G01X06132Y-4499D01*
G01X06140Y-4501D01*
G01X06396Y-4501D01*
G01X06394Y-4502D01*
G01X06389Y-4514D01*
G01X06389Y-4526D01*
G01X06394Y-4537D01*
G01X06403Y-4546D01*
G01X06414Y-4551D01*
G01X06426Y-4551D01*
G01X06437Y-4546D01*
G01X06443Y-4541D01*
G01X07020Y-4541D01*
G01X07020Y-4541D01*
G01X07020Y-4541D01*
G01X07024Y-4540D01*
G01X07028Y-4539D01*
G01X07028Y-4539D01*
G01X07028Y-4539D01*
G01X07031Y-4537D01*
G01X07035Y-4535D01*
G01X07035Y-4535D01*
G01X07035Y-4535D01*
G01X07339Y-4227D01*
G01X07347Y-4227D01*
G01X07358Y-4222D01*
G01X07367Y-4213D01*
G01X07371Y-4202D01*
G01X07371Y-4201D01*
G01X07381Y-4201D01*
G01X07392Y-4196D01*
G01X07401Y-4187D01*
G01X07406Y-4176D01*
G01X07406Y-4164D01*
G01X07401Y-4153D01*
G01X07392Y-4144D01*
G01X07381Y-4139D01*
G01X07370Y-4139D01*
G01X07445Y-4065D01*
G01X07445Y-4065D01*
G01X07445Y-4065D01*
G01X07449Y-4058D01*
G01X07449Y-4058D01*
G01X07450Y-4057D01*
G01X07451Y-4050D01*
G01X07451Y-4050D01*
G01X07451Y-4050D01*
G01X07451Y-3700D01*
G01X07451Y-3700D01*
G01X07451Y-3700D01*
G01X07449Y-3692D01*
G01X07445Y-3685D01*
G01X07438Y-3678D01*
G01X07442Y-3676D01*
G01X07451Y-3667D01*
G01X07456Y-3656D01*
G01X07456Y-3644D01*
G01X07456Y-4752D01*
G01X07321Y-4752D01*
G01X07321Y-4479D01*
G01X07316Y-4468D01*
G01X07307Y-4459D01*
G01X07296Y-4454D01*
G01X07284Y-4454D01*
G01X07273Y-4459D01*
G01X07264Y-4467D01*
G01X07259Y-4479D01*
G01X07259Y-4481D01*
G01X07067Y-4676D01*
G01X05853Y-4675D01*
G01X05853Y-4536D01*
G01X05853Y-4436D01*
G01X05846Y-4421D01*
G01X05834Y-4409D01*
G01X05818Y-4402D01*
G01X05802Y-4402D01*
G01X05786Y-4409D01*
G01X05774Y-4421D01*
G01X05768Y-4436D01*
G01X05767Y-4453D01*
G01X05774Y-4469D01*
G01X05786Y-4481D01*
G01X05802Y-4487D01*
G01X05818Y-4487D01*
G01X05834Y-4481D01*
G01X05846Y-4469D01*
G01X05852Y-4453D01*
G01X05853Y-4436D01*
G01X05853Y-4536D01*
G01X05846Y-4521D01*
G01X05834Y-4509D01*
G01X05818Y-4502D01*
G01X05802Y-4502D01*
G01X05786Y-4509D01*
G01X05774Y-4521D01*
G01X05768Y-4536D01*
G01X05767Y-4553D01*
G01X05774Y-4569D01*
G01X05786Y-4581D01*
G01X05802Y-4587D01*
G01X05818Y-4587D01*
G01X05834Y-4581D01*
G01X05846Y-4569D01*
G01X05852Y-4553D01*
G01X05853Y-4536D01*
G01X05853Y-4675D01*
G01X05553Y-4674D01*
G01X05553Y-4536D01*
G01X05553Y-4436D01*
G01X05553Y-4336D01*
G01X05546Y-4321D01*
G01X05534Y-4309D01*
G01X05518Y-4302D01*
G01X05502Y-4302D01*
G01X05486Y-4309D01*
G01X05474Y-4321D01*
G01X05468Y-4336D01*
G01X05467Y-4353D01*
G01X05474Y-4369D01*
G01X05486Y-4381D01*
G01X05502Y-4387D01*
G01X05518Y-4387D01*
G01X05534Y-4381D01*
G01X05546Y-4369D01*
G01X05552Y-4353D01*
G01X05553Y-4336D01*
G01X05553Y-4436D01*
G01X05546Y-4421D01*
G01X05534Y-4409D01*
G01X05518Y-4402D01*
G01X05502Y-4402D01*
G01X05486Y-4409D01*
G01X05474Y-4421D01*
G01X05468Y-4436D01*
G01X05467Y-4453D01*
G01X05474Y-4469D01*
G01X05486Y-4481D01*
G01X05502Y-4487D01*
G01X05518Y-4487D01*
G01X05534Y-4481D01*
G01X05546Y-4469D01*
G01X05552Y-4453D01*
G01X05553Y-4436D01*
G01X05553Y-4536D01*
G01X05546Y-4521D01*
G01X05534Y-4509D01*
G01X05518Y-4502D01*
G01X05502Y-4502D01*
G01X05486Y-4509D01*
G01X05474Y-4521D01*
G01X05468Y-4536D01*
G01X05467Y-4553D01*
G01X05474Y-4569D01*
G01X05486Y-4581D01*
G01X05502Y-4587D01*
G01X05518Y-4587D01*
G01X05534Y-4581D01*
G01X05546Y-4569D01*
G01X05552Y-4553D01*
G01X05553Y-4536D01*
G01X05553Y-4674D01*
G01X05455Y-4674D01*
G01X05455Y-4310D01*
G01X05455Y-4110D01*
G01X05447Y-4092D01*
G01X05433Y-4078D01*
G01X05415Y-4070D01*
G01X05395Y-4070D01*
G01X05377Y-4077D01*
G01X05363Y-4092D01*
G01X05355Y-4110D01*
G01X05355Y-4130D01*
G01X05363Y-4148D01*
G01X05377Y-4162D01*
G01X05395Y-4170D01*
G01X05415Y-4170D01*
G01X05433Y-4162D01*
G01X05447Y-4148D01*
G01X05455Y-4130D01*
G01X05455Y-4110D01*
G01X05455Y-4310D01*
G01X05447Y-4292D01*
G01X05433Y-4278D01*
G01X05415Y-4270D01*
G01X05395Y-4270D01*
G01X05377Y-4277D01*
G01X05363Y-4292D01*
G01X05355Y-4310D01*
G01X05355Y-4330D01*
G01X05363Y-4348D01*
G01X05377Y-4362D01*
G01X05395Y-4370D01*
G01X05415Y-4370D01*
G01X05433Y-4362D01*
G01X05447Y-4348D01*
G01X05455Y-4330D01*
G01X05455Y-4310D01*
G01X05455Y-4674D01*
G01X05423Y-4674D01*
G01X05048Y-4302D01*
G01X04978Y-4232D01*
G01X04978Y-3965D01*
G01X04978Y-3959D01*
G01X04978Y-3904D01*
G01X04975Y-3899D01*
G01X04971Y-3895D01*
G01X04965Y-3892D01*
G01X04960Y-3892D01*
G01X04905Y-3892D01*
G01X04899Y-3895D01*
G01X04895Y-3899D01*
G01X04893Y-3904D01*
G01X04893Y-3910D01*
G01X04893Y-3965D01*
G01X04895Y-3971D01*
G01X04899Y-3975D01*
G01X04905Y-3977D01*
G01X04910Y-3977D01*
G01X04965Y-3977D01*
G01X04971Y-3975D01*
G01X04975Y-3971D01*
G01X04978Y-3965D01*
G01X04978Y-4232D01*
G01X04669Y-3924D01*
G01X04669Y-3386D01*
G01X04661Y-3366D01*
G01X04646Y-3350D01*
G01X04626Y-3342D01*
G01X04604Y-3342D01*
G01X04584Y-3350D01*
G01X04569Y-3366D01*
G01X04561Y-3386D01*
G01X04561Y-3407D01*
G01X04569Y-3427D01*
G01X04584Y-3443D01*
G01X04604Y-3451D01*
G01X04626Y-3451D01*
G01X04646Y-3443D01*
G01X04661Y-3427D01*
G01X04669Y-3407D01*
G01X04669Y-3386D01*
G01X04669Y-3924D01*
G01X04636Y-3891D01*
G01X04636Y-3889D01*
G01X04631Y-3878D01*
G01X04622Y-3869D01*
G01X04611Y-3864D01*
G01X04609Y-3864D01*
G01X04580Y-3835D01*
G01X04580Y-3648D01*
G01X04580Y-3640D01*
G01X04578Y-3632D01*
G01X04574Y-3626D01*
G01X04568Y-3621D01*
G01X04560Y-3620D01*
G01X04552Y-3621D01*
G01X04546Y-3626D01*
G01X04542Y-3632D01*
G01X04540Y-3640D01*
G01X04540Y-3642D01*
G01X04540Y-3642D01*
G01X04538Y-3650D01*
G01X04540Y-3658D01*
G01X04544Y-3664D01*
G01X04551Y-3668D01*
G01X04558Y-3670D01*
G01X04566Y-3668D01*
G01X04573Y-3664D01*
G01X04574Y-3662D01*
G01X04574Y-3662D01*
G01X04578Y-3656D01*
G01X04580Y-3648D01*
G01X04580Y-3835D01*
G01X04473Y-3727D01*
G01X04465Y-3722D01*
G01X04455Y-3720D01*
G01X04064Y-3720D01*
G01X04062Y-3719D01*
G01X04051Y-3714D01*
G01X04039Y-3714D01*
G01X04028Y-3719D01*
G01X04019Y-3727D01*
G01X04014Y-3739D01*
G01X04014Y-3751D01*
G01X04019Y-3762D01*
G01X04028Y-3771D01*
G01X04039Y-3776D01*
G01X04051Y-3776D01*
G01X04062Y-3771D01*
G01X04064Y-3770D01*
G01X04445Y-3770D01*
G01X04574Y-3899D01*
G01X04574Y-3901D01*
G01X04579Y-3912D01*
G01X04588Y-3921D01*
G01X04599Y-3926D01*
G01X04601Y-3926D01*
G01X05012Y-4337D01*
G01X05012Y-4338D01*
G01X05013Y-4338D01*
G01X05397Y-4718D01*
G01X05401Y-4720D01*
G01X05404Y-4723D01*
G01X05405Y-4723D01*
G01X05405Y-4723D01*
G01X05409Y-4724D01*
G01X05414Y-4725D01*
G01X05414Y-4725D01*
G01X05414Y-4725D01*
G01X05419Y-4724D01*
G01X05419Y-4724D01*
G01X07077Y-4726D01*
G01X07077Y-4726D01*
G01X07077Y-4726D01*
G01X07082Y-4725D01*
G01X07086Y-4724D01*
G01X07087Y-4724D01*
G01X07087Y-4724D01*
G01X07091Y-4721D01*
G01X07095Y-4718D01*
G01X07095Y-4718D01*
G01X07095Y-4718D01*
G01X07295Y-4516D01*
G01X07296Y-4516D01*
G01X07307Y-4511D01*
G01X07316Y-4502D01*
G01X07321Y-4491D01*
G01X07321Y-4479D01*
G01X07321Y-4752D01*
G01X04766Y-4752D01*
G01X04766Y-4324D01*
G01X04761Y-4313D01*
G01X04752Y-4304D01*
G01X04741Y-4299D01*
G01X04729Y-4299D01*
G01X04718Y-4304D01*
G01X04716Y-4305D01*
G01X04619Y-4305D01*
G01X04619Y-4130D01*
G01X04614Y-4119D01*
G01X04605Y-4110D01*
G01X04594Y-4105D01*
G01X04582Y-4105D01*
G01X04571Y-4110D01*
G01X04566Y-4115D01*
G01X04509Y-4115D01*
G01X04503Y-4109D01*
G01X04492Y-4104D01*
G01X04480Y-4104D01*
G01X04469Y-4109D01*
G01X04460Y-4117D01*
G01X04455Y-4129D01*
G01X04455Y-4141D01*
G01X04460Y-4152D01*
G01X04469Y-4161D01*
G01X04480Y-4166D01*
G01X04492Y-4166D01*
G01X04503Y-4161D01*
G01X04509Y-4155D01*
G01X04564Y-4155D01*
G01X04571Y-4162D01*
G01X04582Y-4167D01*
G01X04594Y-4167D01*
G01X04605Y-4162D01*
G01X04614Y-4153D01*
G01X04619Y-4142D01*
G01X04619Y-4130D01*
G01X04619Y-4305D01*
G01X04498Y-4305D01*
G01X04488Y-4301D01*
G01X04476Y-4301D01*
G01X04465Y-4306D01*
G01X04456Y-4314D01*
G01X04451Y-4326D01*
G01X04451Y-4338D01*
G01X04456Y-4349D01*
G01X04465Y-4358D01*
G01X04476Y-4363D01*
G01X04488Y-4363D01*
G01X04499Y-4358D01*
G01X04503Y-4355D01*
G01X04716Y-4355D01*
G01X04718Y-4356D01*
G01X04729Y-4361D01*
G01X04741Y-4361D01*
G01X04752Y-4356D01*
G01X04761Y-4347D01*
G01X04766Y-4336D01*
G01X04766Y-4324D01*
G01X04766Y-4752D01*
G01X04004Y-4752D01*
G01X04004Y-4594D01*
G01X04004Y-3374D01*
G01X03996Y-3354D01*
G01X03981Y-3339D01*
G01X03961Y-3331D01*
G01X03939Y-3331D01*
G01X03919Y-3339D01*
G01X03904Y-3354D01*
G01X03896Y-3374D01*
G01X03896Y-3396D01*
G01X03904Y-3416D01*
G01X03919Y-3431D01*
G01X03939Y-3439D01*
G01X03961Y-3439D01*
G01X03981Y-3431D01*
G01X03996Y-3416D01*
G01X04004Y-3396D01*
G01X04004Y-3374D01*
G01X04004Y-4594D01*
G01X03996Y-4574D01*
G01X03981Y-4559D01*
G01X03961Y-4551D01*
G01X03939Y-4551D01*
G01X03919Y-4559D01*
G01X03904Y-4574D01*
G01X03896Y-4594D01*
G01X03896Y-4616D01*
G01X03904Y-4636D01*
G01X03919Y-4651D01*
G01X03939Y-4659D01*
G01X03961Y-4659D01*
G01X03981Y-4651D01*
G01X03996Y-4636D01*
G01X04004Y-4616D01*
G01X04004Y-4594D01*
G01X04004Y-4752D01*
G01X03808Y-4752D01*
G01X03807Y-4740D01*
G01X03807Y-3237D01*
G01X07788Y-3237D01*
G01X07788Y-3375D01*
G01X07788Y-4752D01*
G01X07788Y-4752D01*
G37*
G54D12*
G01X07788Y-4752D02*
G01X07751Y-4752D01*
G01X07751Y-4752D02*
G01X07751Y-4505D01*
G01X07751Y-4505D02*
G01X07750Y-4502D01*
G01X07750Y-4502D02*
G01X07750Y-3944D01*
G01X07750Y-3944D02*
G01X07750Y-3656D01*
G01X07750Y-3656D02*
G01X07640Y-3656D01*
G01X07640Y-3656D02*
G01X07640Y-3944D01*
G01X07640Y-3944D02*
G01X07750Y-3944D01*
G01X07750Y-3944D02*
G01X07750Y-4502D01*
G01X07750Y-4502D02*
G01X07747Y-4488D01*
G01X07747Y-4488D02*
G01X07738Y-4473D01*
G01X07738Y-4473D02*
G01X07723Y-4464D01*
G01X07723Y-4464D02*
G01X07706Y-4460D01*
G01X07706Y-4460D02*
G01X07644Y-4460D01*
G01X07644Y-4460D02*
G01X07627Y-4464D01*
G01X07627Y-4464D02*
G01X07612Y-4473D01*
G01X07612Y-4473D02*
G01X07603Y-4488D01*
G01X07603Y-4488D02*
G01X07599Y-4505D01*
G01X07599Y-4505D02*
G01X07603Y-4522D01*
G01X07603Y-4522D02*
G01X07612Y-4536D01*
G01X07612Y-4536D02*
G01X07627Y-4546D01*
G01X07627Y-4546D02*
G01X07644Y-4550D01*
G01X07644Y-4550D02*
G01X07706Y-4550D01*
G01X07706Y-4550D02*
G01X07723Y-4546D01*
G01X07723Y-4546D02*
G01X07738Y-4536D01*
G01X07738Y-4536D02*
G01X07747Y-4522D01*
G01X07747Y-4522D02*
G01X07751Y-4505D01*
G01X07751Y-4505D02*
G01X07751Y-4752D01*
G01X07751Y-4752D02*
G01X07552Y-4752D01*
G01X07552Y-4752D02*
G01X07552Y-4060D01*
G01X07552Y-4060D02*
G01X07547Y-4049D01*
G01X07547Y-4049D02*
G01X07538Y-4040D01*
G01X07538Y-4040D02*
G01X07527Y-4036D01*
G01X07527Y-4036D02*
G01X07515Y-4036D01*
G01X07515Y-4036D02*
G01X07504Y-4040D01*
G01X07504Y-4040D02*
G01X07495Y-4049D01*
G01X07495Y-4049D02*
G01X07490Y-4060D01*
G01X07490Y-4060D02*
G01X07490Y-4072D01*
G01X07490Y-4072D02*
G01X07495Y-4084D01*
G01X07495Y-4084D02*
G01X07504Y-4093D01*
G01X07504Y-4093D02*
G01X07515Y-4097D01*
G01X07515Y-4097D02*
G01X07527Y-4097D01*
G01X07527Y-4097D02*
G01X07538Y-4093D01*
G01X07538Y-4093D02*
G01X07547Y-4084D01*
G01X07547Y-4084D02*
G01X07552Y-4073D01*
G01X07552Y-4073D02*
G01X07552Y-4060D01*
G01X07552Y-4060D02*
G01X07552Y-4752D01*
G01X07552Y-4752D02*
G01X07456Y-4752D01*
G01X07456Y-4752D02*
G01X07456Y-3644D01*
G01X07456Y-3644D02*
G01X07451Y-3633D01*
G01X07451Y-3633D02*
G01X07442Y-3624D01*
G01X07442Y-3624D02*
G01X07438Y-3622D01*
G01X07438Y-3622D02*
G01X07441Y-3616D01*
G01X07441Y-3616D02*
G01X07441Y-3604D01*
G01X07441Y-3604D02*
G01X07436Y-3593D01*
G01X07436Y-3593D02*
G01X07427Y-3584D01*
G01X07427Y-3584D02*
G01X07416Y-3579D01*
G01X07416Y-3579D02*
G01X07404Y-3579D01*
G01X07404Y-3579D02*
G01X07393Y-3584D01*
G01X07393Y-3584D02*
G01X07384Y-3592D01*
G01X07384Y-3592D02*
G01X07379Y-3604D01*
G01X07379Y-3604D02*
G01X07379Y-3616D01*
G01X07379Y-3616D02*
G01X07382Y-3622D01*
G01X07382Y-3622D02*
G01X07373Y-3613D01*
G01X07373Y-3613D02*
G01X07373Y-3405D01*
G01X07373Y-3405D02*
G01X07373Y-3399D01*
G01X07373Y-3399D02*
G01X07373Y-3344D01*
G01X07373Y-3344D02*
G01X07370Y-3339D01*
G01X07370Y-3339D02*
G01X07366Y-3335D01*
G01X07366Y-3335D02*
G01X07360Y-3332D01*
G01X07360Y-3332D02*
G01X07355Y-3332D01*
G01X07355Y-3332D02*
G01X07355Y-3317D01*
G01X07355Y-3317D02*
G01X07353Y-3307D01*
G01X07353Y-3307D02*
G01X07353Y-3307D01*
G01X07353Y-3307D02*
G01X07351Y-3305D01*
G01X07351Y-3305D02*
G01X07348Y-3299D01*
G01X07348Y-3299D02*
G01X07348Y-3299D01*
G01X07348Y-3299D02*
G01X07329Y-3280D01*
G01X07329Y-3280D02*
G01X07321Y-3275D01*
G01X07321Y-3275D02*
G01X07311Y-3273D01*
G01X07311Y-3273D02*
G01X06740Y-3273D01*
G01X06740Y-3273D02*
G01X06730Y-3275D01*
G01X06730Y-3275D02*
G01X06722Y-3280D01*
G01X06722Y-3280D02*
G01X06701Y-3302D01*
G01X06701Y-3302D02*
G01X06696Y-3310D01*
G01X06696Y-3310D02*
G01X06694Y-3319D01*
G01X06694Y-3319D02*
G01X06694Y-3348D01*
G01X06694Y-3348D02*
G01X06692Y-3349D01*
G01X06692Y-3349D02*
G01X06688Y-3361D01*
G01X06688Y-3361D02*
G01X06688Y-3373D01*
G01X06688Y-3373D02*
G01X06692Y-3384D01*
G01X06692Y-3384D02*
G01X06701Y-3393D01*
G01X06701Y-3393D02*
G01X06712Y-3398D01*
G01X06712Y-3398D02*
G01X06725Y-3398D01*
G01X06725Y-3398D02*
G01X06736Y-3393D01*
G01X06736Y-3393D02*
G01X06745Y-3384D01*
G01X06745Y-3384D02*
G01X06749Y-3373D01*
G01X06749Y-3373D02*
G01X06749Y-3361D01*
G01X06749Y-3361D02*
G01X06745Y-3350D01*
G01X06745Y-3350D02*
G01X06743Y-3348D01*
G01X06743Y-3348D02*
G01X06743Y-3330D01*
G01X06743Y-3330D02*
G01X06750Y-3323D01*
G01X06750Y-3323D02*
G01X07301Y-3323D01*
G01X07301Y-3323D02*
G01X07305Y-3327D01*
G01X07305Y-3327D02*
G01X07305Y-3332D01*
G01X07305Y-3332D02*
G01X07300Y-3332D01*
G01X07300Y-3332D02*
G01X07294Y-3335D01*
G01X07294Y-3335D02*
G01X07290Y-3339D01*
G01X07290Y-3339D02*
G01X07288Y-3344D01*
G01X07288Y-3344D02*
G01X07288Y-3350D01*
G01X07288Y-3350D02*
G01X07288Y-3405D01*
G01X07288Y-3405D02*
G01X07290Y-3411D01*
G01X07290Y-3411D02*
G01X07294Y-3415D01*
G01X07294Y-3415D02*
G01X07300Y-3417D01*
G01X07300Y-3417D02*
G01X07305Y-3417D01*
G01X07305Y-3417D02*
G01X07360Y-3417D01*
G01X07360Y-3417D02*
G01X07366Y-3415D01*
G01X07366Y-3415D02*
G01X07370Y-3411D01*
G01X07370Y-3411D02*
G01X07373Y-3405D01*
G01X07373Y-3405D02*
G01X07373Y-3613D01*
G01X07373Y-3613D02*
G01X07330Y-3570D01*
G01X07330Y-3570D02*
G01X07323Y-3566D01*
G01X07323Y-3566D02*
G01X07315Y-3564D01*
G01X07315Y-3564D02*
G01X07273Y-3564D01*
G01X07273Y-3564D02*
G01X07273Y-3366D01*
G01X07273Y-3366D02*
G01X07266Y-3351D01*
G01X07266Y-3351D02*
G01X07254Y-3339D01*
G01X07254Y-3339D02*
G01X07238Y-3332D01*
G01X07238Y-3332D02*
G01X07222Y-3332D01*
G01X07222Y-3332D02*
G01X07206Y-3339D01*
G01X07206Y-3339D02*
G01X07194Y-3351D01*
G01X07194Y-3351D02*
G01X07188Y-3366D01*
G01X07188Y-3366D02*
G01X07187Y-3383D01*
G01X07187Y-3383D02*
G01X07194Y-3399D01*
G01X07194Y-3399D02*
G01X07206Y-3411D01*
G01X07206Y-3411D02*
G01X07222Y-3417D01*
G01X07222Y-3417D02*
G01X07238Y-3417D01*
G01X07238Y-3417D02*
G01X07254Y-3411D01*
G01X07254Y-3411D02*
G01X07266Y-3399D01*
G01X07266Y-3399D02*
G01X07272Y-3383D01*
G01X07272Y-3383D02*
G01X07273Y-3366D01*
G01X07273Y-3366D02*
G01X07273Y-3564D01*
G01X07273Y-3564D02*
G01X07198Y-3564D01*
G01X07198Y-3564D02*
G01X07192Y-3559D01*
G01X07192Y-3559D02*
G01X07181Y-3554D01*
G01X07181Y-3554D02*
G01X07173Y-3554D01*
G01X07173Y-3554D02*
G01X07173Y-3366D01*
G01X07173Y-3366D02*
G01X07166Y-3351D01*
G01X07166Y-3351D02*
G01X07154Y-3339D01*
G01X07154Y-3339D02*
G01X07138Y-3332D01*
G01X07138Y-3332D02*
G01X07122Y-3332D01*
G01X07122Y-3332D02*
G01X07106Y-3339D01*
G01X07106Y-3339D02*
G01X07094Y-3351D01*
G01X07094Y-3351D02*
G01X07088Y-3366D01*
G01X07088Y-3366D02*
G01X07087Y-3383D01*
G01X07087Y-3383D02*
G01X07094Y-3399D01*
G01X07094Y-3399D02*
G01X07106Y-3411D01*
G01X07106Y-3411D02*
G01X07122Y-3417D01*
G01X07122Y-3417D02*
G01X07138Y-3417D01*
G01X07138Y-3417D02*
G01X07154Y-3411D01*
G01X07154Y-3411D02*
G01X07166Y-3399D01*
G01X07166Y-3399D02*
G01X07172Y-3383D01*
G01X07172Y-3383D02*
G01X07173Y-3366D01*
G01X07173Y-3366D02*
G01X07173Y-3554D01*
G01X07173Y-3554D02*
G01X07169Y-3554D01*
G01X07169Y-3554D02*
G01X07158Y-3559D01*
G01X07158Y-3559D02*
G01X07149Y-3567D01*
G01X07149Y-3567D02*
G01X07144Y-3579D01*
G01X07144Y-3579D02*
G01X07144Y-3591D01*
G01X07144Y-3591D02*
G01X07149Y-3602D01*
G01X07149Y-3602D02*
G01X07158Y-3611D01*
G01X07158Y-3611D02*
G01X07169Y-3616D01*
G01X07169Y-3616D02*
G01X07181Y-3616D01*
G01X07181Y-3616D02*
G01X07189Y-3612D01*
G01X07189Y-3612D02*
G01X07184Y-3617D01*
G01X07184Y-3617D02*
G01X07179Y-3629D01*
G01X07179Y-3629D02*
G01X07179Y-3641D01*
G01X07179Y-3641D02*
G01X07184Y-3652D01*
G01X07184Y-3652D02*
G01X07193Y-3661D01*
G01X07193Y-3661D02*
G01X07204Y-3666D01*
G01X07204Y-3666D02*
G01X07216Y-3666D01*
G01X07216Y-3666D02*
G01X07227Y-3661D01*
G01X07227Y-3661D02*
G01X07233Y-3656D01*
G01X07233Y-3656D02*
G01X07301Y-3656D01*
G01X07301Y-3656D02*
G01X07374Y-3729D01*
G01X07374Y-3729D02*
G01X07374Y-4026D01*
G01X07374Y-4026D02*
G01X07365Y-4035D01*
G01X07365Y-4035D02*
G01X07365Y-3885D01*
G01X07365Y-3885D02*
G01X07363Y-3877D01*
G01X07363Y-3877D02*
G01X07359Y-3871D01*
G01X07359Y-3871D02*
G01X07279Y-3791D01*
G01X07279Y-3791D02*
G01X07273Y-3786D01*
G01X07273Y-3786D02*
G01X07265Y-3785D01*
G01X07265Y-3785D02*
G01X07233Y-3785D01*
G01X07233Y-3785D02*
G01X07227Y-3779D01*
G01X07227Y-3779D02*
G01X07216Y-3774D01*
G01X07216Y-3774D02*
G01X07204Y-3774D01*
G01X07204Y-3774D02*
G01X07193Y-3779D01*
G01X07193Y-3779D02*
G01X07184Y-3787D01*
G01X07184Y-3787D02*
G01X07179Y-3799D01*
G01X07179Y-3799D02*
G01X07179Y-3811D01*
G01X07179Y-3811D02*
G01X07184Y-3822D01*
G01X07184Y-3822D02*
G01X07193Y-3831D01*
G01X07193Y-3831D02*
G01X07204Y-3836D01*
G01X07204Y-3836D02*
G01X07216Y-3836D01*
G01X07216Y-3836D02*
G01X07227Y-3831D01*
G01X07227Y-3831D02*
G01X07233Y-3825D01*
G01X07233Y-3825D02*
G01X07257Y-3825D01*
G01X07257Y-3825D02*
G01X07325Y-3893D01*
G01X07325Y-3893D02*
G01X07325Y-4037D01*
G01X07325Y-4037D02*
G01X07311Y-4051D01*
G01X07311Y-4051D02*
G01X07311Y-3974D01*
G01X07311Y-3974D02*
G01X07306Y-3963D01*
G01X07306Y-3963D02*
G01X07298Y-3955D01*
G01X07298Y-3955D02*
G01X07306Y-3947D01*
G01X07306Y-3947D02*
G01X07311Y-3936D01*
G01X07311Y-3936D02*
G01X07311Y-3924D01*
G01X07311Y-3924D02*
G01X07306Y-3913D01*
G01X07306Y-3913D02*
G01X07297Y-3904D01*
G01X07297Y-3904D02*
G01X07286Y-3899D01*
G01X07286Y-3899D02*
G01X07274Y-3899D01*
G01X07274Y-3899D02*
G01X07263Y-3904D01*
G01X07263Y-3904D02*
G01X07261Y-3905D01*
G01X07261Y-3905D02*
G01X07073Y-3905D01*
G01X07073Y-3905D02*
G01X07073Y-3366D01*
G01X07073Y-3366D02*
G01X07066Y-3351D01*
G01X07066Y-3351D02*
G01X07054Y-3339D01*
G01X07054Y-3339D02*
G01X07038Y-3332D01*
G01X07038Y-3332D02*
G01X07022Y-3332D01*
G01X07022Y-3332D02*
G01X07006Y-3339D01*
G01X07006Y-3339D02*
G01X06994Y-3351D01*
G01X06994Y-3351D02*
G01X06988Y-3366D01*
G01X06988Y-3366D02*
G01X06987Y-3383D01*
G01X06987Y-3383D02*
G01X06994Y-3399D01*
G01X06994Y-3399D02*
G01X07006Y-3411D01*
G01X07006Y-3411D02*
G01X07022Y-3417D01*
G01X07022Y-3417D02*
G01X07038Y-3417D01*
G01X07038Y-3417D02*
G01X07054Y-3411D01*
G01X07054Y-3411D02*
G01X07066Y-3399D01*
G01X07066Y-3399D02*
G01X07072Y-3383D01*
G01X07072Y-3383D02*
G01X07073Y-3366D01*
G01X07073Y-3366D02*
G01X07073Y-3905D01*
G01X07073Y-3905D02*
G01X07015Y-3905D01*
G01X07015Y-3905D02*
G01X07010Y-3900D01*
G01X07010Y-3900D02*
G01X07010Y-3665D01*
G01X07010Y-3665D02*
G01X07010Y-3604D01*
G01X07010Y-3604D02*
G01X07011Y-3602D01*
G01X07011Y-3602D02*
G01X07016Y-3591D01*
G01X07016Y-3591D02*
G01X07016Y-3579D01*
G01X07016Y-3579D02*
G01X07011Y-3568D01*
G01X07011Y-3568D02*
G01X07002Y-3559D01*
G01X07002Y-3559D02*
G01X06991Y-3554D01*
G01X06991Y-3554D02*
G01X06979Y-3554D01*
G01X06979Y-3554D02*
G01X06973Y-3557D01*
G01X06973Y-3557D02*
G01X06973Y-3366D01*
G01X06973Y-3366D02*
G01X06966Y-3351D01*
G01X06966Y-3351D02*
G01X06954Y-3339D01*
G01X06954Y-3339D02*
G01X06938Y-3332D01*
G01X06938Y-3332D02*
G01X06922Y-3332D01*
G01X06922Y-3332D02*
G01X06906Y-3339D01*
G01X06906Y-3339D02*
G01X06894Y-3351D01*
G01X06894Y-3351D02*
G01X06888Y-3366D01*
G01X06888Y-3366D02*
G01X06887Y-3383D01*
G01X06887Y-3383D02*
G01X06894Y-3399D01*
G01X06894Y-3399D02*
G01X06906Y-3411D01*
G01X06906Y-3411D02*
G01X06922Y-3417D01*
G01X06922Y-3417D02*
G01X06938Y-3417D01*
G01X06938Y-3417D02*
G01X06954Y-3411D01*
G01X06954Y-3411D02*
G01X06966Y-3399D01*
G01X06966Y-3399D02*
G01X06972Y-3383D01*
G01X06972Y-3383D02*
G01X06973Y-3366D01*
G01X06973Y-3366D02*
G01X06973Y-3557D01*
G01X06973Y-3557D02*
G01X06968Y-3559D01*
G01X06968Y-3559D02*
G01X06959Y-3567D01*
G01X06959Y-3567D02*
G01X06954Y-3579D01*
G01X06954Y-3579D02*
G01X06954Y-3591D01*
G01X06954Y-3591D02*
G01X06959Y-3602D01*
G01X06959Y-3602D02*
G01X06960Y-3604D01*
G01X06960Y-3604D02*
G01X06960Y-3665D01*
G01X06960Y-3665D02*
G01X06960Y-3910D01*
G01X06960Y-3910D02*
G01X06962Y-3919D01*
G01X06962Y-3919D02*
G01X06967Y-3927D01*
G01X06967Y-3927D02*
G01X06987Y-3947D01*
G01X06987Y-3947D02*
G01X06987Y-3947D01*
G01X06987Y-3947D02*
G01X06993Y-3951D01*
G01X06993Y-3951D02*
G01X06995Y-3953D01*
G01X06995Y-3953D02*
G01X06995Y-3953D01*
G01X06995Y-3953D02*
G01X07005Y-3955D01*
G01X07005Y-3955D02*
G01X07261Y-3955D01*
G01X07261Y-3955D02*
G01X07262Y-3955D01*
G01X07262Y-3955D02*
G01X07254Y-3962D01*
G01X07254Y-3962D02*
G01X07253Y-3964D01*
G01X07253Y-3964D02*
G01X07215Y-3971D01*
G01X07215Y-3971D02*
G01X07212Y-3969D01*
G01X07212Y-3969D02*
G01X07201Y-3964D01*
G01X07201Y-3964D02*
G01X07189Y-3964D01*
G01X07189Y-3964D02*
G01X07178Y-3969D01*
G01X07178Y-3969D02*
G01X07169Y-3977D01*
G01X07169Y-3977D02*
G01X07164Y-3989D01*
G01X07164Y-3989D02*
G01X07164Y-4001D01*
G01X07164Y-4001D02*
G01X07169Y-4012D01*
G01X07169Y-4012D02*
G01X07178Y-4021D01*
G01X07178Y-4021D02*
G01X07189Y-4026D01*
G01X07189Y-4026D02*
G01X07201Y-4026D01*
G01X07201Y-4026D02*
G01X07212Y-4021D01*
G01X07212Y-4021D02*
G01X07221Y-4012D01*
G01X07221Y-4012D02*
G01X07222Y-4011D01*
G01X07222Y-4011D02*
G01X07260Y-4004D01*
G01X07260Y-4004D02*
G01X07263Y-4006D01*
G01X07263Y-4006D02*
G01X07274Y-4011D01*
G01X07274Y-4011D02*
G01X07286Y-4011D01*
G01X07286Y-4011D02*
G01X07297Y-4006D01*
G01X07297Y-4006D02*
G01X07306Y-3997D01*
G01X07306Y-3997D02*
G01X07311Y-3986D01*
G01X07311Y-3986D02*
G01X07311Y-3974D01*
G01X07311Y-3974D02*
G01X07311Y-4051D01*
G01X07311Y-4051D02*
G01X06999Y-4363D01*
G01X06999Y-4363D02*
G01X06999Y-4290D01*
G01X06999Y-4290D02*
G01X06994Y-4279D01*
G01X06994Y-4279D02*
G01X06985Y-4270D01*
G01X06985Y-4270D02*
G01X06974Y-4266D01*
G01X06974Y-4266D02*
G01X06971Y-4266D01*
G01X06971Y-4266D02*
G01X06971Y-4266D01*
G01X06971Y-4266D02*
G01X06971Y-4054D01*
G01X06971Y-4054D02*
G01X06971Y-3944D01*
G01X06971Y-3944D02*
G01X06966Y-3933D01*
G01X06966Y-3933D02*
G01X06957Y-3924D01*
G01X06957Y-3924D02*
G01X06946Y-3919D01*
G01X06946Y-3919D02*
G01X06934Y-3919D01*
G01X06934Y-3919D02*
G01X06923Y-3924D01*
G01X06923Y-3924D02*
G01X06914Y-3932D01*
G01X06914Y-3932D02*
G01X06909Y-3944D01*
G01X06909Y-3944D02*
G01X06909Y-3956D01*
G01X06909Y-3956D02*
G01X06914Y-3967D01*
G01X06914Y-3967D02*
G01X06923Y-3976D01*
G01X06923Y-3976D02*
G01X06934Y-3981D01*
G01X06934Y-3981D02*
G01X06946Y-3981D01*
G01X06946Y-3981D02*
G01X06957Y-3976D01*
G01X06957Y-3976D02*
G01X06966Y-3967D01*
G01X06966Y-3967D02*
G01X06971Y-3956D01*
G01X06971Y-3956D02*
G01X06971Y-3944D01*
G01X06971Y-3944D02*
G01X06971Y-4054D01*
G01X06971Y-4054D02*
G01X06966Y-4043D01*
G01X06966Y-4043D02*
G01X06957Y-4034D01*
G01X06957Y-4034D02*
G01X06946Y-4029D01*
G01X06946Y-4029D02*
G01X06934Y-4029D01*
G01X06934Y-4029D02*
G01X06923Y-4034D01*
G01X06923Y-4034D02*
G01X06914Y-4043D01*
G01X06914Y-4043D02*
G01X06909Y-4054D01*
G01X06909Y-4054D02*
G01X06909Y-4066D01*
G01X06909Y-4066D02*
G01X06914Y-4077D01*
G01X06914Y-4077D02*
G01X06923Y-4086D01*
G01X06923Y-4086D02*
G01X06934Y-4091D01*
G01X06934Y-4091D02*
G01X06946Y-4091D01*
G01X06946Y-4091D02*
G01X06957Y-4086D01*
G01X06957Y-4086D02*
G01X06966Y-4077D01*
G01X06966Y-4077D02*
G01X06971Y-4066D01*
G01X06971Y-4066D02*
G01X06971Y-4054D01*
G01X06971Y-4054D02*
G01X06971Y-4266D01*
G01X06971Y-4266D02*
G01X06745Y-4040D01*
G01X06745Y-4040D02*
G01X06745Y-3909D01*
G01X06745Y-3909D02*
G01X06746Y-3907D01*
G01X06746Y-3907D02*
G01X06751Y-3896D01*
G01X06751Y-3896D02*
G01X06751Y-3884D01*
G01X06751Y-3884D02*
G01X06746Y-3873D01*
G01X06746Y-3873D02*
G01X06737Y-3864D01*
G01X06737Y-3864D02*
G01X06726Y-3859D01*
G01X06726Y-3859D02*
G01X06714Y-3859D01*
G01X06714Y-3859D02*
G01X06703Y-3864D01*
G01X06703Y-3864D02*
G01X06694Y-3872D01*
G01X06694Y-3872D02*
G01X06689Y-3884D01*
G01X06689Y-3884D02*
G01X06689Y-3896D01*
G01X06689Y-3896D02*
G01X06694Y-3907D01*
G01X06694Y-3907D02*
G01X06695Y-3909D01*
G01X06695Y-3909D02*
G01X06695Y-4050D01*
G01X06695Y-4050D02*
G01X06697Y-4059D01*
G01X06697Y-4059D02*
G01X06702Y-4067D01*
G01X06702Y-4067D02*
G01X06937Y-4302D01*
G01X06937Y-4302D02*
G01X06937Y-4302D01*
G01X06937Y-4302D02*
G01X06942Y-4314D01*
G01X06942Y-4314D02*
G01X06951Y-4322D01*
G01X06951Y-4322D02*
G01X06962Y-4327D01*
G01X06962Y-4327D02*
G01X06974Y-4327D01*
G01X06974Y-4327D02*
G01X06985Y-4322D01*
G01X06985Y-4322D02*
G01X06994Y-4314D01*
G01X06994Y-4314D02*
G01X06999Y-4303D01*
G01X06999Y-4303D02*
G01X06999Y-4290D01*
G01X06999Y-4290D02*
G01X06999Y-4363D01*
G01X06999Y-4363D02*
G01X06977Y-4385D01*
G01X06977Y-4385D02*
G01X06853Y-4385D01*
G01X06853Y-4385D02*
G01X06764Y-4296D01*
G01X06764Y-4296D02*
G01X06758Y-4291D01*
G01X06758Y-4291D02*
G01X06750Y-4290D01*
G01X06750Y-4290D02*
G01X06645Y-4290D01*
G01X06645Y-4290D02*
G01X06637Y-4291D01*
G01X06637Y-4291D02*
G01X06635Y-4293D01*
G01X06635Y-4293D02*
G01X06631Y-4296D01*
G01X06631Y-4296D02*
G01X06577Y-4350D01*
G01X06577Y-4350D02*
G01X06233Y-4350D01*
G01X06233Y-4350D02*
G01X06041Y-4157D01*
G01X06041Y-4157D02*
G01X06041Y-3624D01*
G01X06041Y-3624D02*
G01X06036Y-3613D01*
G01X06036Y-3613D02*
G01X06027Y-3604D01*
G01X06027Y-3604D02*
G01X06016Y-3599D01*
G01X06016Y-3599D02*
G01X06004Y-3599D01*
G01X06004Y-3599D02*
G01X05993Y-3604D01*
G01X05993Y-3604D02*
G01X05984Y-3612D01*
G01X05984Y-3612D02*
G01X05979Y-3624D01*
G01X05979Y-3624D02*
G01X05979Y-3626D01*
G01X05979Y-3626D02*
G01X05930Y-3675D01*
G01X05930Y-3675D02*
G01X05824Y-3675D01*
G01X05824Y-3675D02*
G01X05824Y-3371D01*
G01X05824Y-3371D02*
G01X05816Y-3351D01*
G01X05816Y-3351D02*
G01X05801Y-3335D01*
G01X05801Y-3335D02*
G01X05781Y-3327D01*
G01X05781Y-3327D02*
G01X05759Y-3327D01*
G01X05759Y-3327D02*
G01X05739Y-3335D01*
G01X05739Y-3335D02*
G01X05724Y-3351D01*
G01X05724Y-3351D02*
G01X05716Y-3371D01*
G01X05716Y-3371D02*
G01X05716Y-3392D01*
G01X05716Y-3392D02*
G01X05724Y-3412D01*
G01X05724Y-3412D02*
G01X05739Y-3428D01*
G01X05739Y-3428D02*
G01X05759Y-3436D01*
G01X05759Y-3436D02*
G01X05781Y-3436D01*
G01X05781Y-3436D02*
G01X05801Y-3428D01*
G01X05801Y-3428D02*
G01X05816Y-3412D01*
G01X05816Y-3412D02*
G01X05824Y-3392D01*
G01X05824Y-3392D02*
G01X05824Y-3371D01*
G01X05824Y-3371D02*
G01X05824Y-3675D01*
G01X05824Y-3675D02*
G01X05174Y-3675D01*
G01X05174Y-3675D02*
G01X05172Y-3674D01*
G01X05172Y-3674D02*
G01X05161Y-3669D01*
G01X05161Y-3669D02*
G01X05149Y-3669D01*
G01X05149Y-3669D02*
G01X05138Y-3674D01*
G01X05138Y-3674D02*
G01X05136Y-3675D01*
G01X05136Y-3675D02*
G01X04940Y-3675D01*
G01X04940Y-3675D02*
G01X04926Y-3661D01*
G01X04926Y-3661D02*
G01X04926Y-3659D01*
G01X04926Y-3659D02*
G01X04921Y-3648D01*
G01X04921Y-3648D02*
G01X04912Y-3639D01*
G01X04912Y-3639D02*
G01X04901Y-3634D01*
G01X04901Y-3634D02*
G01X04889Y-3634D01*
G01X04889Y-3634D02*
G01X04878Y-3639D01*
G01X04878Y-3639D02*
G01X04869Y-3647D01*
G01X04869Y-3647D02*
G01X04864Y-3659D01*
G01X04864Y-3659D02*
G01X04864Y-3671D01*
G01X04864Y-3671D02*
G01X04869Y-3682D01*
G01X04869Y-3682D02*
G01X04878Y-3691D01*
G01X04878Y-3691D02*
G01X04889Y-3696D01*
G01X04889Y-3696D02*
G01X04891Y-3696D01*
G01X04891Y-3696D02*
G01X04912Y-3717D01*
G01X04912Y-3717D02*
G01X04920Y-3723D01*
G01X04920Y-3723D02*
G01X04930Y-3725D01*
G01X04930Y-3725D02*
G01X05136Y-3725D01*
G01X05136Y-3725D02*
G01X05138Y-3726D01*
G01X05138Y-3726D02*
G01X05149Y-3731D01*
G01X05149Y-3731D02*
G01X05161Y-3731D01*
G01X05161Y-3731D02*
G01X05172Y-3726D01*
G01X05172Y-3726D02*
G01X05174Y-3725D01*
G01X05174Y-3725D02*
G01X05940Y-3725D01*
G01X05940Y-3725D02*
G01X05940Y-3725D01*
G01X05940Y-3725D02*
G01X05950Y-3723D01*
G01X05950Y-3723D02*
G01X05958Y-3717D01*
G01X05958Y-3717D02*
G01X06014Y-3661D01*
G01X06014Y-3661D02*
G01X06016Y-3661D01*
G01X06016Y-3661D02*
G01X06027Y-3656D01*
G01X06027Y-3656D02*
G01X06036Y-3647D01*
G01X06036Y-3647D02*
G01X06041Y-3636D01*
G01X06041Y-3636D02*
G01X06041Y-3624D01*
G01X06041Y-3624D02*
G01X06041Y-4157D01*
G01X06041Y-4157D02*
G01X05935Y-4052D01*
G01X05935Y-4052D02*
G01X05935Y-3965D01*
G01X05935Y-3965D02*
G01X05933Y-3957D01*
G01X05933Y-3957D02*
G01X05929Y-3951D01*
G01X05929Y-3951D02*
G01X05859Y-3881D01*
G01X05859Y-3881D02*
G01X05853Y-3876D01*
G01X05853Y-3876D02*
G01X05845Y-3875D01*
G01X05845Y-3875D02*
G01X05660Y-3875D01*
G01X05660Y-3875D02*
G01X05654Y-3876D01*
G01X05654Y-3876D02*
G01X05652Y-3876D01*
G01X05652Y-3876D02*
G01X05648Y-3879D01*
G01X05648Y-3879D02*
G01X05648Y-3879D01*
G01X05648Y-3879D02*
G01X05639Y-3879D01*
G01X05639Y-3879D02*
G01X05628Y-3884D01*
G01X05628Y-3884D02*
G01X05619Y-3892D01*
G01X05619Y-3892D02*
G01X05614Y-3904D01*
G01X05614Y-3904D02*
G01X05614Y-3916D01*
G01X05614Y-3916D02*
G01X05619Y-3927D01*
G01X05619Y-3927D02*
G01X05628Y-3936D01*
G01X05628Y-3936D02*
G01X05639Y-3941D01*
G01X05639Y-3941D02*
G01X05651Y-3941D01*
G01X05651Y-3941D02*
G01X05662Y-3936D01*
G01X05662Y-3936D02*
G01X05671Y-3927D01*
G01X05671Y-3927D02*
G01X05676Y-3916D01*
G01X05676Y-3916D02*
G01X05676Y-3915D01*
G01X05676Y-3915D02*
G01X05780Y-3915D01*
G01X05780Y-3915D02*
G01X05774Y-3921D01*
G01X05774Y-3921D02*
G01X05768Y-3936D01*
G01X05768Y-3936D02*
G01X05767Y-3953D01*
G01X05767Y-3953D02*
G01X05774Y-3969D01*
G01X05774Y-3969D02*
G01X05780Y-3975D01*
G01X05780Y-3975D02*
G01X05540Y-3975D01*
G01X05540Y-3975D02*
G01X05546Y-3969D01*
G01X05546Y-3969D02*
G01X05552Y-3953D01*
G01X05552Y-3953D02*
G01X05553Y-3936D01*
G01X05553Y-3936D02*
G01X05553Y-3936D01*
G01X05553Y-3936D02*
G01X05553Y-3875D01*
G01X05553Y-3875D02*
G01X05553Y-3869D01*
G01X05553Y-3869D02*
G01X05553Y-3814D01*
G01X05553Y-3814D02*
G01X05550Y-3809D01*
G01X05550Y-3809D02*
G01X05546Y-3805D01*
G01X05546Y-3805D02*
G01X05540Y-3802D01*
G01X05540Y-3802D02*
G01X05535Y-3802D01*
G01X05535Y-3802D02*
G01X05480Y-3802D01*
G01X05480Y-3802D02*
G01X05474Y-3805D01*
G01X05474Y-3805D02*
G01X05470Y-3809D01*
G01X05470Y-3809D02*
G01X05468Y-3814D01*
G01X05468Y-3814D02*
G01X05468Y-3820D01*
G01X05468Y-3820D02*
G01X05468Y-3875D01*
G01X05468Y-3875D02*
G01X05470Y-3881D01*
G01X05470Y-3881D02*
G01X05474Y-3885D01*
G01X05474Y-3885D02*
G01X05480Y-3887D01*
G01X05480Y-3887D02*
G01X05485Y-3887D01*
G01X05485Y-3887D02*
G01X05540Y-3887D01*
G01X05540Y-3887D02*
G01X05546Y-3885D01*
G01X05546Y-3885D02*
G01X05550Y-3881D01*
G01X05550Y-3881D02*
G01X05553Y-3875D01*
G01X05553Y-3875D02*
G01X05553Y-3936D01*
G01X05553Y-3936D02*
G01X05546Y-3921D01*
G01X05546Y-3921D02*
G01X05534Y-3909D01*
G01X05534Y-3909D02*
G01X05518Y-3902D01*
G01X05518Y-3902D02*
G01X05502Y-3902D01*
G01X05502Y-3902D02*
G01X05486Y-3909D01*
G01X05486Y-3909D02*
G01X05474Y-3921D01*
G01X05474Y-3921D02*
G01X05468Y-3936D01*
G01X05468Y-3936D02*
G01X05467Y-3953D01*
G01X05467Y-3953D02*
G01X05474Y-3969D01*
G01X05474Y-3969D02*
G01X05480Y-3975D01*
G01X05480Y-3975D02*
G01X05350Y-3975D01*
G01X05350Y-3975D02*
G01X05342Y-3976D01*
G01X05342Y-3976D02*
G01X05336Y-3981D01*
G01X05336Y-3981D02*
G01X05327Y-3989D01*
G01X05327Y-3989D02*
G01X05319Y-3989D01*
G01X05319Y-3989D02*
G01X05308Y-3994D01*
G01X05308Y-3994D02*
G01X05299Y-4003D01*
G01X05299Y-4003D02*
G01X05294Y-4014D01*
G01X05294Y-4014D02*
G01X05294Y-4026D01*
G01X05294Y-4026D02*
G01X05299Y-4037D01*
G01X05299Y-4037D02*
G01X05308Y-4046D01*
G01X05308Y-4046D02*
G01X05319Y-4051D01*
G01X05319Y-4051D02*
G01X05331Y-4051D01*
G01X05331Y-4051D02*
G01X05342Y-4046D01*
G01X05342Y-4046D02*
G01X05351Y-4037D01*
G01X05351Y-4037D02*
G01X05356Y-4026D01*
G01X05356Y-4026D02*
G01X05356Y-4017D01*
G01X05356Y-4017D02*
G01X05358Y-4015D01*
G01X05358Y-4015D02*
G01X05480Y-4015D01*
G01X05480Y-4015D02*
G01X05474Y-4021D01*
G01X05474Y-4021D02*
G01X05468Y-4036D01*
G01X05468Y-4036D02*
G01X05467Y-4053D01*
G01X05467Y-4053D02*
G01X05474Y-4069D01*
G01X05474Y-4069D02*
G01X05486Y-4081D01*
G01X05486Y-4081D02*
G01X05502Y-4087D01*
G01X05502Y-4087D02*
G01X05518Y-4088D01*
G01X05518Y-4088D02*
G01X05534Y-4081D01*
G01X05534Y-4081D02*
G01X05546Y-4069D01*
G01X05546Y-4069D02*
G01X05552Y-4053D01*
G01X05552Y-4053D02*
G01X05553Y-4036D01*
G01X05553Y-4036D02*
G01X05546Y-4021D01*
G01X05546Y-4021D02*
G01X05540Y-4015D01*
G01X05540Y-4015D02*
G01X05780Y-4015D01*
G01X05780Y-4015D02*
G01X05774Y-4021D01*
G01X05774Y-4021D02*
G01X05768Y-4036D01*
G01X05768Y-4036D02*
G01X05767Y-4053D01*
G01X05767Y-4053D02*
G01X05774Y-4069D01*
G01X05774Y-4069D02*
G01X05779Y-4074D01*
G01X05779Y-4074D02*
G01X05760Y-4074D01*
G01X05760Y-4074D02*
G01X05752Y-4076D01*
G01X05752Y-4076D02*
G01X05745Y-4080D01*
G01X05745Y-4080D02*
G01X05701Y-4124D01*
G01X05701Y-4124D02*
G01X05547Y-4124D01*
G01X05547Y-4124D02*
G01X05546Y-4121D01*
G01X05546Y-4121D02*
G01X05534Y-4109D01*
G01X05534Y-4109D02*
G01X05518Y-4102D01*
G01X05518Y-4102D02*
G01X05502Y-4102D01*
G01X05502Y-4102D02*
G01X05486Y-4109D01*
G01X05486Y-4109D02*
G01X05474Y-4121D01*
G01X05474Y-4121D02*
G01X05468Y-4136D01*
G01X05468Y-4136D02*
G01X05467Y-4153D01*
G01X05467Y-4153D02*
G01X05474Y-4169D01*
G01X05474Y-4169D02*
G01X05486Y-4181D01*
G01X05486Y-4181D02*
G01X05502Y-4187D01*
G01X05502Y-4187D02*
G01X05518Y-4187D01*
G01X05518Y-4187D02*
G01X05534Y-4181D01*
G01X05534Y-4181D02*
G01X05546Y-4169D01*
G01X05546Y-4169D02*
G01X05547Y-4166D01*
G01X05547Y-4166D02*
G01X05710Y-4166D01*
G01X05710Y-4166D02*
G01X05718Y-4164D01*
G01X05718Y-4164D02*
G01X05725Y-4160D01*
G01X05725Y-4160D02*
G01X05769Y-4116D01*
G01X05769Y-4116D02*
G01X05779Y-4116D01*
G01X05779Y-4116D02*
G01X05774Y-4121D01*
G01X05774Y-4121D02*
G01X05768Y-4136D01*
G01X05768Y-4136D02*
G01X05767Y-4153D01*
G01X05767Y-4153D02*
G01X05774Y-4169D01*
G01X05774Y-4169D02*
G01X05779Y-4174D01*
G01X05779Y-4174D02*
G01X05760Y-4174D01*
G01X05760Y-4174D02*
G01X05752Y-4176D01*
G01X05752Y-4176D02*
G01X05745Y-4180D01*
G01X05745Y-4180D02*
G01X05701Y-4224D01*
G01X05701Y-4224D02*
G01X05547Y-4224D01*
G01X05547Y-4224D02*
G01X05546Y-4221D01*
G01X05546Y-4221D02*
G01X05534Y-4209D01*
G01X05534Y-4209D02*
G01X05518Y-4202D01*
G01X05518Y-4202D02*
G01X05502Y-4202D01*
G01X05502Y-4202D02*
G01X05486Y-4209D01*
G01X05486Y-4209D02*
G01X05474Y-4221D01*
G01X05474Y-4221D02*
G01X05468Y-4236D01*
G01X05468Y-4236D02*
G01X05467Y-4253D01*
G01X05467Y-4253D02*
G01X05474Y-4269D01*
G01X05474Y-4269D02*
G01X05486Y-4281D01*
G01X05486Y-4281D02*
G01X05502Y-4287D01*
G01X05502Y-4287D02*
G01X05518Y-4287D01*
G01X05518Y-4287D02*
G01X05534Y-4281D01*
G01X05534Y-4281D02*
G01X05546Y-4269D01*
G01X05546Y-4269D02*
G01X05547Y-4266D01*
G01X05547Y-4266D02*
G01X05710Y-4266D01*
G01X05710Y-4266D02*
G01X05718Y-4264D01*
G01X05718Y-4264D02*
G01X05725Y-4260D01*
G01X05725Y-4260D02*
G01X05769Y-4216D01*
G01X05769Y-4216D02*
G01X05779Y-4216D01*
G01X05779Y-4216D02*
G01X05774Y-4221D01*
G01X05774Y-4221D02*
G01X05768Y-4236D01*
G01X05768Y-4236D02*
G01X05767Y-4253D01*
G01X05767Y-4253D02*
G01X05774Y-4269D01*
G01X05774Y-4269D02*
G01X05786Y-4281D01*
G01X05786Y-4281D02*
G01X05802Y-4287D01*
G01X05802Y-4287D02*
G01X05812Y-4287D01*
G01X05812Y-4287D02*
G01X05834Y-4309D01*
G01X05834Y-4309D02*
G01X05818Y-4302D01*
G01X05818Y-4302D02*
G01X05802Y-4302D01*
G01X05802Y-4302D02*
G01X05786Y-4309D01*
G01X05786Y-4309D02*
G01X05774Y-4321D01*
G01X05774Y-4321D02*
G01X05768Y-4336D01*
G01X05768Y-4336D02*
G01X05767Y-4353D01*
G01X05767Y-4353D02*
G01X05774Y-4369D01*
G01X05774Y-4369D02*
G01X05786Y-4381D01*
G01X05786Y-4381D02*
G01X05802Y-4387D01*
G01X05802Y-4387D02*
G01X05818Y-4387D01*
G01X05818Y-4387D02*
G01X05834Y-4381D01*
G01X05834Y-4381D02*
G01X05846Y-4369D01*
G01X05846Y-4369D02*
G01X05852Y-4353D01*
G01X05852Y-4353D02*
G01X05853Y-4336D01*
G01X05853Y-4336D02*
G01X05846Y-4321D01*
G01X05846Y-4321D02*
G01X05860Y-4335D01*
G01X05860Y-4335D02*
G01X05860Y-4350D01*
G01X05860Y-4350D02*
G01X05860Y-4355D01*
G01X05860Y-4355D02*
G01X05862Y-4364D01*
G01X05862Y-4364D02*
G01X05867Y-4372D01*
G01X05867Y-4372D02*
G01X05875Y-4378D01*
G01X05875Y-4378D02*
G01X05878Y-4378D01*
G01X05878Y-4378D02*
G01X06127Y-4627D01*
G01X06127Y-4627D02*
G01X06127Y-4629D01*
G01X06127Y-4629D02*
G01X06132Y-4640D01*
G01X06132Y-4640D02*
G01X06141Y-4649D01*
G01X06141Y-4649D02*
G01X06152Y-4654D01*
G01X06152Y-4654D02*
G01X06164Y-4654D01*
G01X06164Y-4654D02*
G01X06175Y-4649D01*
G01X06175Y-4649D02*
G01X06184Y-4640D01*
G01X06184Y-4640D02*
G01X06189Y-4629D01*
G01X06189Y-4629D02*
G01X06189Y-4617D01*
G01X06189Y-4617D02*
G01X06184Y-4606D01*
G01X06184Y-4606D02*
G01X06175Y-4597D01*
G01X06175Y-4597D02*
G01X06164Y-4592D01*
G01X06164Y-4592D02*
G01X06162Y-4592D01*
G01X06162Y-4592D02*
G01X05910Y-4340D01*
G01X05910Y-4340D02*
G01X05910Y-4325D01*
G01X05910Y-4325D02*
G01X05908Y-4315D01*
G01X05908Y-4315D02*
G01X05903Y-4307D01*
G01X05903Y-4307D02*
G01X05851Y-4256D01*
G01X05851Y-4256D02*
G01X05852Y-4253D01*
G01X05852Y-4253D02*
G01X05853Y-4236D01*
G01X05853Y-4236D02*
G01X05846Y-4221D01*
G01X05846Y-4221D02*
G01X05841Y-4216D01*
G01X05841Y-4216D02*
G01X05846Y-4216D01*
G01X05846Y-4216D02*
G01X06125Y-4495D01*
G01X06125Y-4495D02*
G01X06132Y-4499D01*
G01X06132Y-4499D02*
G01X06140Y-4501D01*
G01X06140Y-4501D02*
G01X06396Y-4501D01*
G01X06396Y-4501D02*
G01X06394Y-4502D01*
G01X06394Y-4502D02*
G01X06389Y-4514D01*
G01X06389Y-4514D02*
G01X06389Y-4526D01*
G01X06389Y-4526D02*
G01X06394Y-4537D01*
G01X06394Y-4537D02*
G01X06403Y-4546D01*
G01X06403Y-4546D02*
G01X06414Y-4551D01*
G01X06414Y-4551D02*
G01X06426Y-4551D01*
G01X06426Y-4551D02*
G01X06437Y-4546D01*
G01X06437Y-4546D02*
G01X06443Y-4541D01*
G01X06443Y-4541D02*
G01X07020Y-4541D01*
G01X07020Y-4541D02*
G01X07020Y-4541D01*
G01X07020Y-4541D02*
G01X07020Y-4541D01*
G01X07020Y-4541D02*
G01X07024Y-4540D01*
G01X07024Y-4540D02*
G01X07028Y-4539D01*
G01X07028Y-4539D02*
G01X07028Y-4539D01*
G01X07028Y-4539D02*
G01X07028Y-4539D01*
G01X07028Y-4539D02*
G01X07031Y-4537D01*
G01X07031Y-4537D02*
G01X07035Y-4535D01*
G01X07035Y-4535D02*
G01X07035Y-4535D01*
G01X07035Y-4535D02*
G01X07035Y-4535D01*
G01X07035Y-4535D02*
G01X07339Y-4227D01*
G01X07339Y-4227D02*
G01X07347Y-4227D01*
G01X07347Y-4227D02*
G01X07358Y-4222D01*
G01X07358Y-4222D02*
G01X07367Y-4213D01*
G01X07367Y-4213D02*
G01X07371Y-4202D01*
G01X07371Y-4202D02*
G01X07371Y-4201D01*
G01X07371Y-4201D02*
G01X07381Y-4201D01*
G01X07381Y-4201D02*
G01X07392Y-4196D01*
G01X07392Y-4196D02*
G01X07401Y-4187D01*
G01X07401Y-4187D02*
G01X07406Y-4176D01*
G01X07406Y-4176D02*
G01X07406Y-4164D01*
G01X07406Y-4164D02*
G01X07401Y-4153D01*
G01X07401Y-4153D02*
G01X07392Y-4144D01*
G01X07392Y-4144D02*
G01X07381Y-4139D01*
G01X07381Y-4139D02*
G01X07370Y-4139D01*
G01X07370Y-4139D02*
G01X07445Y-4065D01*
G01X07445Y-4065D02*
G01X07445Y-4065D01*
G01X07445Y-4065D02*
G01X07445Y-4065D01*
G01X07445Y-4065D02*
G01X07449Y-4058D01*
G01X07449Y-4058D02*
G01X07449Y-4058D01*
G01X07449Y-4058D02*
G01X07450Y-4057D01*
G01X07450Y-4057D02*
G01X07451Y-4050D01*
G01X07451Y-4050D02*
G01X07451Y-4050D01*
G01X07451Y-4050D02*
G01X07451Y-4050D01*
G01X07451Y-4050D02*
G01X07451Y-3700D01*
G01X07451Y-3700D02*
G01X07451Y-3700D01*
G01X07451Y-3700D02*
G01X07451Y-3700D01*
G01X07451Y-3700D02*
G01X07449Y-3692D01*
G01X07449Y-3692D02*
G01X07445Y-3685D01*
G01X07445Y-3685D02*
G01X07438Y-3678D01*
G01X07438Y-3678D02*
G01X07442Y-3676D01*
G01X07442Y-3676D02*
G01X07451Y-3667D01*
G01X07451Y-3667D02*
G01X07456Y-3656D01*
G01X07456Y-3656D02*
G01X07456Y-3644D01*
G01X07456Y-3644D02*
G01X07456Y-4752D01*
G01X07456Y-4752D02*
G01X07321Y-4752D01*
G01X07321Y-4752D02*
G01X07321Y-4479D01*
G01X07321Y-4479D02*
G01X07316Y-4468D01*
G01X07316Y-4468D02*
G01X07307Y-4459D01*
G01X07307Y-4459D02*
G01X07296Y-4454D01*
G01X07296Y-4454D02*
G01X07284Y-4454D01*
G01X07284Y-4454D02*
G01X07273Y-4459D01*
G01X07273Y-4459D02*
G01X07264Y-4467D01*
G01X07264Y-4467D02*
G01X07259Y-4479D01*
G01X07259Y-4479D02*
G01X07259Y-4481D01*
G01X07259Y-4481D02*
G01X07067Y-4676D01*
G01X07067Y-4676D02*
G01X05853Y-4675D01*
G01X05853Y-4675D02*
G01X05853Y-4536D01*
G01X05853Y-4536D02*
G01X05853Y-4436D01*
G01X05853Y-4436D02*
G01X05846Y-4421D01*
G01X05846Y-4421D02*
G01X05834Y-4409D01*
G01X05834Y-4409D02*
G01X05818Y-4402D01*
G01X05818Y-4402D02*
G01X05802Y-4402D01*
G01X05802Y-4402D02*
G01X05786Y-4409D01*
G01X05786Y-4409D02*
G01X05774Y-4421D01*
G01X05774Y-4421D02*
G01X05768Y-4436D01*
G01X05768Y-4436D02*
G01X05767Y-4453D01*
G01X05767Y-4453D02*
G01X05774Y-4469D01*
G01X05774Y-4469D02*
G01X05786Y-4481D01*
G01X05786Y-4481D02*
G01X05802Y-4487D01*
G01X05802Y-4487D02*
G01X05818Y-4487D01*
G01X05818Y-4487D02*
G01X05834Y-4481D01*
G01X05834Y-4481D02*
G01X05846Y-4469D01*
G01X05846Y-4469D02*
G01X05852Y-4453D01*
G01X05852Y-4453D02*
G01X05853Y-4436D01*
G01X05853Y-4436D02*
G01X05853Y-4536D01*
G01X05853Y-4536D02*
G01X05846Y-4521D01*
G01X05846Y-4521D02*
G01X05834Y-4509D01*
G01X05834Y-4509D02*
G01X05818Y-4502D01*
G01X05818Y-4502D02*
G01X05802Y-4502D01*
G01X05802Y-4502D02*
G01X05786Y-4509D01*
G01X05786Y-4509D02*
G01X05774Y-4521D01*
G01X05774Y-4521D02*
G01X05768Y-4536D01*
G01X05768Y-4536D02*
G01X05767Y-4553D01*
G01X05767Y-4553D02*
G01X05774Y-4569D01*
G01X05774Y-4569D02*
G01X05786Y-4581D01*
G01X05786Y-4581D02*
G01X05802Y-4587D01*
G01X05802Y-4587D02*
G01X05818Y-4587D01*
G01X05818Y-4587D02*
G01X05834Y-4581D01*
G01X05834Y-4581D02*
G01X05846Y-4569D01*
G01X05846Y-4569D02*
G01X05852Y-4553D01*
G01X05852Y-4553D02*
G01X05853Y-4536D01*
G01X05853Y-4536D02*
G01X05853Y-4675D01*
G01X05853Y-4675D02*
G01X05553Y-4674D01*
G01X05553Y-4674D02*
G01X05553Y-4536D01*
G01X05553Y-4536D02*
G01X05553Y-4436D01*
G01X05553Y-4436D02*
G01X05553Y-4336D01*
G01X05553Y-4336D02*
G01X05546Y-4321D01*
G01X05546Y-4321D02*
G01X05534Y-4309D01*
G01X05534Y-4309D02*
G01X05518Y-4302D01*
G01X05518Y-4302D02*
G01X05502Y-4302D01*
G01X05502Y-4302D02*
G01X05486Y-4309D01*
G01X05486Y-4309D02*
G01X05474Y-4321D01*
G01X05474Y-4321D02*
G01X05468Y-4336D01*
G01X05468Y-4336D02*
G01X05467Y-4353D01*
G01X05467Y-4353D02*
G01X05474Y-4369D01*
G01X05474Y-4369D02*
G01X05486Y-4381D01*
G01X05486Y-4381D02*
G01X05502Y-4387D01*
G01X05502Y-4387D02*
G01X05518Y-4387D01*
G01X05518Y-4387D02*
G01X05534Y-4381D01*
G01X05534Y-4381D02*
G01X05546Y-4369D01*
G01X05546Y-4369D02*
G01X05552Y-4353D01*
G01X05552Y-4353D02*
G01X05553Y-4336D01*
G01X05553Y-4336D02*
G01X05553Y-4436D01*
G01X05553Y-4436D02*
G01X05546Y-4421D01*
G01X05546Y-4421D02*
G01X05534Y-4409D01*
G01X05534Y-4409D02*
G01X05518Y-4402D01*
G01X05518Y-4402D02*
G01X05502Y-4402D01*
G01X05502Y-4402D02*
G01X05486Y-4409D01*
G01X05486Y-4409D02*
G01X05474Y-4421D01*
G01X05474Y-4421D02*
G01X05468Y-4436D01*
G01X05468Y-4436D02*
G01X05467Y-4453D01*
G01X05467Y-4453D02*
G01X05474Y-4469D01*
G01X05474Y-4469D02*
G01X05486Y-4481D01*
G01X05486Y-4481D02*
G01X05502Y-4487D01*
G01X05502Y-4487D02*
G01X05518Y-4487D01*
G01X05518Y-4487D02*
G01X05534Y-4481D01*
G01X05534Y-4481D02*
G01X05546Y-4469D01*
G01X05546Y-4469D02*
G01X05552Y-4453D01*
G01X05552Y-4453D02*
G01X05553Y-4436D01*
G01X05553Y-4436D02*
G01X05553Y-4536D01*
G01X05553Y-4536D02*
G01X05546Y-4521D01*
G01X05546Y-4521D02*
G01X05534Y-4509D01*
G01X05534Y-4509D02*
G01X05518Y-4502D01*
G01X05518Y-4502D02*
G01X05502Y-4502D01*
G01X05502Y-4502D02*
G01X05486Y-4509D01*
G01X05486Y-4509D02*
G01X05474Y-4521D01*
G01X05474Y-4521D02*
G01X05468Y-4536D01*
G01X05468Y-4536D02*
G01X05467Y-4553D01*
G01X05467Y-4553D02*
G01X05474Y-4569D01*
G01X05474Y-4569D02*
G01X05486Y-4581D01*
G01X05486Y-4581D02*
G01X05502Y-4587D01*
G01X05502Y-4587D02*
G01X05518Y-4587D01*
G01X05518Y-4587D02*
G01X05534Y-4581D01*
G01X05534Y-4581D02*
G01X05546Y-4569D01*
G01X05546Y-4569D02*
G01X05552Y-4553D01*
G01X05552Y-4553D02*
G01X05553Y-4536D01*
G01X05553Y-4536D02*
G01X05553Y-4674D01*
G01X05553Y-4674D02*
G01X05455Y-4674D01*
G01X05455Y-4674D02*
G01X05455Y-4310D01*
G01X05455Y-4310D02*
G01X05455Y-4110D01*
G01X05455Y-4110D02*
G01X05447Y-4092D01*
G01X05447Y-4092D02*
G01X05433Y-4078D01*
G01X05433Y-4078D02*
G01X05415Y-4070D01*
G01X05415Y-4070D02*
G01X05395Y-4070D01*
G01X05395Y-4070D02*
G01X05377Y-4077D01*
G01X05377Y-4077D02*
G01X05363Y-4092D01*
G01X05363Y-4092D02*
G01X05355Y-4110D01*
G01X05355Y-4110D02*
G01X05355Y-4130D01*
G01X05355Y-4130D02*
G01X05363Y-4148D01*
G01X05363Y-4148D02*
G01X05377Y-4162D01*
G01X05377Y-4162D02*
G01X05395Y-4170D01*
G01X05395Y-4170D02*
G01X05415Y-4170D01*
G01X05415Y-4170D02*
G01X05433Y-4162D01*
G01X05433Y-4162D02*
G01X05447Y-4148D01*
G01X05447Y-4148D02*
G01X05455Y-4130D01*
G01X05455Y-4130D02*
G01X05455Y-4110D01*
G01X05455Y-4110D02*
G01X05455Y-4310D01*
G01X05455Y-4310D02*
G01X05447Y-4292D01*
G01X05447Y-4292D02*
G01X05433Y-4278D01*
G01X05433Y-4278D02*
G01X05415Y-4270D01*
G01X05415Y-4270D02*
G01X05395Y-4270D01*
G01X05395Y-4270D02*
G01X05377Y-4277D01*
G01X05377Y-4277D02*
G01X05363Y-4292D01*
G01X05363Y-4292D02*
G01X05355Y-4310D01*
G01X05355Y-4310D02*
G01X05355Y-4330D01*
G01X05355Y-4330D02*
G01X05363Y-4348D01*
G01X05363Y-4348D02*
G01X05377Y-4362D01*
G01X05377Y-4362D02*
G01X05395Y-4370D01*
G01X05395Y-4370D02*
G01X05415Y-4370D01*
G01X05415Y-4370D02*
G01X05433Y-4362D01*
G01X05433Y-4362D02*
G01X05447Y-4348D01*
G01X05447Y-4348D02*
G01X05455Y-4330D01*
G01X05455Y-4330D02*
G01X05455Y-4310D01*
G01X05455Y-4310D02*
G01X05455Y-4674D01*
G01X05455Y-4674D02*
G01X05423Y-4674D01*
G01X05423Y-4674D02*
G01X05048Y-4302D01*
G01X05048Y-4302D02*
G01X04978Y-4232D01*
G01X04978Y-4232D02*
G01X04978Y-3965D01*
G01X04978Y-3965D02*
G01X04978Y-3959D01*
G01X04978Y-3959D02*
G01X04978Y-3904D01*
G01X04978Y-3904D02*
G01X04975Y-3899D01*
G01X04975Y-3899D02*
G01X04971Y-3895D01*
G01X04971Y-3895D02*
G01X04965Y-3892D01*
G01X04965Y-3892D02*
G01X04960Y-3892D01*
G01X04960Y-3892D02*
G01X04905Y-3892D01*
G01X04905Y-3892D02*
G01X04899Y-3895D01*
G01X04899Y-3895D02*
G01X04895Y-3899D01*
G01X04895Y-3899D02*
G01X04893Y-3904D01*
G01X04893Y-3904D02*
G01X04893Y-3910D01*
G01X04893Y-3910D02*
G01X04893Y-3965D01*
G01X04893Y-3965D02*
G01X04895Y-3971D01*
G01X04895Y-3971D02*
G01X04899Y-3975D01*
G01X04899Y-3975D02*
G01X04905Y-3977D01*
G01X04905Y-3977D02*
G01X04910Y-3977D01*
G01X04910Y-3977D02*
G01X04965Y-3977D01*
G01X04965Y-3977D02*
G01X04971Y-3975D01*
G01X04971Y-3975D02*
G01X04975Y-3971D01*
G01X04975Y-3971D02*
G01X04978Y-3965D01*
G01X04978Y-3965D02*
G01X04978Y-4232D01*
G01X04978Y-4232D02*
G01X04669Y-3924D01*
G01X04669Y-3924D02*
G01X04669Y-3386D01*
G01X04669Y-3386D02*
G01X04661Y-3366D01*
G01X04661Y-3366D02*
G01X04646Y-3350D01*
G01X04646Y-3350D02*
G01X04626Y-3342D01*
G01X04626Y-3342D02*
G01X04604Y-3342D01*
G01X04604Y-3342D02*
G01X04584Y-3350D01*
G01X04584Y-3350D02*
G01X04569Y-3366D01*
G01X04569Y-3366D02*
G01X04561Y-3386D01*
G01X04561Y-3386D02*
G01X04561Y-3407D01*
G01X04561Y-3407D02*
G01X04569Y-3427D01*
G01X04569Y-3427D02*
G01X04584Y-3443D01*
G01X04584Y-3443D02*
G01X04604Y-3451D01*
G01X04604Y-3451D02*
G01X04626Y-3451D01*
G01X04626Y-3451D02*
G01X04646Y-3443D01*
G01X04646Y-3443D02*
G01X04661Y-3427D01*
G01X04661Y-3427D02*
G01X04669Y-3407D01*
G01X04669Y-3407D02*
G01X04669Y-3386D01*
G01X04669Y-3386D02*
G01X04669Y-3924D01*
G01X04669Y-3924D02*
G01X04636Y-3891D01*
G01X04636Y-3891D02*
G01X04636Y-3889D01*
G01X04636Y-3889D02*
G01X04631Y-3878D01*
G01X04631Y-3878D02*
G01X04622Y-3869D01*
G01X04622Y-3869D02*
G01X04611Y-3864D01*
G01X04611Y-3864D02*
G01X04609Y-3864D01*
G01X04609Y-3864D02*
G01X04580Y-3835D01*
G01X04580Y-3835D02*
G01X04580Y-3648D01*
G01X04580Y-3648D02*
G01X04580Y-3640D01*
G01X04580Y-3640D02*
G01X04578Y-3632D01*
G01X04578Y-3632D02*
G01X04574Y-3626D01*
G01X04574Y-3626D02*
G01X04568Y-3621D01*
G01X04568Y-3621D02*
G01X04560Y-3620D01*
G01X04560Y-3620D02*
G01X04552Y-3621D01*
G01X04552Y-3621D02*
G01X04546Y-3626D01*
G01X04546Y-3626D02*
G01X04542Y-3632D01*
G01X04542Y-3632D02*
G01X04540Y-3640D01*
G01X04540Y-3640D02*
G01X04540Y-3642D01*
G01X04540Y-3642D02*
G01X04540Y-3642D01*
G01X04540Y-3642D02*
G01X04538Y-3650D01*
G01X04538Y-3650D02*
G01X04540Y-3658D01*
G01X04540Y-3658D02*
G01X04544Y-3664D01*
G01X04544Y-3664D02*
G01X04551Y-3668D01*
G01X04551Y-3668D02*
G01X04558Y-3670D01*
G01X04558Y-3670D02*
G01X04566Y-3668D01*
G01X04566Y-3668D02*
G01X04573Y-3664D01*
G01X04573Y-3664D02*
G01X04574Y-3662D01*
G01X04574Y-3662D02*
G01X04574Y-3662D01*
G01X04574Y-3662D02*
G01X04578Y-3656D01*
G01X04578Y-3656D02*
G01X04580Y-3648D01*
G01X04580Y-3648D02*
G01X04580Y-3835D01*
G01X04580Y-3835D02*
G01X04473Y-3727D01*
G01X04473Y-3727D02*
G01X04465Y-3722D01*
G01X04465Y-3722D02*
G01X04455Y-3720D01*
G01X04455Y-3720D02*
G01X04064Y-3720D01*
G01X04064Y-3720D02*
G01X04062Y-3719D01*
G01X04062Y-3719D02*
G01X04051Y-3714D01*
G01X04051Y-3714D02*
G01X04039Y-3714D01*
G01X04039Y-3714D02*
G01X04028Y-3719D01*
G01X04028Y-3719D02*
G01X04019Y-3727D01*
G01X04019Y-3727D02*
G01X04014Y-3739D01*
G01X04014Y-3739D02*
G01X04014Y-3751D01*
G01X04014Y-3751D02*
G01X04019Y-3762D01*
G01X04019Y-3762D02*
G01X04028Y-3771D01*
G01X04028Y-3771D02*
G01X04039Y-3776D01*
G01X04039Y-3776D02*
G01X04051Y-3776D01*
G01X04051Y-3776D02*
G01X04062Y-3771D01*
G01X04062Y-3771D02*
G01X04064Y-3770D01*
G01X04064Y-3770D02*
G01X04445Y-3770D01*
G01X04445Y-3770D02*
G01X04574Y-3899D01*
G01X04574Y-3899D02*
G01X04574Y-3901D01*
G01X04574Y-3901D02*
G01X04579Y-3912D01*
G01X04579Y-3912D02*
G01X04588Y-3921D01*
G01X04588Y-3921D02*
G01X04599Y-3926D01*
G01X04599Y-3926D02*
G01X04601Y-3926D01*
G01X04601Y-3926D02*
G01X05012Y-4337D01*
G01X05012Y-4337D02*
G01X05012Y-4338D01*
G01X05012Y-4338D02*
G01X05013Y-4338D01*
G01X05013Y-4338D02*
G01X05397Y-4718D01*
G01X05397Y-4718D02*
G01X05401Y-4720D01*
G01X05401Y-4720D02*
G01X05404Y-4723D01*
G01X05404Y-4723D02*
G01X05405Y-4723D01*
G01X05405Y-4723D02*
G01X05405Y-4723D01*
G01X05405Y-4723D02*
G01X05409Y-4724D01*
G01X05409Y-4724D02*
G01X05414Y-4725D01*
G01X05414Y-4725D02*
G01X05414Y-4725D01*
G01X05414Y-4725D02*
G01X05414Y-4725D01*
G01X05414Y-4725D02*
G01X05419Y-4724D01*
G01X05419Y-4724D02*
G01X05419Y-4724D01*
G01X05419Y-4724D02*
G01X07077Y-4726D01*
G01X07077Y-4726D02*
G01X07077Y-4726D01*
G01X07077Y-4726D02*
G01X07077Y-4726D01*
G01X07077Y-4726D02*
G01X07082Y-4725D01*
G01X07082Y-4725D02*
G01X07086Y-4724D01*
G01X07086Y-4724D02*
G01X07087Y-4724D01*
G01X07087Y-4724D02*
G01X07087Y-4724D01*
G01X07087Y-4724D02*
G01X07091Y-4721D01*
G01X07091Y-4721D02*
G01X07095Y-4718D01*
G01X07095Y-4718D02*
G01X07095Y-4718D01*
G01X07095Y-4718D02*
G01X07095Y-4718D01*
G01X07095Y-4718D02*
G01X07295Y-4516D01*
G01X07295Y-4516D02*
G01X07296Y-4516D01*
G01X07296Y-4516D02*
G01X07307Y-4511D01*
G01X07307Y-4511D02*
G01X07316Y-4502D01*
G01X07316Y-4502D02*
G01X07321Y-4491D01*
G01X07321Y-4491D02*
G01X07321Y-4479D01*
G01X07321Y-4479D02*
G01X07321Y-4752D01*
G01X07321Y-4752D02*
G01X04766Y-4752D01*
G01X04766Y-4752D02*
G01X04766Y-4324D01*
G01X04766Y-4324D02*
G01X04761Y-4313D01*
G01X04761Y-4313D02*
G01X04752Y-4304D01*
G01X04752Y-4304D02*
G01X04741Y-4299D01*
G01X04741Y-4299D02*
G01X04729Y-4299D01*
G01X04729Y-4299D02*
G01X04718Y-4304D01*
G01X04718Y-4304D02*
G01X04716Y-4305D01*
G01X04716Y-4305D02*
G01X04619Y-4305D01*
G01X04619Y-4305D02*
G01X04619Y-4130D01*
G01X04619Y-4130D02*
G01X04614Y-4119D01*
G01X04614Y-4119D02*
G01X04605Y-4110D01*
G01X04605Y-4110D02*
G01X04594Y-4105D01*
G01X04594Y-4105D02*
G01X04582Y-4105D01*
G01X04582Y-4105D02*
G01X04571Y-4110D01*
G01X04571Y-4110D02*
G01X04566Y-4115D01*
G01X04566Y-4115D02*
G01X04509Y-4115D01*
G01X04509Y-4115D02*
G01X04503Y-4109D01*
G01X04503Y-4109D02*
G01X04492Y-4104D01*
G01X04492Y-4104D02*
G01X04480Y-4104D01*
G01X04480Y-4104D02*
G01X04469Y-4109D01*
G01X04469Y-4109D02*
G01X04460Y-4117D01*
G01X04460Y-4117D02*
G01X04455Y-4129D01*
G01X04455Y-4129D02*
G01X04455Y-4141D01*
G01X04455Y-4141D02*
G01X04460Y-4152D01*
G01X04460Y-4152D02*
G01X04469Y-4161D01*
G01X04469Y-4161D02*
G01X04480Y-4166D01*
G01X04480Y-4166D02*
G01X04492Y-4166D01*
G01X04492Y-4166D02*
G01X04503Y-4161D01*
G01X04503Y-4161D02*
G01X04509Y-4155D01*
G01X04509Y-4155D02*
G01X04564Y-4155D01*
G01X04564Y-4155D02*
G01X04571Y-4162D01*
G01X04571Y-4162D02*
G01X04582Y-4167D01*
G01X04582Y-4167D02*
G01X04594Y-4167D01*
G01X04594Y-4167D02*
G01X04605Y-4162D01*
G01X04605Y-4162D02*
G01X04614Y-4153D01*
G01X04614Y-4153D02*
G01X04619Y-4142D01*
G01X04619Y-4142D02*
G01X04619Y-4130D01*
G01X04619Y-4130D02*
G01X04619Y-4305D01*
G01X04619Y-4305D02*
G01X04498Y-4305D01*
G01X04498Y-4305D02*
G01X04488Y-4301D01*
G01X04488Y-4301D02*
G01X04476Y-4301D01*
G01X04476Y-4301D02*
G01X04465Y-4306D01*
G01X04465Y-4306D02*
G01X04456Y-4314D01*
G01X04456Y-4314D02*
G01X04451Y-4326D01*
G01X04451Y-4326D02*
G01X04451Y-4338D01*
G01X04451Y-4338D02*
G01X04456Y-4349D01*
G01X04456Y-4349D02*
G01X04465Y-4358D01*
G01X04465Y-4358D02*
G01X04476Y-4363D01*
G01X04476Y-4363D02*
G01X04488Y-4363D01*
G01X04488Y-4363D02*
G01X04499Y-4358D01*
G01X04499Y-4358D02*
G01X04503Y-4355D01*
G01X04503Y-4355D02*
G01X04716Y-4355D01*
G01X04716Y-4355D02*
G01X04718Y-4356D01*
G01X04718Y-4356D02*
G01X04729Y-4361D01*
G01X04729Y-4361D02*
G01X04741Y-4361D01*
G01X04741Y-4361D02*
G01X04752Y-4356D01*
G01X04752Y-4356D02*
G01X04761Y-4347D01*
G01X04761Y-4347D02*
G01X04766Y-4336D01*
G01X04766Y-4336D02*
G01X04766Y-4324D01*
G01X04766Y-4324D02*
G01X04766Y-4752D01*
G01X04766Y-4752D02*
G01X04004Y-4752D01*
G01X04004Y-4752D02*
G01X04004Y-4594D01*
G01X04004Y-4594D02*
G01X04004Y-3374D01*
G01X04004Y-3374D02*
G01X03996Y-3354D01*
G01X03996Y-3354D02*
G01X03981Y-3339D01*
G01X03981Y-3339D02*
G01X03961Y-3331D01*
G01X03961Y-3331D02*
G01X03939Y-3331D01*
G01X03939Y-3331D02*
G01X03919Y-3339D01*
G01X03919Y-3339D02*
G01X03904Y-3354D01*
G01X03904Y-3354D02*
G01X03896Y-3374D01*
G01X03896Y-3374D02*
G01X03896Y-3396D01*
G01X03896Y-3396D02*
G01X03904Y-3416D01*
G01X03904Y-3416D02*
G01X03919Y-3431D01*
G01X03919Y-3431D02*
G01X03939Y-3439D01*
G01X03939Y-3439D02*
G01X03961Y-3439D01*
G01X03961Y-3439D02*
G01X03981Y-3431D01*
G01X03981Y-3431D02*
G01X03996Y-3416D01*
G01X03996Y-3416D02*
G01X04004Y-3396D01*
G01X04004Y-3396D02*
G01X04004Y-3374D01*
G01X04004Y-3374D02*
G01X04004Y-4594D01*
G01X04004Y-4594D02*
G01X03996Y-4574D01*
G01X03996Y-4574D02*
G01X03981Y-4559D01*
G01X03981Y-4559D02*
G01X03961Y-4551D01*
G01X03961Y-4551D02*
G01X03939Y-4551D01*
G01X03939Y-4551D02*
G01X03919Y-4559D01*
G01X03919Y-4559D02*
G01X03904Y-4574D01*
G01X03904Y-4574D02*
G01X03896Y-4594D01*
G01X03896Y-4594D02*
G01X03896Y-4616D01*
G01X03896Y-4616D02*
G01X03904Y-4636D01*
G01X03904Y-4636D02*
G01X03919Y-4651D01*
G01X03919Y-4651D02*
G01X03939Y-4659D01*
G01X03939Y-4659D02*
G01X03961Y-4659D01*
G01X03961Y-4659D02*
G01X03981Y-4651D01*
G01X03981Y-4651D02*
G01X03996Y-4636D01*
G01X03996Y-4636D02*
G01X04004Y-4616D01*
G01X04004Y-4616D02*
G01X04004Y-4594D01*
G01X04004Y-4594D02*
G01X04004Y-4752D01*
G01X04004Y-4752D02*
G01X03808Y-4752D01*
G01X03808Y-4752D02*
G01X03807Y-4740D01*
G01X03807Y-4740D02*
G01X03807Y-3237D01*
G01X03807Y-3237D02*
G01X07788Y-3237D01*
G01X07788Y-3237D02*
G01X07788Y-3375D01*
G01X07788Y-3375D02*
G01X07788Y-4752D01*
M02*
