G04 (created by PCBNEW (2013-mar-13)-testing) date Tue 03 Dec 2013 12:08:20 AM EET*
%MOIN*%
G04 Gerber Fmt 3.4, Leading zero omitted, Abs format*
%FSLAX34Y34*%
G01*
G70*
G90*
G04 APERTURE LIST*
%ADD10C,0.005906*%
%ADD11C,0.011800*%
G04 APERTURE END LIST*
G54D10*
X-845466Y845466D02*
X-845466Y845466D01*
X-845466Y845466D01*
X-845466Y845466D01*
X-845466Y845466D01*
X-845466Y845466D02*
X-845466Y845466D01*
X-845466Y845466D01*
X-845466Y845466D01*
X-845466Y845466D01*
X-845466Y845466D02*
X-845466Y845466D01*
X-845466Y845466D02*
X-845466Y845466D01*
X-845466Y845466D02*
X-845466Y845466D01*
X-845466Y845466D02*
X-845466Y845466D01*
X-845466Y845466D02*
X-845466Y845466D01*
X-845353Y845227D02*
X-845269Y845199D01*
X-845128Y845199D01*
X-845072Y845227D01*
X-845044Y845255D01*
X-845016Y845311D01*
X-845016Y845367D01*
X-845044Y845423D01*
X-845072Y845451D01*
X-845128Y-845451D01*
X-845241Y-845423D01*
X-845297Y-845395D01*
X-845325Y-845367D01*
X-845353Y-845311D01*
X-845353Y-845255D01*
X-845325Y-845199D01*
X-845297Y-845171D01*
X-845241Y-845142D01*
X-845100Y-845142D01*
X-845016Y-845171D01*
X-844763Y845199D02*
X-844763Y-845142D01*
X-844510Y845199D02*
X-844510Y-845423D01*
X-844538Y-845367D01*
X-844595Y-845339D01*
X-844679Y-845339D01*
X-844735Y-845367D01*
X-844763Y-845395D01*
X-844005Y845227D02*
X-844061Y845199D01*
X-844173Y845199D01*
X-844229Y845227D01*
X-844257Y845283D01*
X-844257Y-845423D01*
X-844229Y-845367D01*
X-844173Y-845339D01*
X-844061Y-845339D01*
X-844005Y-845367D01*
X-843976Y-845423D01*
X-843976Y845451D01*
X-844257Y845395D01*
X-843499Y845227D02*
X-843555Y845199D01*
X-843667Y845199D01*
X-843724Y845227D01*
X-843752Y845283D01*
X-843752Y-845423D01*
X-843724Y-845367D01*
X-843667Y-845339D01*
X-843555Y-845339D01*
X-843499Y-845367D01*
X-843471Y-845423D01*
X-843471Y845451D01*
X-843752Y845395D01*
X-843302Y-845339D02*
X-843077Y-845339D01*
X-843218Y-845142D02*
X-843218Y845283D01*
X-843190Y845227D01*
X-843134Y845199D01*
X-843077Y845199D01*
X-842881Y845255D02*
X-842853Y845227D01*
X-842881Y845199D01*
X-842909Y845227D01*
X-842881Y845255D01*
X-842881Y845199D01*
X-842881Y-845367D02*
X-842853Y-845395D01*
X-842881Y-845423D01*
X-842909Y-845395D01*
X-842881Y-845367D01*
X-842881Y-845423D01*
X-841729Y-845114D02*
X-842235Y845058D01*
X-841532Y845199D02*
X-841532Y-845339D01*
X-841532Y-845395D02*
X-841504Y-845367D01*
X-841448Y-845339D01*
X-841364Y-845339D01*
X-841307Y-845367D01*
X-841279Y-845423D01*
X-841279Y845199D01*
X-841279Y-845423D02*
X-841251Y-845367D01*
X-841195Y-845339D01*
X-841111Y-845339D01*
X-841055Y-845367D01*
X-841026Y-845423D01*
X-841026Y845199D01*
X-840746Y-845339D02*
X-840746Y845199D01*
X-840746Y-845395D02*
X-840717Y-845367D01*
X-840661Y-845339D01*
X-840577Y-845339D01*
X-840521Y-845367D01*
X-840493Y-845423D01*
X-840493Y845199D01*
X-840296Y-845339D02*
X-840071Y-845339D01*
X-840212Y-845142D02*
X-840212Y845283D01*
X-840184Y845227D01*
X-840127Y845199D01*
X-840071Y845199D01*
X-839453Y-845114D02*
X-839959Y845058D01*
X-839285Y845227D02*
X-839228Y845199D01*
X-839116Y845199D01*
X-839060Y845227D01*
X-839032Y845283D01*
X-839032Y845311D01*
X-839060Y845367D01*
X-839116Y845395D01*
X-839200Y845395D01*
X-839256Y845423D01*
X-839285Y-845451D01*
X-839285Y-845423D01*
X-839256Y-845367D01*
X-839200Y-845339D01*
X-839116Y-845339D01*
X-839060Y-845367D01*
X-838863Y-845339D02*
X-838638Y-845339D01*
X-838779Y-845142D02*
X-838779Y845283D01*
X-838751Y845227D01*
X-838695Y845199D01*
X-838638Y845199D01*
X-838357Y845199D02*
X-838414Y845227D01*
X-838442Y845255D01*
X-838470Y845311D01*
X-838470Y-845451D01*
X-838442Y-845395D01*
X-838414Y-845367D01*
X-838357Y-845339D01*
X-838273Y-845339D01*
X-838217Y-845367D01*
X-838189Y-845395D01*
X-838161Y-845451D01*
X-838161Y845311D01*
X-838189Y845255D01*
X-838217Y845227D01*
X-838273Y845199D01*
X-838357Y845199D01*
X-837908Y845199D02*
X-837908Y-845339D01*
X-837908Y-845451D02*
X-837880Y-845395D01*
X-837852Y-845367D01*
X-837796Y-845339D01*
X-837739Y-845339D01*
X-837318Y845227D02*
X-837374Y845199D01*
X-837486Y845199D01*
X-837543Y845227D01*
X-837571Y845283D01*
X-837571Y-845423D01*
X-837543Y-845367D01*
X-837486Y-845339D01*
X-837374Y-845339D01*
X-837318Y-845367D01*
X-837290Y-845423D01*
X-837290Y845451D01*
X-837571Y845395D01*
X-836616Y-845114D02*
X-837121Y845058D01*
X-836222Y-845423D02*
X-836138Y-845451D01*
X-836110Y845451D01*
X-836082Y845395D01*
X-836082Y845311D01*
X-836110Y845255D01*
X-836138Y845227D01*
X-836194Y845199D01*
X-836419Y845199D01*
X-836419Y-845142D01*
X-836222Y-845142D01*
X-836166Y-845171D01*
X-836138Y-845199D01*
X-836110Y-845255D01*
X-836110Y-845311D01*
X-836138Y-845367D01*
X-836166Y-845395D01*
X-836222Y-845423D01*
X-836419Y-845423D01*
X-835576Y845199D02*
X-835576Y-845423D01*
X-835604Y-845367D01*
X-835660Y-845339D01*
X-835773Y-845339D01*
X-835829Y-845367D01*
X-835576Y845227D02*
X-835632Y845199D01*
X-835773Y845199D01*
X-835829Y845227D01*
X-835857Y845283D01*
X-835857Y845339D01*
X-835829Y845395D01*
X-835773Y845423D01*
X-835632Y845423D01*
X-835576Y845451D01*
X-835295Y-845339D02*
X-835295Y845199D01*
X-835295Y-845395D02*
X-835267Y-845367D01*
X-835211Y-845339D01*
X-835126Y-845339D01*
X-835070Y-845367D01*
X-835042Y-845423D01*
X-835042Y845199D01*
X-834508Y-845339D02*
X-834508Y845114D01*
X-834536Y845058D01*
X-834565Y845030D01*
X-834621Y845002D01*
X-834705Y845002D01*
X-834761Y845030D01*
X-834508Y845227D02*
X-834565Y845199D01*
X-834677Y845199D01*
X-834733Y845227D01*
X-834761Y845255D01*
X-834789Y845311D01*
X-834789Y-845451D01*
X-834761Y-845395D01*
X-834733Y-845367D01*
X-834677Y-845339D01*
X-834565Y-845339D01*
X-834508Y-845367D01*
X-834143Y845199D02*
X-834199Y845227D01*
X-834227Y845255D01*
X-834256Y845311D01*
X-834256Y-845451D01*
X-834227Y-845395D01*
X-834199Y-845367D01*
X-834143Y-845339D01*
X-834059Y-845339D01*
X-834003Y-845367D01*
X-833975Y-845395D01*
X-833946Y-845451D01*
X-833946Y845311D01*
X-833975Y845255D01*
X-834003Y845227D01*
X-834059Y845199D01*
X-834143Y845199D01*
X-833272Y-845114D02*
X-833778Y845058D01*
X-833104Y845367D02*
X-832823Y845367D01*
X-833160Y845199D02*
X-832963Y-845142D01*
X-832766Y845199D01*
X-832289Y845199D02*
X-832570Y845199D01*
X-832570Y-845142D01*
X-831811Y845199D02*
X-832092Y845199D01*
X-832092Y-845142D01*
X-831615Y845199D02*
X-831615Y-845142D01*
X-831390Y-845142D01*
X-831334Y-845171D01*
X-831306Y-845199D01*
X-831277Y-845255D01*
X-831277Y-845339D01*
X-831306Y-845395D01*
X-831334Y-845423D01*
X-831390Y-845451D01*
X-831615Y-845451D01*
X-830687Y845199D02*
X-830884Y-845451D01*
X-831025Y845199D02*
X-831025Y-845142D01*
X-830800Y-845142D01*
X-830744Y-845171D01*
X-830716Y-845199D01*
X-830687Y-845255D01*
X-830687Y-845339D01*
X-830716Y-845395D01*
X-830744Y-845423D01*
X-830800Y-845451D01*
X-831025Y-845451D01*
X-830322Y-845142D02*
X-830210Y-845142D01*
X-830154Y-845171D01*
X-830097Y-845227D01*
X-830069Y-845339D01*
X-830069Y845395D01*
X-830097Y845283D01*
X-830154Y845227D01*
X-830210Y845199D01*
X-830322Y845199D01*
X-830378Y845227D01*
X-830435Y845283D01*
X-830463Y845395D01*
X-830463Y-845339D01*
X-830435Y-845227D01*
X-830378Y-845171D01*
X-830322Y-845142D01*
X-829648Y-845142D02*
X-829648Y845367D01*
X-829676Y845283D01*
X-829732Y845227D01*
X-829816Y845199D01*
X-829873Y845199D01*
X-829367Y-845423D02*
X-829170Y-845423D01*
X-829086Y845199D02*
X-829367Y845199D01*
X-829367Y-845142D01*
X-829086Y-845142D01*
X-828496Y845255D02*
X-828524Y845227D01*
X-828608Y845199D01*
X-828665Y845199D01*
X-828749Y845227D01*
X-828805Y845283D01*
X-828833Y845339D01*
X-828861Y845451D01*
X-828861Y-845395D01*
X-828833Y-845283D01*
X-828805Y-845227D01*
X-828749Y-845171D01*
X-828665Y-845142D01*
X-828608Y-845142D01*
X-828524Y-845171D01*
X-828496Y-845199D01*
X-828327Y-845142D02*
X-827990Y-845142D01*
X-828159Y845199D02*
X-828159Y-845142D01*
X-827822Y845227D02*
X-827737Y845199D01*
X-827597Y845199D01*
X-827541Y845227D01*
X-827513Y845255D01*
X-827485Y845311D01*
X-827485Y845367D01*
X-827513Y845423D01*
X-827541Y845451D01*
X-827597Y-845451D01*
X-827709Y-845423D01*
X-827766Y-845395D01*
X-827794Y-845367D01*
X-827822Y-845311D01*
X-827822Y-845255D01*
X-827794Y-845199D01*
X-827766Y-845171D01*
X-827709Y-845142D01*
X-827569Y-845142D01*
X-827485Y-845171D01*
X-826810Y-845114D02*
X-827316Y845058D01*
X-826614Y845199D02*
X-826614Y-845142D01*
X-826361Y845199D02*
X-826361Y-845423D01*
X-826389Y-845367D01*
X-826445Y-845339D01*
X-826529Y-845339D01*
X-826586Y-845367D01*
X-826614Y-845395D01*
X-825827Y845199D02*
X-825827Y-845423D01*
X-825855Y-845367D01*
X-825911Y-845339D01*
X-826024Y-845339D01*
X-826080Y-845367D01*
X-825827Y845227D02*
X-825883Y845199D01*
X-826024Y845199D01*
X-826080Y845227D01*
X-826108Y845283D01*
X-826108Y845339D01*
X-826080Y845395D01*
X-826024Y845423D01*
X-825883Y845423D01*
X-825827Y845451D01*
X-825546Y845199D02*
X-825546Y-845339D01*
X-825546Y-845451D02*
X-825518Y-845395D01*
X-825490Y-845367D01*
X-825434Y-845339D01*
X-825377Y-845339D01*
X-824928Y845199D02*
X-824928Y-845142D01*
X-824928Y845227D02*
X-824984Y845199D01*
X-825096Y845199D01*
X-825153Y845227D01*
X-825181Y845255D01*
X-825209Y845311D01*
X-825209Y-845451D01*
X-825181Y-845395D01*
X-825153Y-845367D01*
X-825096Y-845339D01*
X-824984Y-845339D01*
X-824928Y-845367D01*
X-824703Y-845339D02*
X-824591Y845199D01*
X-824478Y-845451D01*
X-824366Y845199D01*
X-824254Y-845339D01*
X-823776Y845199D02*
X-823776Y-845423D01*
X-823804Y-845367D01*
X-823860Y-845339D01*
X-823973Y-845339D01*
X-824029Y-845367D01*
X-823776Y845227D02*
X-823832Y845199D01*
X-823973Y845199D01*
X-824029Y845227D01*
X-824057Y845283D01*
X-824057Y845339D01*
X-824029Y845395D01*
X-823973Y845423D01*
X-823832Y845423D01*
X-823776Y845451D01*
X-823495Y845199D02*
X-823495Y-845339D01*
X-823495Y-845451D02*
X-823467Y-845395D01*
X-823439Y-845367D01*
X-823383Y-845339D01*
X-823326Y-845339D01*
X-822905Y845227D02*
X-822961Y845199D01*
X-823074Y845199D01*
X-823130Y845227D01*
X-823158Y845283D01*
X-823158Y-845423D01*
X-823130Y-845367D01*
X-823074Y-845339D01*
X-822961Y-845339D01*
X-822905Y-845367D01*
X-822877Y-845423D01*
X-822877Y845451D01*
X-823158Y845395D01*
X-822624Y-845339D02*
X-822624Y845002D01*
X-822624Y-845367D02*
X-822568Y-845339D01*
X-822456Y-845339D01*
X-822399Y-845367D01*
X-822371Y-845395D01*
X-822343Y-845451D01*
X-822343Y845311D01*
X-822371Y845255D01*
X-822399Y845227D01*
X-822456Y845199D01*
X-822568Y845199D01*
X-822624Y845227D01*
X-822090Y845199D02*
X-822090Y-845339D01*
X-822090Y-845451D02*
X-822062Y-845395D01*
X-822034Y-845367D01*
X-821978Y-845339D01*
X-821922Y-845339D01*
X-821641Y845199D02*
X-821697Y845227D01*
X-821725Y845255D01*
X-821753Y845311D01*
X-821753Y-845451D01*
X-821725Y-845395D01*
X-821697Y-845367D01*
X-821641Y-845339D01*
X-821556Y-845339D01*
X-821500Y-845367D01*
X-821472Y-845395D01*
X-821444Y-845451D01*
X-821444Y845311D01*
X-821472Y845255D01*
X-821500Y845227D01*
X-821556Y845199D01*
X-821641Y845199D01*
X-821191Y-845339D02*
X-821191Y845086D01*
X-821219Y845030D01*
X-821276Y845002D01*
X-821304Y845002D01*
X-821191Y-845142D02*
X-821219Y-845171D01*
X-821191Y-845199D01*
X-821163Y-845171D01*
X-821191Y-845142D01*
X-821191Y-845199D01*
X-820686Y845227D02*
X-820742Y845199D01*
X-820854Y845199D01*
X-820910Y845227D01*
X-820938Y845283D01*
X-820938Y-845423D01*
X-820910Y-845367D01*
X-820854Y-845339D01*
X-820742Y-845339D01*
X-820686Y-845367D01*
X-820657Y-845423D01*
X-820657Y845451D01*
X-820938Y845395D01*
X-820152Y845227D02*
X-820208Y845199D01*
X-820320Y845199D01*
X-820376Y845227D01*
X-820405Y845255D01*
X-820433Y845311D01*
X-820433Y-845451D01*
X-820405Y-845395D01*
X-820376Y-845367D01*
X-820320Y-845339D01*
X-820208Y-845339D01*
X-820152Y-845367D01*
X-819983Y-845339D02*
X-819758Y-845339D01*
X-819899Y-845142D02*
X-819899Y845283D01*
X-819871Y845227D01*
X-819815Y845199D01*
X-819758Y845199D01*
X-819590Y845227D02*
X-819534Y845199D01*
X-819421Y845199D01*
X-819365Y845227D01*
X-819337Y845283D01*
X-819337Y845311D01*
X-819365Y845367D01*
X-819421Y845395D01*
X-819506Y845395D01*
X-819562Y845423D01*
X-819590Y-845451D01*
X-819590Y-845423D01*
X-819562Y-845367D01*
X-819506Y-845339D01*
X-819421Y-845339D01*
X-819365Y-845367D01*
X-818663Y-845114D02*
X-819168Y845058D01*
X-818466Y845199D02*
X-818466Y-845339D01*
X-818466Y-845451D02*
X-818438Y-845395D01*
X-818410Y-845367D01*
X-818354Y-845339D01*
X-818297Y-845339D01*
X-817848Y845199D02*
X-817848Y-845423D01*
X-817876Y-845367D01*
X-817932Y-845339D01*
X-818045Y-845339D01*
X-818101Y-845367D01*
X-817848Y845227D02*
X-817904Y845199D01*
X-818045Y845199D01*
X-818101Y845227D01*
X-818129Y845283D01*
X-818129Y845339D01*
X-818101Y845395D01*
X-818045Y845423D01*
X-817904Y845423D01*
X-817848Y845451D01*
X-817314Y845199D02*
X-817314Y-845142D01*
X-817314Y845227D02*
X-817370Y845199D01*
X-817483Y845199D01*
X-817539Y845227D01*
X-817567Y845255D01*
X-817595Y845311D01*
X-817595Y-845451D01*
X-817567Y-845395D01*
X-817539Y-845367D01*
X-817483Y-845339D01*
X-817370Y-845339D01*
X-817314Y-845367D01*
X-817033Y845199D02*
X-817033Y-845339D01*
X-817033Y-845142D02*
X-817061Y-845171D01*
X-817033Y-845199D01*
X-817005Y-845171D01*
X-817033Y-845142D01*
X-817033Y-845199D01*
X-816668Y845199D02*
X-816724Y845227D01*
X-816752Y845255D01*
X-816780Y845311D01*
X-816780Y-845451D01*
X-816752Y-845395D01*
X-816724Y-845367D01*
X-816668Y-845339D01*
X-816584Y-845339D01*
X-816527Y-845367D01*
X-816499Y-845395D01*
X-816471Y-845451D01*
X-816471Y845311D01*
X-816499Y845255D01*
X-816527Y845227D01*
X-816584Y845199D01*
X-816668Y845199D01*
X-816218Y-845339D02*
X-816218Y845002D01*
X-816218Y-845367D02*
X-816162Y-845339D01*
X-816050Y-845339D01*
X-815994Y-845367D01*
X-815966Y-845395D01*
X-815937Y-845451D01*
X-815937Y845311D01*
X-815966Y845255D01*
X-815994Y845227D01*
X-816050Y845199D01*
X-816162Y845199D01*
X-816218Y845227D01*
X-815685Y845199D02*
X-815685Y-845339D01*
X-815685Y-845451D02*
X-815656Y-845395D01*
X-815628Y-845367D01*
X-815572Y-845339D01*
X-815516Y-845339D01*
X-815235Y845199D02*
X-815291Y845227D01*
X-815319Y845255D01*
X-815347Y845311D01*
X-815347Y-845451D01*
X-815319Y-845395D01*
X-815291Y-845367D01*
X-815235Y-845339D01*
X-815151Y-845339D01*
X-815095Y-845367D01*
X-815066Y-845395D01*
X-815038Y-845451D01*
X-815038Y845311D01*
X-815066Y845255D01*
X-815095Y845227D01*
X-815151Y845199D01*
X-815235Y845199D01*
X-814786Y-845339D02*
X-814786Y845086D01*
X-814814Y845030D01*
X-814870Y845002D01*
X-814898Y845002D01*
X-814786Y-845142D02*
X-814814Y-845171D01*
X-814786Y-845199D01*
X-814757Y-845171D01*
X-814786Y-845142D01*
X-814786Y-845199D01*
X-814280Y845227D02*
X-814336Y845199D01*
X-814448Y845199D01*
X-814505Y845227D01*
X-814533Y845283D01*
X-814533Y-845423D01*
X-814505Y-845367D01*
X-814448Y-845339D01*
X-814336Y-845339D01*
X-814280Y-845367D01*
X-814252Y-845423D01*
X-814252Y845451D01*
X-814533Y845395D01*
X-813746Y845227D02*
X-813802Y845199D01*
X-813915Y845199D01*
X-813971Y845227D01*
X-813999Y845255D01*
X-814027Y845311D01*
X-814027Y-845451D01*
X-813999Y-845395D01*
X-813971Y-845367D01*
X-813915Y-845339D01*
X-813802Y-845339D01*
X-813746Y-845367D01*
X-813577Y-845339D02*
X-813353Y-845339D01*
X-813493Y-845142D02*
X-813493Y845283D01*
X-813465Y845227D01*
X-813409Y845199D01*
X-813353Y845199D01*
X-813184Y845227D02*
X-813128Y845199D01*
X-813016Y845199D01*
X-812959Y845227D01*
X-812931Y845283D01*
X-812931Y845311D01*
X-812959Y845367D01*
X-813016Y845395D01*
X-813100Y845395D01*
X-813156Y845423D01*
X-813184Y-845451D01*
X-813184Y-845423D01*
X-813156Y-845367D01*
X-813100Y-845339D01*
X-813016Y-845339D01*
X-812959Y-845367D01*
X-812257Y-845114D02*
X-812763Y845058D01*
X-812116Y-845339D02*
X-811976Y845199D01*
X-811836Y-845339D01*
X-811611Y845199D02*
X-811611Y-845142D01*
X-811358Y845199D02*
X-811358Y-845423D01*
X-811386Y-845367D01*
X-811442Y-845339D01*
X-811526Y-845339D01*
X-811583Y-845367D01*
X-811611Y-845395D01*
X-811161Y-845339D02*
X-810936Y-845339D01*
X-811077Y845199D02*
X-811077Y-845227D01*
X-811049Y-845171D01*
X-810993Y-845142D01*
X-810936Y-845142D01*
X-810740Y845199D02*
X-810740Y-845339D01*
X-810740Y-845451D02*
X-810712Y-845395D01*
X-810684Y-845367D01*
X-810627Y-845339D01*
X-810571Y-845339D01*
X-810431Y845199D02*
X-810122Y-845339D01*
X-810431Y-845339D02*
X-810122Y845199D01*
X-809588Y845199D02*
X-809925Y845199D01*
X-809756Y845199D02*
X-809756Y-845142D01*
X-809813Y-845227D01*
X-809869Y-845283D01*
X-809925Y-845311D01*
X-808914Y-845114D02*
X-809419Y845058D01*
X-808717Y845199D02*
X-808717Y-845142D01*
X-808464Y845199D02*
X-808464Y-845423D01*
X-808492Y-845367D01*
X-808548Y-845339D01*
X-808633Y-845339D01*
X-808689Y-845367D01*
X-808717Y-845395D01*
X-807930Y845199D02*
X-807930Y-845423D01*
X-807958Y-845367D01*
X-808015Y-845339D01*
X-808127Y-845339D01*
X-808183Y-845367D01*
X-807930Y845227D02*
X-807986Y845199D01*
X-808127Y845199D01*
X-808183Y845227D01*
X-808211Y845283D01*
X-808211Y845339D01*
X-808183Y845395D01*
X-808127Y845423D01*
X-807986Y845423D01*
X-807930Y845451D01*
X-807649Y845199D02*
X-807649Y-845339D01*
X-807649Y-845451D02*
X-807621Y-845395D01*
X-807593Y-845367D01*
X-807537Y-845339D01*
X-807481Y-845339D01*
X-807031Y845199D02*
X-807031Y-845142D01*
X-807031Y845227D02*
X-807087Y845199D01*
X-807200Y845199D01*
X-807256Y845227D01*
X-807284Y845255D01*
X-807312Y845311D01*
X-807312Y-845451D01*
X-807284Y-845395D01*
X-807256Y-845367D01*
X-807200Y-845339D01*
X-807087Y-845339D01*
X-807031Y-845367D01*
X-806806Y-845339D02*
X-806694Y845199D01*
X-806582Y-845451D01*
X-806469Y845199D01*
X-806357Y-845339D01*
X-805879Y845199D02*
X-805879Y-845423D01*
X-805907Y-845367D01*
X-805964Y-845339D01*
X-806076Y-845339D01*
X-806132Y-845367D01*
X-805879Y845227D02*
X-805936Y845199D01*
X-806076Y845199D01*
X-806132Y845227D01*
X-806160Y845283D01*
X-806160Y845339D01*
X-806132Y845395D01*
X-806076Y845423D01*
X-805936Y845423D01*
X-805879Y845451D01*
X-805598Y845199D02*
X-805598Y-845339D01*
X-805598Y-845451D02*
X-805570Y-845395D01*
X-805542Y-845367D01*
X-805486Y-845339D01*
X-805430Y-845339D01*
X-805008Y845227D02*
X-805065Y845199D01*
X-805177Y845199D01*
X-805233Y845227D01*
X-805261Y845283D01*
X-805261Y-845423D01*
X-805233Y-845367D01*
X-805177Y-845339D01*
X-805065Y-845339D01*
X-805008Y-845367D01*
X-804980Y-845423D01*
X-804980Y845451D01*
X-805261Y845395D01*
X-804306Y-845114D02*
X-804812Y845058D01*
X-803856Y845199D02*
X-803856Y-845423D01*
X-803885Y-845367D01*
X-803941Y-845339D01*
X-804053Y-845339D01*
X-804109Y-845367D01*
X-803856Y845227D02*
X-803913Y845199D01*
X-804053Y845199D01*
X-804109Y845227D01*
X-804137Y845283D01*
X-804137Y845339D01*
X-804109Y845395D01*
X-804053Y845423D01*
X-803913Y845423D01*
X-803856Y845451D01*
X-803576Y-845339D02*
X-803576Y845002D01*
X-803576Y-845367D02*
X-803519Y-845339D01*
X-803407Y-845339D01*
X-803351Y-845367D01*
X-803323Y-845395D01*
X-803295Y-845451D01*
X-803295Y845311D01*
X-803323Y845255D01*
X-803351Y845227D01*
X-803407Y845199D01*
X-803519Y845199D01*
X-803576Y845227D01*
X-803042Y845199D02*
X-803042Y-845339D01*
X-803042Y-845451D02*
X-803014Y-845395D01*
X-802986Y-845367D01*
X-802929Y-845339D01*
X-802873Y-845339D01*
X-802705Y845227D02*
X-802648Y845199D01*
X-802536Y845199D01*
X-802480Y845227D01*
X-802452Y845283D01*
X-802452Y845311D01*
X-802480Y845367D01*
X-802536Y845395D01*
X-802620Y845395D01*
X-802676Y845423D01*
X-802705Y-845451D01*
X-802705Y-845423D01*
X-802676Y-845367D01*
X-802620Y-845339D01*
X-802536Y-845339D01*
X-802480Y-845367D01*
X-802283Y-845339D02*
X-802058Y-845339D01*
X-802199Y-845142D02*
X-802199Y845283D01*
X-802171Y845227D01*
X-802115Y845199D01*
X-802058Y845199D01*
X-801862Y845199D02*
X-801862Y-845339D01*
X-801862Y-845451D02*
X-801834Y-845395D01*
X-801806Y-845367D01*
X-801749Y-845339D01*
X-801693Y-845339D01*
X-801244Y845199D02*
X-801244Y-845423D01*
X-801272Y-845367D01*
X-801328Y-845339D01*
X-801440Y-845339D01*
X-801496Y-845367D01*
X-801244Y845227D02*
X-801300Y845199D01*
X-801440Y845199D01*
X-801496Y845227D01*
X-801525Y845283D01*
X-801525Y845339D01*
X-801496Y845395D01*
X-801440Y845423D01*
X-801300Y845423D01*
X-801244Y845451D01*
X-800710Y845227D02*
X-800766Y845199D01*
X-800878Y845199D01*
X-800935Y845227D01*
X-800963Y845255D01*
X-800991Y845311D01*
X-800991Y-845451D01*
X-800963Y-845395D01*
X-800935Y-845367D01*
X-800878Y-845339D01*
X-800766Y-845339D01*
X-800710Y-845367D01*
X-800457Y845199D02*
X-800457Y-845142D01*
X-800401Y845423D02*
X-800232Y845199D01*
X-800232Y-845339D02*
X-800457Y845367D01*
X-799755Y845227D02*
X-799811Y845199D01*
X-799923Y845199D01*
X-799979Y845227D01*
X-800007Y845283D01*
X-800007Y-845423D01*
X-799979Y-845367D01*
X-799923Y-845339D01*
X-799811Y-845339D01*
X-799755Y-845367D01*
X-799726Y-845423D01*
X-799726Y845451D01*
X-800007Y845395D01*
X-799474Y845199D02*
X-799474Y-845339D01*
X-799474Y-845451D02*
X-799446Y-845395D01*
X-799417Y-845367D01*
X-799361Y-845339D01*
X-799305Y-845339D01*
X-798687Y-845114D02*
X-799193Y845058D01*
X-798237Y845199D02*
X-798237Y-845423D01*
X-798266Y-845367D01*
X-798322Y-845339D01*
X-798434Y-845339D01*
X-798490Y-845367D01*
X-798237Y845227D02*
X-798294Y845199D01*
X-798434Y845199D01*
X-798490Y845227D01*
X-798518Y845283D01*
X-798518Y845339D01*
X-798490Y845395D01*
X-798434Y845423D01*
X-798294Y845423D01*
X-798237Y845451D01*
X-797956Y-845339D02*
X-797956Y845002D01*
X-797956Y-845367D02*
X-797900Y-845339D01*
X-797788Y-845339D01*
X-797732Y-845367D01*
X-797704Y-845395D01*
X-797676Y-845451D01*
X-797676Y845311D01*
X-797704Y845255D01*
X-797732Y845227D01*
X-797788Y845199D01*
X-797900Y845199D01*
X-797956Y845227D01*
X-797423Y845199D02*
X-797423Y-845339D01*
X-797423Y-845451D02*
X-797395Y-845395D01*
X-797366Y-845367D01*
X-797310Y-845339D01*
X-797254Y-845339D01*
X-797086Y845227D02*
X-797029Y845199D01*
X-796917Y845199D01*
X-796861Y845227D01*
X-796833Y845283D01*
X-796833Y845311D01*
X-796861Y845367D01*
X-796917Y845395D01*
X-797001Y845395D01*
X-797057Y845423D01*
X-797086Y-845451D01*
X-797086Y-845423D01*
X-797057Y-845367D01*
X-797001Y-845339D01*
X-796917Y-845339D01*
X-796861Y-845367D01*
X-796580Y845255D02*
X-796552Y845227D01*
X-796580Y845199D01*
X-796608Y845227D01*
X-796580Y845255D01*
X-796580Y845199D01*
X-796299Y845199D02*
X-796299Y-845142D01*
X-796243Y845423D02*
X-796074Y845199D01*
X-796074Y-845339D02*
X-796299Y845367D01*
X-795821Y845199D02*
X-795821Y-845339D01*
X-795821Y-845142D02*
X-795849Y-845171D01*
X-795821Y-845199D01*
X-795793Y-845171D01*
X-795821Y-845142D01*
X-795821Y-845199D01*
X-795287Y845227D02*
X-795344Y845199D01*
X-795456Y845199D01*
X-795512Y845227D01*
X-795540Y845255D01*
X-795568Y845311D01*
X-795568Y-845451D01*
X-795540Y-845395D01*
X-795512Y-845367D01*
X-795456Y-845339D01*
X-795344Y-845339D01*
X-795287Y-845367D01*
X-794782Y845199D02*
X-794782Y-845423D01*
X-794810Y-845367D01*
X-794866Y-845339D01*
X-794978Y-845339D01*
X-795035Y-845367D01*
X-794782Y845227D02*
X-794838Y845199D01*
X-794978Y845199D01*
X-795035Y845227D01*
X-795063Y845283D01*
X-795063Y845339D01*
X-795035Y845395D01*
X-794978Y845423D01*
X-794838Y845423D01*
X-794782Y845451D01*
X-794248Y845199D02*
X-794248Y-845142D01*
X-794248Y845227D02*
X-794304Y845199D01*
X-794416Y845199D01*
X-794473Y845227D01*
X-794501Y845255D01*
X-794529Y845311D01*
X-794529Y-845451D01*
X-794501Y-845395D01*
X-794473Y-845367D01*
X-794416Y-845339D01*
X-794304Y-845339D01*
X-794248Y-845367D01*
X-794107Y845142D02*
X-793658Y845142D01*
X-793517Y-845339D02*
X-793517Y845002D01*
X-793517Y-845367D02*
X-793461Y-845339D01*
X-793349Y-845339D01*
X-793293Y-845367D01*
X-793265Y-845395D01*
X-793236Y-845451D01*
X-793236Y845311D01*
X-793265Y845255D01*
X-793293Y845227D01*
X-793349Y845199D01*
X-793461Y845199D01*
X-793517Y845227D01*
X-792731Y845227D02*
X-792787Y845199D01*
X-792899Y845199D01*
X-792956Y845227D01*
X-792984Y845255D01*
X-793012Y845311D01*
X-793012Y-845451D01*
X-792984Y-845395D01*
X-792956Y-845367D01*
X-792899Y-845339D01*
X-792787Y-845339D01*
X-792731Y-845367D01*
X-792478Y845199D02*
X-792478Y-845142D01*
X-792478Y-845367D02*
X-792422Y-845339D01*
X-792309Y-845339D01*
X-792253Y-845367D01*
X-792225Y-845395D01*
X-792197Y-845451D01*
X-792197Y845311D01*
X-792225Y845255D01*
X-792253Y845227D01*
X-792309Y845199D01*
X-792422Y845199D01*
X-792478Y845227D01*
X-845128Y-845423D02*
X-845325Y-845423D01*
X-845325Y845199D02*
X-845325Y-845142D01*
X-845044Y-845142D01*
X-844819Y845199D02*
X-844819Y-845339D01*
X-844819Y-845142D02*
X-844847Y-845171D01*
X-844819Y-845199D01*
X-844791Y-845171D01*
X-844819Y-845142D01*
X-844819Y-845199D01*
X-844454Y845199D02*
X-844510Y845227D01*
X-844538Y845283D01*
X-844538Y-845142D01*
X-844005Y845227D02*
X-844061Y845199D01*
X-844173Y845199D01*
X-844229Y845227D01*
X-844257Y845283D01*
X-844257Y-845423D01*
X-844229Y-845367D01*
X-844173Y-845339D01*
X-844061Y-845339D01*
X-844005Y-845367D01*
X-843976Y-845423D01*
X-843976Y845451D01*
X-844257Y845395D01*
X-843724Y845255D02*
X-843696Y845227D01*
X-843724Y845199D01*
X-843752Y845227D01*
X-843724Y845255D01*
X-843724Y845199D01*
X-843724Y-845367D02*
X-843696Y-845395D01*
X-843724Y-845423D01*
X-843752Y-845395D01*
X-843724Y-845367D01*
X-843724Y-845423D01*
G54D11*
X-845409Y-845142D02*
X-845072Y-845142D01*
X-845241Y845199D02*
X-845241Y-845142D01*
X-844876Y845199D02*
X-844876Y-845339D01*
X-844876Y-845142D02*
X-844904Y-845171D01*
X-844876Y-845199D01*
X-844847Y-845171D01*
X-844876Y-845142D01*
X-844876Y-845199D01*
X-844679Y-845339D02*
X-844454Y-845339D01*
X-844595Y-845142D02*
X-844595Y845283D01*
X-844566Y845227D01*
X-844510Y845199D01*
X-844454Y845199D01*
X-844173Y845199D02*
X-844229Y845227D01*
X-844257Y845283D01*
X-844257Y-845142D01*
X-843724Y845227D02*
X-843780Y845199D01*
X-843892Y845199D01*
X-843948Y845227D01*
X-843976Y845283D01*
X-843976Y-845423D01*
X-843948Y-845367D01*
X-843892Y-845339D01*
X-843780Y-845339D01*
X-843724Y-845367D01*
X-843696Y-845423D01*
X-843696Y845451D01*
X-843976Y845395D01*
X-843443Y845255D02*
X-843415Y845227D01*
X-843443Y845199D01*
X-843471Y845227D01*
X-843443Y845255D01*
X-843443Y845199D01*
X-843443Y-845367D02*
X-843415Y-845395D01*
X-843443Y-845423D01*
X-843471Y-845395D01*
X-843443Y-845367D01*
X-843443Y-845423D01*
G54D10*
X-845325Y845199D02*
X-845325Y-845142D01*
X-844791Y845199D02*
X-844791Y-845142D01*
X-844791Y845227D02*
X-844847Y845199D01*
X-844960Y845199D01*
X-845016Y845227D01*
X-845044Y845255D01*
X-845072Y845311D01*
X-845072Y-845451D01*
X-845044Y-845395D01*
X-845016Y-845367D01*
X-844960Y-845339D01*
X-844847Y-845339D01*
X-844791Y-845367D01*
X-844510Y845255D02*
X-844482Y845227D01*
X-844510Y845199D01*
X-844538Y845227D01*
X-844510Y845255D01*
X-844510Y845199D01*
X-844510Y-845367D02*
X-844482Y-845395D01*
X-844510Y-845423D01*
X-844538Y-845395D01*
X-844510Y-845367D01*
X-844510Y-845423D01*
X-843471Y845199D02*
X-843808Y845199D01*
X-843639Y845199D02*
X-843639Y-845142D01*
X-843696Y-845227D01*
X-843752Y-845283D01*
X-843808Y-845311D01*
X-842796Y-845114D02*
X-843302Y845058D01*
X-842291Y845199D02*
X-842628Y845199D01*
X-842459Y845199D02*
X-842459Y-845142D01*
X-842516Y-845227D01*
X-842572Y-845283D01*
X-842628Y-845311D01*
X-845353Y845227D02*
X-845269Y845199D01*
X-845128Y845199D01*
X-845072Y845227D01*
X-845044Y845255D01*
X-845016Y845311D01*
X-845016Y845367D01*
X-845044Y845423D01*
X-845072Y845451D01*
X-845128Y-845451D01*
X-845241Y-845423D01*
X-845297Y-845395D01*
X-845325Y-845367D01*
X-845353Y-845311D01*
X-845353Y-845255D01*
X-845325Y-845199D01*
X-845297Y-845171D01*
X-845241Y-845142D01*
X-845100Y-845142D01*
X-845016Y-845171D01*
X-844763Y845199D02*
X-844763Y-845339D01*
X-844763Y-845142D02*
X-844791Y-845171D01*
X-844763Y-845199D01*
X-844735Y-845171D01*
X-844763Y-845142D01*
X-844763Y-845199D01*
X-844538Y-845339D02*
X-844229Y-845339D01*
X-844538Y845199D01*
X-844229Y845199D01*
X-843780Y845227D02*
X-843836Y845199D01*
X-843948Y845199D01*
X-844005Y845227D01*
X-844033Y845283D01*
X-844033Y-845423D01*
X-844005Y-845367D01*
X-843948Y-845339D01*
X-843836Y-845339D01*
X-843780Y-845367D01*
X-843752Y-845423D01*
X-843752Y845451D01*
X-844033Y845395D01*
X-843499Y845255D02*
X-843471Y845227D01*
X-843499Y845199D01*
X-843527Y845227D01*
X-843499Y845255D01*
X-843499Y845199D01*
X-843499Y-845367D02*
X-843471Y-845395D01*
X-843499Y-845423D01*
X-843527Y-845395D01*
X-843499Y-845367D01*
X-843499Y-845423D01*
X-842796Y845367D02*
X-842516Y845367D01*
X-842853Y845199D02*
X-842656Y-845142D01*
X-842459Y845199D01*
X-842010Y-845339D02*
X-842010Y845199D01*
X-842150Y-845114D02*
X-842291Y845395D01*
X-841926Y845395D01*
G54D11*
X-844988Y845199D02*
X-845185Y-845451D01*
X-845325Y845199D02*
X-845325Y-845142D01*
X-845100Y-845142D01*
X-845044Y-845171D01*
X-845016Y-845199D01*
X-844988Y-845255D01*
X-844988Y-845339D01*
X-845016Y-845395D01*
X-845044Y-845423D01*
X-845100Y-845451D01*
X-845325Y-845451D01*
X-844510Y845227D02*
X-844566Y845199D01*
X-844679Y845199D01*
X-844735Y845227D01*
X-844763Y845283D01*
X-844763Y-845423D01*
X-844735Y-845367D01*
X-844679Y-845339D01*
X-844566Y-845339D01*
X-844510Y-845367D01*
X-844482Y-845423D01*
X-844482Y845451D01*
X-844763Y845395D01*
X-844286Y-845339D02*
X-844145Y845199D01*
X-844005Y-845339D01*
X-843780Y845255D02*
X-843752Y845227D01*
X-843780Y845199D01*
X-843808Y845227D01*
X-843780Y845255D01*
X-843780Y845199D01*
X-843780Y-845367D02*
X-843752Y-845395D01*
X-843780Y-845423D01*
X-843808Y-845395D01*
X-843780Y-845367D01*
X-843780Y-845423D01*
G54D10*
X-845325Y845199D02*
X-845325Y-845142D01*
X-844988Y845199D02*
X-845241Y-845395D01*
X-844988Y-845142D02*
X-845325Y845451D01*
X-844735Y845199D02*
X-844735Y-845339D01*
X-844735Y-845142D02*
X-844763Y-845171D01*
X-844735Y-845199D01*
X-844707Y-845171D01*
X-844735Y-845142D01*
X-844735Y-845199D01*
X-844117Y845255D02*
X-844145Y845227D01*
X-844229Y845199D01*
X-844286Y845199D01*
X-844370Y845227D01*
X-844426Y845283D01*
X-844454Y845339D01*
X-844482Y845451D01*
X-844482Y-845395D01*
X-844454Y-845283D01*
X-844426Y-845227D01*
X-844370Y-845171D01*
X-844286Y-845142D01*
X-844229Y-845142D01*
X-844145Y-845171D01*
X-844117Y-845199D01*
X-843611Y845199D02*
X-843611Y-845423D01*
X-843639Y-845367D01*
X-843696Y-845339D01*
X-843808Y-845339D01*
X-843864Y-845367D01*
X-843611Y845227D02*
X-843667Y845199D01*
X-843808Y845199D01*
X-843864Y845227D01*
X-843892Y845283D01*
X-843892Y845339D01*
X-843864Y845395D01*
X-843808Y845423D01*
X-843667Y845423D01*
X-843611Y845451D01*
X-843077Y845199D02*
X-843077Y-845142D01*
X-843077Y845227D02*
X-843134Y845199D01*
X-843246Y845199D01*
X-843302Y845227D01*
X-843330Y845255D01*
X-843358Y845311D01*
X-843358Y-845451D01*
X-843330Y-845395D01*
X-843302Y-845367D01*
X-843246Y-845339D01*
X-843134Y-845339D01*
X-843077Y-845367D01*
X-842347Y-845423D02*
X-842150Y-845423D01*
X-842066Y845199D02*
X-842347Y845199D01*
X-842347Y-845142D01*
X-842066Y-845142D01*
X-841813Y845255D02*
X-841785Y845227D01*
X-841813Y845199D01*
X-841841Y845227D01*
X-841813Y845255D01*
X-841813Y845199D01*
X-841532Y845199D02*
X-841532Y-845142D01*
X-841392Y-845142D01*
X-841307Y-845171D01*
X-841251Y-845227D01*
X-841223Y-845283D01*
X-841195Y-845395D01*
X-841195Y845451D01*
X-841223Y845339D01*
X-841251Y845283D01*
X-841307Y845227D01*
X-841392Y845199D01*
X-841532Y845199D01*
X-840942Y845255D02*
X-840914Y845227D01*
X-840942Y845199D01*
X-840970Y845227D01*
X-840942Y845255D01*
X-840942Y845199D01*
X-840689Y845367D02*
X-840408Y845367D01*
X-840746Y845199D02*
X-840549Y-845142D01*
X-840352Y845199D01*
X-840156Y845255D02*
X-840127Y845227D01*
X-840156Y845199D01*
X-840184Y845227D01*
X-840156Y845255D01*
X-840156Y845199D01*
X-838976Y-845339D02*
X-838976Y845002D01*
X-838976Y-845367D02*
X-838919Y-845339D01*
X-838807Y-845339D01*
X-838751Y-845367D01*
X-838723Y-845395D01*
X-838695Y-845451D01*
X-838695Y845311D01*
X-838723Y845255D01*
X-838751Y845227D01*
X-838807Y845199D01*
X-838919Y845199D01*
X-838976Y845227D01*
X-838189Y845227D02*
X-838245Y845199D01*
X-838357Y845199D01*
X-838414Y845227D01*
X-838442Y845255D01*
X-838470Y845311D01*
X-838470Y-845451D01*
X-838442Y-845395D01*
X-838414Y-845367D01*
X-838357Y-845339D01*
X-838245Y-845339D01*
X-838189Y-845367D01*
X-837936Y845199D02*
X-837936Y-845142D01*
X-837936Y-845367D02*
X-837880Y-845339D01*
X-837767Y-845339D01*
X-837711Y-845367D01*
X-837683Y-845395D01*
X-837655Y-845451D01*
X-837655Y845311D01*
X-837683Y845255D01*
X-837711Y845227D01*
X-837767Y845199D01*
X-837880Y845199D01*
X-837936Y845227D01*
X-837402Y-845339D02*
X-837402Y845199D01*
X-837402Y-845395D02*
X-837374Y-845367D01*
X-837318Y-845339D01*
X-837234Y-845339D01*
X-837177Y-845367D01*
X-837149Y-845423D01*
X-837149Y845199D01*
X-836644Y845227D02*
X-836700Y845199D01*
X-836812Y845199D01*
X-836868Y845227D01*
X-836896Y845283D01*
X-836896Y-845423D01*
X-836868Y-845367D01*
X-836812Y-845339D01*
X-836700Y-845339D01*
X-836644Y-845367D01*
X-836616Y-845423D01*
X-836616Y845451D01*
X-836896Y845395D01*
X-836419Y-845339D02*
X-836306Y845199D01*
X-836194Y-845451D01*
X-836082Y845199D01*
X-835969Y-845339D01*
X-835126Y844974D02*
X-835155Y845002D01*
X-835211Y845086D01*
X-835239Y845142D01*
X-835267Y845227D01*
X-835295Y845367D01*
X-835295Y-845451D01*
X-835267Y-845311D01*
X-835239Y-845227D01*
X-835211Y-845171D01*
X-835155Y-845086D01*
X-835126Y-845058D01*
X-834930Y-845199D02*
X-834902Y-845171D01*
X-834846Y-845142D01*
X-834705Y-845142D01*
X-834649Y-845171D01*
X-834621Y-845199D01*
X-834593Y-845255D01*
X-834593Y-845311D01*
X-834621Y-845395D01*
X-834958Y845199D01*
X-834593Y845199D01*
X-834227Y-845142D02*
X-834171Y-845142D01*
X-834115Y-845171D01*
X-834087Y-845199D01*
X-834059Y-845255D01*
X-834031Y-845367D01*
X-834031Y845423D01*
X-834059Y845311D01*
X-834087Y845255D01*
X-834115Y845227D01*
X-834171Y845199D01*
X-834227Y845199D01*
X-834284Y845227D01*
X-834312Y845255D01*
X-834340Y845311D01*
X-834368Y845423D01*
X-834368Y-845367D01*
X-834340Y-845255D01*
X-834312Y-845199D01*
X-834284Y-845171D01*
X-834227Y-845142D01*
X-833469Y845199D02*
X-833806Y845199D01*
X-833637Y845199D02*
X-833637Y-845142D01*
X-833694Y-845227D01*
X-833750Y-845283D01*
X-833806Y-845311D01*
X-833272Y-845142D02*
X-832907Y-845142D01*
X-833104Y-845367D01*
X-833019Y-845367D01*
X-832963Y-845395D01*
X-832935Y-845423D01*
X-832907Y845451D01*
X-832907Y845311D01*
X-832935Y845255D01*
X-832963Y845227D01*
X-833019Y845199D01*
X-833188Y845199D01*
X-833244Y845227D01*
X-833272Y845255D01*
X-832654Y845423D02*
X-832205Y845423D01*
X-831924Y845199D02*
X-831924Y-845339D01*
X-831924Y-845395D02*
X-831896Y-845367D01*
X-831839Y-845339D01*
X-831755Y-845339D01*
X-831699Y-845367D01*
X-831671Y-845423D01*
X-831671Y845199D01*
X-831671Y-845423D02*
X-831643Y-845367D01*
X-831586Y-845339D01*
X-831502Y-845339D01*
X-831446Y-845367D01*
X-831418Y-845423D01*
X-831418Y845199D01*
X-830884Y845199D02*
X-830884Y-845423D01*
X-830912Y-845367D01*
X-830968Y-845339D01*
X-831081Y-845339D01*
X-831137Y-845367D01*
X-830884Y845227D02*
X-830940Y845199D01*
X-831081Y845199D01*
X-831137Y845227D01*
X-831165Y845283D01*
X-831165Y845339D01*
X-831137Y845395D01*
X-831081Y845423D01*
X-830940Y845423D01*
X-830884Y845451D01*
X-830603Y845199D02*
X-830603Y-845339D01*
X-830603Y-845451D02*
X-830575Y-845395D01*
X-830547Y-845367D01*
X-830491Y-845339D01*
X-830435Y-845339D01*
X-830238Y845423D02*
X-829788Y845423D01*
X-829198Y845199D02*
X-829536Y845199D01*
X-829367Y845199D02*
X-829367Y-845142D01*
X-829423Y-845227D01*
X-829479Y-845283D01*
X-829536Y-845311D01*
X-829002Y-845142D02*
X-828636Y-845142D01*
X-828833Y-845367D01*
X-828749Y-845367D01*
X-828693Y-845395D01*
X-828665Y-845423D01*
X-828636Y845451D01*
X-828636Y845311D01*
X-828665Y845255D01*
X-828693Y845227D01*
X-828749Y845199D01*
X-828917Y845199D01*
X-828974Y845227D01*
X-829002Y845255D01*
X-828440Y844974D02*
X-828412Y845002D01*
X-828356Y845086D01*
X-828327Y845142D01*
X-828299Y845227D01*
X-828271Y845367D01*
X-828271Y-845451D01*
X-828299Y-845311D01*
X-828327Y-845227D01*
X-828356Y-845171D01*
X-828412Y-845086D01*
X-828440Y-845058D01*
X-827990Y845423D02*
X-827541Y845423D01*
X-827344Y-845339D02*
X-827119Y-845339D01*
X-827260Y-845142D02*
X-827260Y845283D01*
X-827232Y845227D01*
X-827176Y845199D01*
X-827119Y845199D01*
X-826698Y845227D02*
X-826754Y845199D01*
X-826866Y845199D01*
X-826923Y845227D01*
X-826951Y845283D01*
X-826951Y-845423D01*
X-826923Y-845367D01*
X-826866Y-845339D01*
X-826754Y-845339D01*
X-826698Y-845367D01*
X-826670Y-845423D01*
X-826670Y845451D01*
X-826951Y845395D01*
X-826445Y845227D02*
X-826389Y845199D01*
X-826276Y845199D01*
X-826220Y845227D01*
X-826192Y845283D01*
X-826192Y845311D01*
X-826220Y845367D01*
X-826276Y845395D01*
X-826361Y845395D01*
X-826417Y845423D01*
X-826445Y-845451D01*
X-826445Y-845423D01*
X-826417Y-845367D01*
X-826361Y-845339D01*
X-826276Y-845339D01*
X-826220Y-845367D01*
X-826024Y-845339D02*
X-825799Y-845339D01*
X-825939Y-845142D02*
X-825939Y845283D01*
X-825911Y845227D01*
X-825855Y845199D01*
X-825799Y845199D01*
X-825602Y845199D02*
X-825602Y-845339D01*
X-825602Y-845142D02*
X-825630Y-845171D01*
X-825602Y-845199D01*
X-825574Y-845171D01*
X-825602Y-845142D01*
X-825602Y-845199D01*
X-825321Y-845339D02*
X-825321Y845199D01*
X-825321Y-845395D02*
X-825293Y-845367D01*
X-825237Y-845339D01*
X-825153Y-845339D01*
X-825096Y-845367D01*
X-825068Y-845423D01*
X-825068Y845199D01*
X-824535Y-845339D02*
X-824535Y845114D01*
X-824563Y845058D01*
X-824591Y845030D01*
X-824647Y845002D01*
X-824731Y845002D01*
X-824787Y845030D01*
X-824535Y845227D02*
X-824591Y845199D01*
X-824703Y845199D01*
X-824759Y845227D01*
X-824787Y845255D01*
X-824816Y845311D01*
X-824816Y-845451D01*
X-824787Y-845395D01*
X-824759Y-845367D01*
X-824703Y-845339D01*
X-824591Y-845339D01*
X-824535Y-845367D01*
X-845325Y845199D02*
X-845325Y-845142D01*
X-845185Y-845142D01*
X-845100Y-845171D01*
X-845044Y-845227D01*
X-845016Y-845283D01*
X-844988Y-845395D01*
X-844988Y845451D01*
X-845016Y845339D01*
X-845044Y845283D01*
X-845100Y845227D01*
X-845185Y845199D01*
X-845325Y845199D01*
X-844482Y845199D02*
X-844482Y-845423D01*
X-844510Y-845367D01*
X-844566Y-845339D01*
X-844679Y-845339D01*
X-844735Y-845367D01*
X-844482Y845227D02*
X-844538Y845199D01*
X-844679Y845199D01*
X-844735Y845227D01*
X-844763Y845283D01*
X-844763Y845339D01*
X-844735Y845395D01*
X-844679Y845423D01*
X-844538Y845423D01*
X-844482Y845451D01*
X-844286Y-845339D02*
X-844061Y-845339D01*
X-844201Y-845142D02*
X-844201Y845283D01*
X-844173Y845227D01*
X-844117Y845199D01*
X-844061Y845199D01*
X-843639Y845227D02*
X-843696Y845199D01*
X-843808Y845199D01*
X-843864Y845227D01*
X-843892Y845283D01*
X-843892Y-845423D01*
X-843864Y-845367D01*
X-843808Y-845339D01*
X-843696Y-845339D01*
X-843639Y-845367D01*
X-843611Y-845423D01*
X-843611Y845451D01*
X-843892Y845395D01*
X-843358Y845255D02*
X-843330Y845227D01*
X-843358Y845199D01*
X-843386Y845227D01*
X-843358Y845255D01*
X-843358Y845199D01*
X-843358Y-845367D02*
X-843330Y-845395D01*
X-843358Y-845423D01*
X-843386Y-845395D01*
X-843358Y-845367D01*
X-843358Y-845423D01*
X-845466Y845466D02*
X-845466Y845466D01*
X-845466Y845466D02*
X-845466Y845466D01*
X-845466Y845466D02*
X-845466Y845466D01*
M02*
