M48
;DRILL file {Pcbnew (2013-mar-13)-testing} date Tue 03 Dec 2013 12:08:26 AM EET
;FORMAT={2:4/ absolute / inch / keep zeros}
FMAT,2
INCH,TZ
T1C0.016
T2C0.032
T3C0.039
T4C0.039
T5C0.039
%
G90
G05
M72
T1
X038600Y-042800
X039700Y-042683
X040450Y-037450
X040800Y-038400
X041550Y-047400
X041600Y-032600
X041750Y-035425
X042200Y-041050
X042400Y-032600
X042500Y-043000
X042500Y-044000
X042500Y-047000
X042600Y-035425
X043000Y-045000
X043000Y-046000
X043150Y-047400
X043400Y-032600
X043450Y-035850
X043500Y-043000
X043500Y-044000
X043500Y-045000
X043500Y-046000
X043500Y-047000
X043530Y-034670
X044250Y-035425
X044350Y-039555
X044400Y-032600
X044400Y-036400
X044500Y-044000
X044500Y-045000
X044500Y-046000
X044500Y-047000
X044800Y-047400
X044820Y-043320
X044860Y-041350
X045040Y-034630
X045200Y-036400
X045300Y-039750
X045400Y-032600
X045880Y-041360
X046000Y-042500
X046000Y-044000
X046000Y-046000
X046050Y-038950
X046150Y-035934
X046180Y-034630
X046400Y-032600
X046750Y-036500
X046800Y-038800
X046800Y-040600
X046800Y-047400
X047250Y-032600
X047250Y-035230
X047265Y-034575
X047265Y-035940
X047350Y-043300
X047800Y-038600
X047800Y-039800
X048950Y-036650
X049200Y-047400
X049600Y-034710
X049800Y-038400
X050250Y-032700
X051150Y-035730
X051170Y-034900
X051200Y-032550
X051200Y-037800
X051200Y-038400
X051200Y-040200
X051500Y-047400
X051550Y-037000
X052170Y-034900
X052300Y-032550
X052400Y-037800
X052550Y-036400
X052800Y-042200
X053250Y-040200
X053350Y-034750
X053375Y-032970
X053390Y-032580
X053550Y-036250
X053550Y-047400
X053600Y-037800
X053650Y-035750
X053890Y-045480
X054500Y-032500
X055200Y-037800
X055305Y-036260
X055600Y-047400
X055800Y-036250
X056085Y-044385
X056400Y-037800
X056450Y-039100
X056500Y-032500
X056600Y-045640
X056780Y-036460
X057075Y-043365
X057150Y-047400
X058230Y-036490
X058500Y-032500
X058970Y-044440
X058970Y-045500
X059350Y-035600
X059450Y-047400
X059800Y-037550
X060100Y-036300
X060200Y-044220
X060500Y-032500
X060810Y-041545
X061350Y-047400
X061580Y-046230
X061900Y-041600
X062000Y-032500
X062050Y-040150
X062640Y-039140
X062860Y-042760
X062900Y-035425
X063300Y-034900
X063300Y-040940
X063400Y-033450
X063400Y-034250
X063400Y-047400
X063450Y-032500
X063735Y-035415
X064200Y-045200
X064450Y-035500
X064650Y-036300
X064800Y-032550
X064900Y-047400
X065510Y-033470
X065510Y-035490
X065510Y-036500
X065510Y-037500
X065510Y-039510
X065510Y-040470
X065510Y-041490
X065540Y-034400
X065540Y-038480
X065540Y-042370
X066300Y-047400
X066550Y-032550
X066767Y-045750
X066800Y-043600
X067185Y-033670
X067200Y-038900
X067670Y-037580
X067670Y-039330
X067680Y-038120
X067800Y-042600
X067850Y-047400
X067910Y-037220
X067920Y-036550
X068800Y-032500
X069250Y-047400
X069400Y-039500
X069400Y-040600
X069680Y-042965
X069850Y-035850
X070240Y-043020
X070850Y-047400
X070905Y-045450
X071200Y-039800
X071250Y-032500
X071250Y-038830
X071750Y-035850
X071950Y-039950
X072100Y-036350
X072100Y-038050
X072350Y-047400
X072470Y-038700
X072800Y-039300
X072800Y-039800
X072900Y-044850
X073350Y-032500
X073405Y-041960
X073750Y-041700
X073950Y-047350
X074000Y-045733
X074100Y-036100
X074250Y-036500
X074800Y-041600
X074960Y-037470
X075000Y-036980
X075000Y-044600
X075210Y-040665
X075300Y-032500
X075400Y-039475
X075510Y-036000
X075530Y-034970
X075800Y-044600
X075850Y-047300
X076000Y-040400
X076000Y-042600
X076030Y-034160
X076060Y-032690
X077350Y-042600
X077600Y-044000
X077700Y-032500
X077700Y-034050
X077700Y-035700
X077700Y-037450
X077700Y-039150
X077700Y-040450
X077700Y-042350
X077700Y-046050
X077700Y-047300
T2
X049350Y-039350
X050350Y-039350
X054050Y-041200
X054050Y-043200
X055100Y-038450
X055100Y-039450
X055100Y-040450
X055100Y-041450
X055100Y-042450
X055100Y-043450
X055100Y-044450
X055100Y-045450
X058100Y-038450
X058100Y-039450
X058100Y-040450
X058100Y-041450
X058100Y-042450
X058100Y-043450
X058100Y-044450
X058100Y-045450
X068300Y-033750
X069300Y-033750
X070300Y-033750
X071300Y-033750
X072300Y-033750
X073300Y-033750
T3
X076750Y-045050
X076750Y-046050
T4
X046150Y-033966
X046150Y-035934
X057700Y-033816
X057700Y-035784
T5
X038437Y-032787
X038437Y-034913
X038437Y-044987
X038437Y-047113
X039500Y-033850
X039500Y-046050
X040563Y-032787
X040563Y-034913
X040563Y-044987
X040563Y-047113
T0
M30
