G04 This is an RS-274x file exported by *
G04 gerbv version 2.5.0 *
G04 More information is available about gerbv at *
G04 http://gerbv.gpleda.org/ *
G04 --End of header info--*
%MOIN*%
%FSLAX23Y23*%
%IPPOS*%
G04 --Define apertures--*
%ADD10C,0.0059*%
%ADD11C,0.0118*%
%ADD12R,0.0591X0.0709*%
%ADD13R,0.0591X0.0433*%
%ADD14R,0.0350X0.0550*%
%ADD15R,0.0550X0.0350*%
%ADD16R,0.1417X0.0630*%
%ADD17R,0.0630X0.1417*%
%ADD18R,0.0394X0.0315*%
%ADD19R,0.0787X0.0177*%
%ADD20R,0.0177X0.0787*%
%ADD21R,0.0800X0.0600*%
%ADD22R,0.0600X0.0800*%
%ADD23R,0.0315X0.0394*%
%ADD24R,0.0630X0.0276*%
%ADD25R,0.0827X0.0276*%
%ADD26R,0.1083X0.0787*%
%ADD27R,0.0800X0.1440*%
%ADD28R,0.0800X0.0400*%
%ADD29R,0.0276X0.0630*%
%ADD30R,0.0276X0.0827*%
%ADD31R,0.0787X0.1083*%
%ADD32R,0.0787X0.2165*%
%ADD33R,0.0551X0.0708*%
%ADD34O,0.1187X0.0593*%
%ADD35R,0.0472X0.0472*%
%ADD36R,0.0362X0.0276*%
G04 --Start main section--*
G54D12*
G01X06263Y-4355D03*
G54D13*
G01X06165Y-4321D03*
G01X06165Y-4388D03*
G54D14*
G01X05228Y-4320D03*
G01X05303Y-4320D03*
G01X06818Y-3810D03*
G01X06893Y-3810D03*
G01X06818Y-3895D03*
G01X06893Y-3895D03*
G54D15*
G01X07695Y-4207D03*
G01X07695Y-4132D03*
G01X07695Y-3362D03*
G01X07695Y-3437D03*
G54D14*
G01X06848Y-3475D03*
G01X06923Y-3475D03*
G01X05228Y-4120D03*
G01X05303Y-4120D03*
G54D15*
G01X07540Y-3947D03*
G01X07540Y-3872D03*
G01X05900Y-4342D03*
G01X05900Y-4267D03*
G54D14*
G01X05963Y-4015D03*
G01X06038Y-4015D03*
G01X06578Y-4405D03*
G01X06503Y-4405D03*
G01X06438Y-4405D03*
G01X06363Y-4405D03*
G54D15*
G01X06265Y-4217D03*
G01X06265Y-4142D03*
G54D14*
G01X06363Y-4320D03*
G01X06438Y-4320D03*
G01X06388Y-3840D03*
G01X06313Y-3840D03*
G54D15*
G01X06315Y-3687D03*
G01X06315Y-3762D03*
G01X06290Y-3617D03*
G01X06290Y-3542D03*
G01X06205Y-3617D03*
G01X06205Y-3542D03*
G54D14*
G01X05963Y-3910D03*
G01X05888Y-3910D03*
G54D16*
G01X05152Y-3700D03*
G01X05368Y-3700D03*
G54D14*
G01X06063Y-3725D03*
G01X05988Y-3725D03*
G01X06008Y-3415D03*
G01X05933Y-3415D03*
G01X06008Y-3330D03*
G01X05933Y-3330D03*
G01X06148Y-3940D03*
G01X06223Y-3940D03*
G54D15*
G01X04090Y-3967D03*
G01X04090Y-3892D03*
G01X05580Y-3487D03*
G01X05580Y-3562D03*
G54D17*
G01X03970Y-4052D03*
G01X03970Y-4268D03*
G54D15*
G01X04935Y-3762D03*
G01X04935Y-3837D03*
G01X05025Y-3762D03*
G01X05025Y-3837D03*
G54D14*
G01X04813Y-3280D03*
G01X04738Y-3280D03*
G01X04903Y-3275D03*
G01X04978Y-3275D03*
G54D15*
G01X04805Y-3467D03*
G01X04805Y-3542D03*
G01X04425Y-3467D03*
G01X04425Y-3542D03*
G01X04600Y-4057D03*
G01X04600Y-3982D03*
G54D14*
G01X07318Y-4295D03*
G01X07243Y-4295D03*
G54D15*
G01X04260Y-3467D03*
G01X04260Y-3542D03*
G01X04175Y-3467D03*
G01X04175Y-3542D03*
G01X04290Y-3977D03*
G01X04290Y-4052D03*
G54D14*
G01X04193Y-3385D03*
G01X04118Y-3385D03*
G01X07103Y-4295D03*
G01X07178Y-4295D03*
G01X07238Y-4670D03*
G01X07313Y-4670D03*
G54D16*
G01X06893Y-4575D03*
G01X06677Y-4575D03*
G54D15*
G01X05890Y-4112D03*
G01X05890Y-4037D03*
G54D18*
G01X06393Y-3945D03*
G01X06307Y-3982D03*
G01X06307Y-3907D03*
G54D19*
G01X07410Y-3801D03*
G01X07410Y-3832D03*
G01X07410Y-3864D03*
G01X07410Y-3895D03*
G01X07410Y-3927D03*
G01X07410Y-3958D03*
G01X07410Y-3990D03*
G01X07410Y-4021D03*
G01X07033Y-4021D03*
G01X07033Y-3800D03*
G01X07033Y-3832D03*
G01X07033Y-3864D03*
G01X07033Y-3895D03*
G01X07033Y-3927D03*
G01X07033Y-3958D03*
G01X07033Y-3990D03*
G54D20*
G01X07331Y-4100D03*
G01X07300Y-4100D03*
G01X07268Y-4100D03*
G01X07237Y-4100D03*
G01X07205Y-4100D03*
G01X07174Y-4100D03*
G01X07142Y-4100D03*
G01X07111Y-4100D03*
G01X07331Y-3722D03*
G01X07300Y-3722D03*
G01X07268Y-3722D03*
G01X07237Y-3722D03*
G01X07206Y-3722D03*
G01X07174Y-3722D03*
G01X07142Y-3722D03*
G01X07110Y-3722D03*
G54D21*
G01X06895Y-3710D03*
G01X06895Y-3580D03*
G01X06465Y-3630D03*
G01X06465Y-3760D03*
G54D22*
G01X05135Y-4215D03*
G01X05005Y-4215D03*
G01X05015Y-4580D03*
G01X04885Y-4580D03*
G01X05015Y-4455D03*
G01X04885Y-4455D03*
G54D21*
G01X04790Y-3790D03*
G01X04790Y-3660D03*
G01X06010Y-3630D03*
G01X06010Y-3500D03*
G54D22*
G01X04895Y-3665D03*
G01X05025Y-3665D03*
G01X05580Y-3385D03*
G01X05450Y-3385D03*
G54D21*
G01X05455Y-3495D03*
G01X05455Y-3625D03*
G54D22*
G01X05025Y-3555D03*
G01X04895Y-3555D03*
G01X04935Y-3385D03*
G01X04805Y-3385D03*
G01X04425Y-3385D03*
G01X04295Y-3385D03*
G01X07210Y-4390D03*
G01X07080Y-4390D03*
G54D21*
G01X04185Y-3905D03*
G01X04185Y-4035D03*
G54D22*
G01X06470Y-4650D03*
G01X06340Y-4650D03*
G54D23*
G01X06145Y-4022D03*
G01X06183Y-4108D03*
G01X06108Y-4108D03*
G54D18*
G01X04177Y-3645D03*
G01X04263Y-3607D03*
G01X04263Y-3682D03*
G54D24*
G01X04555Y-3701D03*
G54D25*
G01X04565Y-3760D03*
G54D24*
G01X04555Y-3819D03*
G54D26*
G01X04660Y-3760D03*
G54D18*
G01X06147Y-3725D03*
G01X06233Y-3687D03*
G01X06233Y-3762D03*
G01X06097Y-3375D03*
G01X06183Y-3337D03*
G01X06183Y-3412D03*
G54D27*
G01X05075Y-3385D03*
G54D28*
G01X05335Y-3385D03*
G01X05335Y-3295D03*
G01X05335Y-3475D03*
G54D23*
G01X03975Y-3752D03*
G01X04013Y-3838D03*
G01X03938Y-3838D03*
G54D14*
G01X06718Y-3580D03*
G01X06793Y-3580D03*
G54D15*
G01X05985Y-4342D03*
G01X05985Y-4267D03*
G01X07440Y-3332D03*
G01X07440Y-3407D03*
G54D14*
G01X06703Y-3980D03*
G01X06628Y-3980D03*
G01X06703Y-4060D03*
G01X06628Y-4060D03*
G01X06703Y-4140D03*
G01X06628Y-4140D03*
G01X06703Y-4220D03*
G01X06628Y-4220D03*
G01X05963Y-4190D03*
G01X06038Y-4190D03*
G01X05973Y-4105D03*
G01X06048Y-4105D03*
G01X06578Y-4320D03*
G01X06503Y-4320D03*
G54D15*
G01X06065Y-3872D03*
G01X06065Y-3947D03*
G54D14*
G01X06108Y-4220D03*
G01X06183Y-4220D03*
G54D15*
G01X06390Y-4217D03*
G01X06390Y-4142D03*
G01X04285Y-3852D03*
G01X04285Y-3777D03*
G01X06470Y-4142D03*
G01X06470Y-4217D03*
G54D14*
G01X05013Y-4365D03*
G01X04938Y-4365D03*
G54D15*
G01X04390Y-3817D03*
G01X04390Y-3742D03*
G54D14*
G01X06223Y-3840D03*
G01X06148Y-3840D03*
G54D15*
G01X04820Y-4292D03*
G01X04820Y-4367D03*
G01X04470Y-3742D03*
G01X04470Y-3817D03*
G01X04775Y-4432D03*
G01X04775Y-4507D03*
G01X06370Y-3617D03*
G01X06370Y-3542D03*
G54D14*
G01X04813Y-4115D03*
G01X04888Y-4115D03*
G54D15*
G01X05880Y-3672D03*
G01X05880Y-3747D03*
G01X06120Y-3622D03*
G01X06120Y-3547D03*
G54D14*
G01X06268Y-3340D03*
G01X06343Y-3340D03*
G01X04013Y-3910D03*
G01X03938Y-3910D03*
G54D15*
G01X03865Y-3997D03*
G01X03865Y-3922D03*
G54D29*
G01X04376Y-4060D03*
G54D30*
G01X04435Y-4050D03*
G54D29*
G01X04494Y-4060D03*
G54D31*
G01X04435Y-3955D03*
G54D24*
G01X07195Y-4604D03*
G54D25*
G01X07185Y-4545D03*
G54D24*
G01X07195Y-4486D03*
G54D26*
G01X07091Y-4545D03*
G54D32*
G01X07695Y-3975D03*
G01X07695Y-3605D03*
G54D33*
G01X05108Y-4455D03*
G01X05242Y-4455D03*
G01X04896Y-4205D03*
G01X04762Y-4205D03*
G01X04997Y-4029D03*
G01X04864Y-4029D03*
G54D34*
G01X07675Y-4605D03*
G01X07675Y-4505D03*
G54D17*
G01X07400Y-4357D03*
G01X07400Y-4573D03*
G54D33*
G01X06263Y-4055D03*
G01X06397Y-4055D03*
G54D35*
G01X03865Y-3691D03*
G01X03865Y-3609D03*
G54D14*
G01X04028Y-3675D03*
G01X03953Y-3675D03*
G54D35*
G01X03865Y-3851D03*
G01X03865Y-3769D03*
G54D22*
G01X06895Y-4360D03*
G01X06765Y-4360D03*
G54D35*
G01X07270Y-3514D03*
G01X07270Y-3596D03*
G54D14*
G01X07368Y-3515D03*
G01X07443Y-3515D03*
G54D36*
G01X04675Y-4656D03*
G01X04675Y-4606D03*
G01X04675Y-4556D03*
G01X04675Y-4506D03*
G01X04675Y-4456D03*
G01X04675Y-4406D03*
G01X04675Y-4356D03*
G01X04675Y-4306D03*
G01X04675Y-4256D03*
G01X04675Y-4206D03*
G01X04675Y-4156D03*
G01X04163Y-4656D03*
G01X04163Y-4606D03*
G01X04163Y-4556D03*
G01X04163Y-4506D03*
G01X04163Y-4456D03*
G01X04163Y-4406D03*
G01X04163Y-4356D03*
G01X04163Y-4306D03*
G01X04163Y-4256D03*
G01X04163Y-4206D03*
G01X04163Y-4156D03*
M02*
