M48
INCH,TZ
T10C0.016
T11C0.032
T12C0.039
T13C0.039
T14C0.039
%
T10
X038600Y-42800
X039700Y-42683
X040450Y-37450
X040800Y-38400
X041550Y-47400
X041600Y-32600
X041750Y-35425
X042200Y-41050
X042400Y-32600
X042500Y-43000
X042500Y-44000
X042500Y-47000
X042600Y-35425
X043000Y-45000
X043000Y-46000
X043150Y-47400
X043400Y-32600
X043450Y-35850
X043500Y-43000
X043500Y-44000
X043500Y-45000
X043500Y-46000
X043500Y-47000
X043530Y-34670
X044250Y-35425
X044350Y-39555
X044400Y-32600
X044400Y-36400
X044500Y-44000
X044500Y-45000
X044500Y-46000
X044500Y-47000
X044800Y-47400
X044820Y-43320
X044860Y-41350
X045040Y-34630
X045200Y-36400
X045300Y-39750
X045400Y-32600
X045880Y-41360
X046000Y-42500
X046000Y-44000
X046000Y-46000
X046050Y-38950
X046150Y-35934
X046180Y-34630
X046400Y-32600
X046750Y-36500
X046800Y-38800
X046800Y-40600
X046800Y-47400
X047250Y-32600
X047250Y-35230
X047265Y-34575
X047265Y-35940
X047350Y-43300
X047800Y-38600
X047800Y-39800
X048950Y-36650
X049200Y-47400
X049600Y-34710
X049800Y-38400
X050250Y-32700
X051150Y-35730
X051170Y-34900
X051200Y-32550
X051200Y-37800
X051200Y-38400
X051200Y-40200
X051500Y-47400
X051550Y-37000
X052170Y-34900
X052300Y-32550
X052400Y-37800
X052550Y-36400
X052800Y-42200
X053250Y-40200
X053350Y-34750
X053375Y-32970
X053390Y-32580
X053550Y-36250
X053550Y-47400
X053600Y-37800
X053650Y-35750
X053890Y-45480
X054500Y-32500
X055200Y-37800
X055305Y-36260
X055600Y-47400
X055800Y-36250
X056085Y-44385
X056400Y-37800
X056450Y-39100
X056500Y-32500
X056600Y-45640
X056780Y-36460
X057075Y-43365
X057150Y-47400
X058230Y-36490
X058500Y-32500
X058970Y-44440
X058970Y-45500
X059350Y-35600
X059450Y-47400
X059800Y-37550
X060100Y-36300
X060200Y-44220
X060500Y-32500
X060810Y-41545
X061350Y-47400
X061580Y-46230
X061900Y-41600
X062000Y-32500
X062050Y-40150
X062640Y-39140
X062860Y-42760
X062900Y-35425
X063300Y-34900
X063300Y-40940
X063400Y-33450
X063400Y-34250
X063400Y-47400
X063450Y-32500
X063735Y-35415
X064200Y-45200
X064450Y-35500
X064650Y-36300
X064800Y-32550
X064900Y-47400
X065510Y-33470
X065510Y-35490
X065510Y-36500
X065510Y-37500
X065510Y-39510
X065510Y-40470
X065510Y-41490
X065540Y-34400
X065540Y-38480
X065540Y-42370
X066300Y-47400
X066550Y-32550
X066767Y-45750
X066800Y-43600
X067185Y-33670
X067200Y-38900
X067670Y-37580
X067670Y-39330
X067680Y-38120
X067800Y-42600
X067850Y-47400
X067910Y-37220
X067920Y-36550
X068800Y-32500
X069250Y-47400
X069400Y-39500
X069400Y-40600
X069680Y-42965
X069850Y-35850
X070240Y-43020
X070850Y-47400
X070905Y-45450
X071200Y-39800
X071250Y-32500
X071250Y-38830
X071750Y-35850
X071950Y-39950
X072100Y-36350
X072100Y-38050
X072350Y-47400
X072470Y-38700
X072800Y-39300
X072800Y-39800
X072900Y-44850
X073350Y-32500
X073405Y-41960
X073750Y-41700
X073950Y-47350
X074000Y-45733
X074100Y-36100
X074250Y-36500
X074800Y-41600
X074960Y-37470
X075000Y-36980
X075000Y-44600
X075210Y-40665
X075300Y-32500
X075400Y-39475
X075510Y-36000
X075530Y-34970
X075800Y-44600
X075850Y-47300
X076000Y-40400
X076000Y-42600
X076030Y-34160
X076060Y-32690
X077350Y-42600
X077600Y-44000
X077700Y-32500
X077700Y-34050
X077700Y-35700
X077700Y-37450
X077700Y-39150
X077700Y-40450
X077700Y-42350
X077700Y-46050
X077700Y-47300
T11
X049350Y-39350
X050350Y-39350
X054050Y-41200
X054050Y-43200
X055100Y-38450
X055100Y-39450
X055100Y-40450
X055100Y-41450
X055100Y-42450
X055100Y-43450
X055100Y-44450
X055100Y-45450
X058100Y-38450
X058100Y-39450
X058100Y-40450
X058100Y-41450
X058100Y-42450
X058100Y-43450
X058100Y-44450
X058100Y-45450
X068300Y-33750
X069300Y-33750
X070300Y-33750
X071300Y-33750
X072300Y-33750
X073300Y-33750
T12
X076750Y-45050
X076750Y-46050
T13
X046150Y-33966
X046150Y-35934
X057700Y-33816
X057700Y-35784
T14
X038437Y-32787
X038437Y-34913
X038437Y-44987
X038437Y-47113
X039500Y-33850
X039500Y-46050
X040563Y-32787
X040563Y-34913
X040563Y-44987
X040563Y-47113
M30

